<svg xmlns="http://www.w3.org/2000/svg" width="36.977" height="37.025" viewBox="0 0 36.977 37.025">
  <path id="Icon_metro-cross" data-name="Icon metro-cross" d="M27.717,24.237h0L14.062,9.8,27.714-3.4h0a.74.74,0,0,0,.168-.265.75.75,0,0,0-.168-.787L24.342-7.869a.728.728,0,0,0-.777-.17.73.73,0,0,0-.262.17h0L9.65,5.331-4.419-7.869h0a.73.73,0,0,0-.262-.17.728.728,0,0,0-.777.17L-8.831-4.456A.75.75,0,0,0-9-3.67a.741.741,0,0,0,.168.265h0L5.239,9.8-8.8,24.257h0a.742.742,0,0,0-.168.265.75.75,0,0,0,.168.787l3.372,3.412a.729.729,0,0,0,.777.17.73.73,0,0,0,.262-.17h0L9.65,14.261,23.305,28.7h0a.731.731,0,0,0,1.039,0l3.372-3.412a.75.75,0,0,0,.168-.787.741.741,0,0,0-.168-.265Z" transform="translate(9.045 8.086)" fill="#fff"/>
</svg>
