<?xml version="1.0" encoding="UTF-8"?>
<svg xmlns="http://www.w3.org/2000/svg" viewBox="0 0 1024 512">
  <defs>
    <style>
      .cls-1 {
        fill: #6e7260;
      }

      .cls-2 {
        fill: #99834b;
      }

      .cls-3 {
        fill: #7f8271;
      }

      .cls-4 {
        fill: #4c4b1e;
      }

      .cls-5 {
        fill: #959b7e;
      }

      .cls-6 {
        fill: #b29552;
      }

      .cls-7 {
        fill: #7a6438;
      }

      .cls-8 {
        fill: #454f25;
      }

      .cls-9 {
        fill: #dddb9b;
      }

      .cls-10 {
        fill: #d4ad5f;
      }

      .cls-11 {
        fill: #60602b;
      }

      .cls-12 {
        fill: #5c6b37;
      }

      .cls-13 {
        fill: #848971;
      }

      .cls-14 {
        fill: #8e7743;
      }

      .cls-15 {
        fill: #efefcb;
      }

      .cls-16 {
        fill: #757365;
      }

      .cls-17 {
        fill: #666458;
      }

      .cls-18 {
        fill: #a7c9b9;
      }

      .cls-19 {
        fill: #bfbc8a;
      }
    </style>
  </defs>
  <g id="layer_5" data-name="layer 5">
    <polygon class="cls-18" points="512 0 0 0 0 512 512 512 1024 512 1024 0 512 0"/>
    <circle class="cls-10" cx="792" cy="102" r="46"/>
    <path class="cls-13" d="m216,92.38s-44,1.59-44-7.95,41-9.54,41-9.54c0,0-1-15.89,13-18.28,14-2.38,17,11.92,17,18.28,0,0,3-13.51,18-14.3,3.99-.21,26-2.38,28,13.51,0,0,109.48-1.88,139,0,25,1.59,23,7.95,23,7.95,0,0,1,7.95-25,7.95s-210,2.38-210,2.38Z"/>
    <path class="cls-15" d="m819,105s-46-2-55,0-11,6-11,6c0,0-1,8,10,7s232,2,237,2,12,.5,15-5.25-5.33-10.27-12.67-10.01c-7.33.26-51.33-1.74-51.33-1.74,0,0-3-20-45-19-41,.98-41,12-43,17,0,0-6-9-21-8-10.98.73-17,2-23,12Z"/>
    <path class="cls-15" d="m397.47,295.76s-19.16-.83-22.9,0c-3.75.83-4.58,2.5-4.58,2.5,0,0-.42,3.33,4.16,2.92,4.58-.42,96.61.83,98.69.83s5,.21,6.25-2.19c1.25-2.39-2.22-4.28-5.27-4.17-3.05.11-21.38-.72-21.38-.72,0,0-1.25-8.33-18.74-7.91-17.07.41-17.07,5-17.91,7.08,0,0-2.5-3.75-8.74-3.33-4.57.3-7.08.83-9.58,5Z"/>
    <path class="cls-13" d="m682.87,236h-14.19s-3.68,0-3.68,3,3.68,4,3.68,4l94.63,2s3.15-2,2.63-5-2.63-4-2.63-4h-16.99s-2.98-9-19.29-9c-13.14,0-16.3,1-18.93,7,0,0-2.1-7-13.14-6-7.26.66-8.94,0-12.09,8Z"/>
  </g>
  <g id="layer_4" data-name="layer 4">
    <g>
      <path class="cls-5" d="m132.26,319.55l11.79-49.58c.55-2.33,2.64-3.97,5.03-3.97h36.67c2.47,0,4.59-1.74,5.07-4.16l13.2-66.35c.54-2.72,3.13-4.53,5.87-4.1l45.38,7.13c2.21.35,3.95,2.08,4.3,4.3l10.77,67.65c.38,2.36,2.32,4.16,4.7,4.34l15.93,1.25c2.36.19,4.29,1.95,4.69,4.28l3.73,21.79c.36,2.09,1.95,3.74,4.02,4.19l23.3,4.96c2.46.52,4.19,2.75,4.09,5.27l-4.59,113.35c-.12,3.06-2.87,5.35-5.91,4.91l-166.71-24.1c-2.16-.31-3.9-1.95-4.33-4.1l-17.06-84.83c-.15-.73-.13-1.49.04-2.22Z"/>
      <path class="cls-3" d="m215.36,204.15l34.65,3.75c.58.06,1.03.52,1.09,1.09l7.77,74.79c.07.67.67,1.16,1.34,1.1l27.62-2.76c.65-.07,1.24.39,1.34,1.04l3.72,24.15c.07.43.35.79.76.95l28.48,11.39c.51.21.83.73.76,1.28l-6.75,58.86c-.08.67-.68,1.15-1.35,1.08l-110.69-11.75c-.62-.07-1.1-.59-1.1-1.22v-19.59c0-.71.6-1.27,1.3-1.23l62.81,3.87c.53.03,1.02-.28,1.22-.77l7.08-17.69c.3-.75-.19-1.58-1-1.68l-56.22-6.67c-.66-.08-1.14-.67-1.08-1.33l.79-8.67c.06-.64.61-1.13,1.25-1.12l43.11.96c.46.01.88-.23,1.1-.63l3.82-6.88c.4-.73-.02-1.64-.83-1.8l-62.02-12.4c-.71-.14-1.15-.87-.93-1.57l3.26-10.6c.19-.62.83-.99,1.46-.83l30.26,7.34c.8.19,1.57-.44,1.52-1.27l-2.82-45.18c-.04-.65-.58-1.15-1.23-1.15h-20.62c-.68,0-1.23-.55-1.23-1.23v-32.4c0-.73.63-1.3,1.36-1.22Z"/>
    </g>
    <g>
      <path class="cls-13" d="m190.73,416.46l-21.05-108c-.41-2.12-1.99-3.82-4.07-4.4l-30.1-8.36c-1.59-.44-2.91-1.55-3.62-3.04l-7.98-16.77c-.58-1.22-1.57-2.19-2.81-2.75l-15.61-7.03c-1.57-.71-2.73-2.08-3.17-3.75l-3.82-14.53c-.31-1.19-1.01-2.25-1.97-3.02l-20.74-16.42c-1.14-.9-2.57-1.33-4.02-1.21L0,233.3v196.73l185.34-6.79c3.5-.13,6.05-3.35,5.38-6.78Z"/>
      <path class="cls-1" d="m.71,376.93c30.44,1.65,146.49-26.1,159.17-29.16.61-.15.96-.78.77-1.38l-7.42-23.07c-.13-.42-.5-.71-.94-.74l-17.23-1.39c-.43-.03-.8-.33-.94-.74l-10.97-33.54c-.09-.28-.29-.51-.56-.64l-25.12-12.01c-.29-.14-.5-.4-.58-.71l-4.78-19.43c-.07-.27-.23-.5-.47-.65l-22.32-14.26c-.21-.13-.45-.19-.7-.16l-61.8,6.65c-.49.05-.88.43-.95.91l-.69,4.67c-.1.67.44,1.26,1.11,1.23l52.71-2.17c.56-.02,1.04.39,1.11.94l.74,5.83c.08.6-.36,1.15-.96,1.21l-31.93,3.18c-.55.05-.97.52-.97,1.07v9.22c0,.61.5,1.1,1.11,1.08l35.04-1.07c.5-.02.95.32,1.07.8l5.45,20.53c.17.65-.29,1.3-.96,1.35l-55.63,4.34c-.59.05-1.04.57-.99,1.16l.83,10.3c.05.58.55,1.02,1.14.99l54.97-3.27c.55-.03,1.04.36,1.13.91l2.67,17.07c.1.63-.37,1.21-1,1.24l-71.81,3.99v14.27l59.88-2.46c.61-.03,1.12.46,1.12,1.08v12.62c0,.54-.41,1-.95,1.07l-60.05,7.31v11.49c.18.2.43.33.71.34Z"/>
    </g>
    <g>
      <path class="cls-13" d="m1002.91,238.76l-10.72,37.12c-.7,2.44-2.94,4.12-5.47,4.12h-19.14c-2.19,0-4.18,1.25-5.13,3.23l-10.04,20.84c-.87,1.82-2.64,3.04-4.65,3.21l-74.54,6.29c-2.95.25-5.22,2.72-5.22,5.68v64.38c0,.25-.02.51-.05.76l-6.05,44.92c-.47,3.5,2.32,6.58,5.85,6.45l156.24-5.72v-196.73l-16.1,1.37c-2.35.2-4.33,1.83-4.99,4.1Z"/>
      <path class="cls-1" d="m1020.45,366.85l3.31,9.36c.05.14.14.27.24.37v-11.49l-2.67.32c-.68.08-1.12.78-.89,1.43Z"/>
      <path class="cls-1" d="m975,334.96v11.42c0,.61.51,1.1,1.12,1.08l47.88-1.97v-14.27l-47.98,2.67c-.57.03-1.02.5-1.02,1.08Z"/>
    </g>
  </g>
  <g id="layer_3" data-name="layer 3">
    <path class="cls-19" d="m512,436l512,10.5v-70.9c-3.08.45-6.09.91-9,1.4-133,22-503,1-503,1-65.53-5.87-374.07-22.26-512-2.39v70.89l512,10.5v-21Z"/>
    <g>
      <path class="cls-9" d="m512,491.54l512,1.23v-123.76c-8.05.21-16.11.22-24.17.01-9.49-.25-19.54-.65-29.83-1.28-51-3.1-182.9-44.78-195-52-13-7.76-64.18,18.04-109,38.81-52.41,24.29-117.06,40.5-142.73,46.41-7.46,1.72-15.14,2.23-22.77,1.56-159.94-14.08-231.94-68.25-250.5-72.8-13.05-3.2-106.26,16.3-163.39,28.83-28.25,6.2-57.33,9.71-86.61,10.47v123.76l512,1.23v-2.46Z"/>
      <path class="cls-19" d="m61.22,363.35c-20.16,3.23-40.64,5.13-61.22,5.67v12.57c31.16-6.5,61.22-18.23,61.22-18.23h0Z"/>
      <path class="cls-19" d="m999.83,369.03c-9.49-.25-19.54-.65-29.83-1.28-51-3.1-182.9-44.78-195-52-4.66-2.78-14.23-1.24-26.64,2.82-23.47,16.52-79.62,55.07-105.36,64.43-33,12-48,15-39,23s117-44,117-44c0,0,19-9,12,3s-51,25-47,32,58-12,73-20,27-13,30-6-30,24-32,33,70-9,70-9c0,0,68-10,101-9s38,3,75-1c6.83-.74,13.94-1.94,21-3.42v-12.57c-8.05.21-16.11.22-24.17,0Z"/>
    </g>
  </g>
  <g id="layer_2" data-name="layer 2">
    <g>
      <path class="cls-2" d="m1024,483v-81.71c-143,30.13-313.08,49.86-512,46v-1.33c-66.88-15.93-142.83-33.45-227-51.9-51.85-11.36-81.68-17.57-123-16.63-52.49,1.19-114.89,13.72-129,16.63-12.86,2.66-22.22,4.94-24,5.32-2.98.64-5.99,1.27-9,1.91v81.71h1024Z"/>
      <path class="cls-14" d="m181,419c32.37,4.45,202.72,29.99,295,53,7.3,1.82,72-5,85-24l-23.49-.56c-12.21-.29-24.36-1.84-36.25-4.64-63.53-14.95-139.39-31.89-216.26-48.74-51.85-11.36-81.68-17.57-123-16.63-52.49,1.19-114.89,13.72-129,16.63-12.86,2.66-22.22,4.94-24,5.32-2.79.6-5.8,1.23-9,1.87v17.56c19.49-2.35,41.3-4.63,66-6.82,38.99-3.45,65.93.26,115,7Z"/>
      <path class="cls-14" d="m889,442c32.86-7.3,71.59-15.55,135-23.18v-17.56c-52.5,10.57-157.23,26.62-209,33.75,2.72,5.93,65,9,74,7Z"/>
    </g>
    <g>
      <g>
        <path class="cls-12" d="m29,384.94v38.12c0,2.73,2.21,4.94,4.94,4.94h10.12c2.73,0,4.94,2.21,4.94,4.94v52.06h11v-52.06c0-2.73,2.21-4.94,4.94-4.94h3.12c2.73,0,4.94-2.21,4.94-4.94v-76.12c0-2.73-2.21-4.94-4.94-4.94h-1.19c-2.7,0-4.9,2.17-4.94,4.87l-.87,66.26c-.04,2.7-2.24,4.87-4.94,4.87h-11.19c-2.73,0-4.94-2.21-4.94-4.94v-28.12c0-2.73-2.21-4.94-4.94-4.94h-1.12c-2.73,0-4.94,2.21-4.94,4.94Z"/>
        <path class="cls-8" d="m68.06,342h-1.19c-2.7,0-4.9,2.17-4.94,4.87l-.87,66.25c-.04,2.7-2.24,4.87-4.94,4.87h-11.19c-2.73,0-4.94-2.21-4.94-4.94v-28.12c0-2.73-2.21-4.94-4.94-4.94h-.72c-1,1.93.2,9.68.66,17,1,16-4.03,28,15,28,15,0,19.95-2.95,23-7.09v-70.97c0-2.73-2.21-4.94-4.94-4.94Z"/>
      </g>
      <g>
        <path class="cls-12" d="m343,433.42v-30.83c0-1.98,1.6-3.58,3.58-3.58h3.83c1.98,0,3.58,1.6,3.58,3.58v20.83c0,1.98,1.6,3.58,3.58,3.58h2.83c1.98,0,3.58-1.6,3.58-3.58v-66.83c0-1.98,1.6-3.58,3.58-3.58h5.83c1.98,0,3.58,1.6,3.58,3.58v66.83c0,1.98,1.6,3.58,3.58,3.58h2.83c1.98,0,3.58-1.6,3.58-3.58v-47.83c0-1.98,1.6-3.58,3.58-3.58h4.83c1.98,0,3.58,1.6,3.58,3.58v57.83c0,1.98-1.6,3.58-3.58,3.58h-15.58c-1.56,0-2.83,1.27-2.83,2.83v29.17h-11v-29.17c0-1.56-1.27-2.83-2.83-2.83h-16.58c-1.98,0-3.58-1.6-3.58-3.58Z"/>
        <path class="cls-8" d="m364,423.42c0,1.98-1.6,3.58-3.58,3.58h-2.83c-1.98,0-3.58-1.6-3.58-3.58v-20.83c0-1.98-1.6-3.58-3.58-3.58h-2.42c-.51,1.32-1,6.46-1,10,0,8-1,21,4,22,8.88,1.78,14,0,13-8v.42Z"/>
        <path class="cls-8" d="m395.42,372h-4.83c-1.98,0-3.58,1.6-3.58,3.58v47.83c0,1.98-1.6,3.58-3.58,3.58h-2.83c-1.98,0-3.58-1.6-3.58-3.58v-66.83c0-1.98-1.6-3.58-3.58-3.58h-2.92c-.19.81-.54,1.79-.5,3,.35,9.03-2.72,72.01,3,76,5.74,4.01,20.09,3.61,26-.74v-55.68c0-1.98-1.6-3.58-3.58-3.58Z"/>
      </g>
      <path class="cls-11" d="m126,468.76l-1.7-14.93c-.06-.51-1.05-.57-1.22-.07l-2.46,7.18c-.17.48-1.12.45-1.22-.05l-4.11-21.01c-.1-.52-1.13-.52-1.23,0l-4.21,21.49c-.09.47-.98.54-1.2.09l-3.58-7.31c-.21-.43-1.07-.39-1.2.06l-2.35,8.56c-.11.41-.86.5-1.15.14l-5.46-6.83c-.3-.38-1.1-.25-1.16.18l-1.81,13.21c-.04.27.26.51.64.5l32.82-.73c.36,0,.63-.23.6-.49Z"/>
      <path class="cls-11" d="m326,470.84l2.25-14.19c.08-.49,1.39-.54,1.62-.07l3.25,6.83c.22.46,1.48.43,1.61-.04l5.43-19.97c.13-.49,1.49-.49,1.63,0l5.55,20.43c.12.45,1.3.51,1.59.08l4.72-6.95c.28-.41,1.42-.37,1.58.06l3.09,8.13c.15.39,1.13.48,1.51.13l7.2-6.49c.4-.36,1.45-.24,1.53.17l2.39,12.56c.05.26-.35.48-.84.47l-43.29-.69c-.47,0-.83-.22-.79-.47Z"/>
      <path class="cls-4" d="m300.99,471.67l-1.49-15.9c-.1-1.1.46-1.86.83-1.13l2.61,5.12c.29.58.75.23.83-.64l3.66-38.2c.12-1.26.92-1.21,1.01.06l2.53,35.8c.07,1.03.66,1.35.92.49l1.76-5.64c.26-.82.82-.56.92.43l.88,9.02c.07.72.41,1.12.71.82l4.55-4.62c.29-.3.63.08.7.79l1.58,14.45c.08.75-.17,1.48-.51,1.45l-21-1.37c-.24-.02-.44-.4-.49-.92Z"/>
      <path class="cls-4" d="m385.03,471.61l-2.01-9.39c-.14-.65.62-1.1,1.13-.67l3.53,3.03c.4.34,1.01.13,1.13-.38l4.94-22.58c.16-.75,1.24-.72,1.36.04l3.41,21.16c.1.61.89.79,1.25.29l2.38-3.33c.35-.49,1.11-.33,1.24.25l1.18,5.33c.09.43.56.66.96.48l6.14-2.73c.39-.17.85.05.95.46l2.14,8.54c.11.44-.23.87-.69.86l-28.37-.81c-.32,0-.59-.23-.66-.55Z"/>
      <path class="cls-4" d="m47.03,470.61l-2.01-9.39c-.14-.65.62-1.1,1.13-.67l3.53,3.03c.4.34,1.01.13,1.13-.38l4.94-22.58c.16-.75,1.24-.72,1.36.04l3.41,21.16c.1.61.89.79,1.25.29l2.38-3.33c.35-.49,1.11-.33,1.24.25l1.18,5.33c.09.43.56.66.96.48l6.14-2.73c.39-.17.85.05.95.46l2.14,8.54c.11.44-.23.87-.69.86l-28.37-.81c-.32,0-.59-.23-.66-.55Z"/>
      <g>
        <path class="cls-12" d="m587.05,472.01l-.1-127c0-3.87,3.13-7,6.99-7.01h0c3.87,0,7,3.13,7.01,6.99l.06,74.17c0,2.67,2.17,4.83,4.84,4.83h1.33c2.67,0,4.83-2.17,4.83-4.84l-.03-41.33c0-2.67,2.16-4.83,4.83-4.84h2.33c2.67,0,4.84,2.16,4.84,4.83l.04,49.5c0,4.23-3.43,7.67-7.66,7.67h-9c-3.5,0-6.33,2.85-6.33,6.35l.02,30.67h-14Z"/>
        <path class="cls-8" d="m623.98,377.82c0-2.67-2.17-4.83-4.84-4.83h-2.33c-2.67,0-4.83,2.17-4.83,4.84l.03,41.33c0,2.67-2.16,4.84-4.83,4.84h-1.33c-2.67,0-4.83-2.16-4.84-4.83l-.06-74.17c0-3.79-3.02-6.86-6.77-6.98-.55,2.33-1.18,7.32-1.18,17.98,0,19-3,70,6,74s19,1,22-3c1.11-1.48,2.08-3.23,3.01-6.05l-.03-43.13Z"/>
      </g>
      <g>
        <path class="cls-12" d="m699,355.54v43.99c0,3.15,3.06,5.7,6.85,5.7h14.04c3.78,0,6.85,2.55,6.85,5.7v60.07h15.25v-60.07c0-3.15,3.06-5.7,6.85-5.7h4.33c3.78,0,6.85-2.55,6.85-5.7v-87.84c0-3.15-3.06-5.7-6.85-5.7h-1.65c-3.75,0-6.8,2.51-6.84,5.62l-1.21,76.45c-.05,3.12-3.1,5.62-6.84,5.62h-15.51c-3.78,0-6.85-2.55-6.85-5.7v-32.45c0-3.15-3.06-5.7-6.85-5.7h-1.56c-3.78,0-6.85,2.55-6.85,5.7Z"/>
        <path class="cls-8" d="m753.15,306h-1.65c-3.75,0-6.8,2.51-6.84,5.62l-1.21,76.45c-.05,3.12-3.1,5.62-6.84,5.62h-15.51c-3.78,0-6.85-2.55-6.85-5.7v-32.45c0-3.15-3.06-5.7-6.85-5.7h-1c-1.39,2.22.28,11.17.91,19.62,1.39,18.46-5.58,32.31,20.8,32.31,20.8,0,27.65-3.41,31.89-8.18v-81.89c0-3.15-3.06-5.7-6.85-5.7Z"/>
      </g>
      <g>
        <path class="cls-12" d="m763,435.42v-30.83c0-1.98,1.6-3.58,3.58-3.58h3.83c1.98,0,3.58,1.6,3.58,3.58v20.83c0,1.98,1.6,3.58,3.58,3.58h2.83c1.98,0,3.58-1.6,3.58-3.58v-66.83c0-1.98,1.6-3.58,3.58-3.58h5.83c1.98,0,3.58,1.6,3.58,3.58v66.83c0,1.98,1.6,3.58,3.58,3.58h2.83c1.98,0,3.58-1.6,3.58-3.58v-47.83c0-1.98,1.6-3.58,3.58-3.58h4.83c1.98,0,3.58,1.6,3.58,3.58v57.83c0,1.98-1.6,3.58-3.58,3.58h-15.58c-1.56,0-2.83,1.27-2.83,2.83v29.17h-11v-29.17c0-1.56-1.27-2.83-2.83-2.83h-16.58c-1.98,0-3.58-1.6-3.58-3.58Z"/>
        <path class="cls-8" d="m784,425.42c0,1.98-1.6,3.58-3.58,3.58h-2.83c-1.98,0-3.58-1.6-3.58-3.58v-20.83c0-1.98-1.6-3.58-3.58-3.58h-2.42c-.51,1.32-1,6.46-1,10,0,8-1,21,4,22,8.88,1.78,14,0,13-8v.42Z"/>
        <path class="cls-8" d="m815.42,374h-4.83c-1.98,0-3.58,1.6-3.58,3.58v47.83c0,1.98-1.6,3.58-3.58,3.58h-2.83c-1.98,0-3.58-1.6-3.58-3.58v-66.83c0-1.98-1.6-3.58-3.58-3.58h-2.92c-.19.81-.54,1.79-.5,3,.35,9.03-2.72,72.01,3,76,5.74,4.01,20.09,3.61,26-.74v-55.68c0-1.98-1.6-3.58-3.58-3.58Z"/>
      </g>
      <path class="cls-4" d="m521.05,469.37l1.65-19.75c.06-.68,1.02-.76,1.18-.1l2.38,9.5c.16.64,1.08.59,1.18-.06l3.97-27.8c.1-.69,1.09-.69,1.19,0l4.06,28.43c.09.62.95.71,1.16.12l3.45-9.67c.2-.57,1.04-.51,1.16.08l2.26,11.32c.11.54.83.66,1.11.19l5.27-9.03c.29-.5,1.06-.34,1.12.24l1.75,17.48c.04.36-.25.67-.62.66l-31.68-.96c-.34-.01-.61-.31-.58-.65Z"/>
      <path class="cls-11" d="m584,469.37l-1.15-19.75c-.04-.68-.71-.76-.83-.1l-1.67,9.5c-.11.64-.76.59-.83-.06l-2.79-27.8c-.07-.69-.77-.69-.83,0l-2.85,28.43c-.06.62-.67.71-.81.12l-2.42-9.67c-.14-.57-.73-.51-.81.08l-1.59,11.32c-.08.54-.58.66-.78.19l-3.7-9.03c-.21-.5-.74-.34-.78.24l-1.23,17.48c-.03.36.18.67.43.66l22.22-.96c.24-.01.43-.31.41-.65Z"/>
      <path class="cls-4" d="m844,469.44l1.95-19.1c.07-.65,1.21-.73,1.4-.09l2.82,9.19c.19.62,1.29.57,1.4-.06l4.71-26.88c.12-.67,1.29-.67,1.41,0l4.82,27.49c.11.6,1.13.68,1.38.11l4.09-9.35c.24-.56,1.23-.5,1.37.08l2.68,10.95c.13.52.98.64,1.31.18l6.25-8.73c.35-.49,1.26-.33,1.32.24l2.07,16.9c.04.35-.3.65-.73.64l-37.57-.93c-.41-.01-.72-.3-.69-.63Z"/>
      <path class="cls-11" d="m710,469.76l-1.7-14.93c-.06-.51-1.05-.57-1.22-.07l-2.46,7.18c-.17.48-1.12.45-1.22-.05l-4.11-21.01c-.1-.52-1.13-.52-1.23,0l-4.21,21.49c-.09.47-.98.54-1.2.09l-3.58-7.31c-.21-.43-1.07-.39-1.2.06l-2.35,8.56c-.11.41-.86.5-1.15.14l-5.46-6.83c-.3-.38-1.1-.25-1.16.18l-1.81,13.21c-.04.27.26.51.64.5l32.82-.73c.36,0,.63-.23.6-.49Z"/>
      <path class="cls-11" d="m918,469.76l-1.7-14.93c-.06-.51-1.05-.57-1.22-.07l-2.46,7.18c-.17.48-1.12.45-1.22-.05l-4.11-21.01c-.1-.52-1.13-.52-1.23,0l-4.21,21.49c-.09.47-.98.54-1.2.09l-3.58-7.31c-.21-.43-1.07-.39-1.2.06l-2.35,8.56c-.11.41-.86.5-1.15.14l-5.46-6.83c-.3-.38-1.1-.25-1.16.18l-1.81,13.21c-.04.27.26.51.64.5l32.82-.73c.36,0,.63-.23.6-.49Z"/>
      <path class="cls-11" d="m956,470.82l2.25-14.19c.08-.49,1.39-.54,1.62-.07l3.25,6.83c.22.46,1.48.43,1.61-.04l5.43-19.97c.13-.49,1.49-.49,1.63,0l5.55,20.43c.12.45,1.3.51,1.59.08l4.72-6.95c.28-.41,1.42-.37,1.58.06l3.09,8.13c.15.39,1.13.48,1.51.13l7.2-6.49c.4-.36,1.45-.24,1.53.17l2.39,12.56c.05.26-.35.48-.84.47l-43.29-.69c-.47,0-.83-.22-.79-.47Z"/>
      <path class="cls-4" d="m597.24,469.79l-1.74-8.14c-.12-.56.54-.95.98-.58l3.06,2.62c.34.3.88.12.98-.33l4.28-19.56c.14-.65,1.07-.62,1.18.03l2.96,18.33c.09.53.77.69,1.08.25l2.06-2.89c.3-.42.96-.29,1.07.22l1.03,4.62c.08.37.48.57.83.42l5.32-2.37c.34-.15.73.04.82.4l1.85,7.4c.1.39-.2.76-.6.74l-24.57-.7c-.28,0-.51-.2-.57-.47Z"/>
      <path class="cls-4" d="m1020.44,463.74l-.88-11.36c-.1-1.25-.66-1.58-.92-.54l-1.76,7.1c-.27,1.07-.85.68-.92-.62l-2.53-45.09c-.09-1.61-.89-1.67-1.01-.08l-3.66,48.11c-.08,1.09-.54,1.53-.83.8l-2.61-6.45c-.37-.92-.94.05-.83,1.43l1.49,20.02c.05.66.25,1.15.49,1.16l17.53,1.44v-18.56l-2.85,3.65c-.3.38-.64-.12-.71-1.03Z"/>
      <path class="cls-4" d="m760.84,469.74l-1.83-8.53c-.13-.59.57-1,1.02-.61l3.21,2.75c.36.31.92.12,1.02-.34l4.49-20.51c.15-.68,1.12-.65,1.23.03l3.1,19.22c.09.55.81.72,1.13.27l2.16-3.03c.32-.44,1.01-.3,1.12.23l1.08,4.84c.09.39.51.6.87.44l5.58-2.48c.36-.16.77.04.86.42l1.94,7.76c.1.4-.21.79-.63.78l-25.77-.74c-.29,0-.54-.21-.6-.5Z"/>
      <path class="cls-4" d="m924.03,469.61l-2.01-9.39c-.14-.65.62-1.1,1.13-.67l3.53,3.03c.4.34,1.01.13,1.13-.38l4.94-22.58c.16-.75,1.24-.72,1.36.04l3.41,21.16c.1.61.89.79,1.25.29l2.38-3.33c.35-.49,1.11-.33,1.24.25l1.18,5.33c.09.43.56.66.96.48l6.14-2.73c.39-.17.85.05.95.46l2.14,8.54c.11.44-.23.87-.69.86l-28.37-.81c-.32,0-.59-.23-.66-.55Z"/>
      <path class="cls-4" d="m643.84,469.38l-1.82-11.02c-.13-.76.57-1.29,1.02-.79l3.2,3.55c.36.4.92.16,1.02-.44l4.47-26.5c.15-.88,1.12-.84,1.23.04l3.09,24.83c.09.72.8.93,1.13.34l2.16-3.91c.32-.57,1-.39,1.12.3l1.07,6.25c.09.5.5.77.87.57l5.56-3.2c.36-.2.77.06.86.55l1.93,10.02c.1.52-.21,1.02-.63,1.01l-25.69-.95c-.29-.01-.53-.28-.59-.64Z"/>
      <g>
        <path class="cls-14" d="m797.66,457.66s4.12-6.32,7.61-5.66c3.49.66,13.94-.85,16.08,3.31,2.14,4.16-.52,16.05-5.4,16.1-4.88.05-20.88,3.72-23.04-1.84-2.15-5.56,3.38-9.8,4.75-11.91Z"/>
        <path class="cls-7" d="m821.34,455.31c-2.14-4.16-12.58-2.65-16.08-3.31-3.49-.66-7.61,5.66-7.61,5.66-.46.71-1.39,1.66-2.33,2.81.41.58.9,1.14,1.68,1.53,1.79.89,3.43.03,7-1,4.69-1.35,7.08-2,9-1,2.24,1.17,2.97,3.88,3,4,.65,2.53-.87,3.76,0,6,.19.5.46.92.75,1.29,4.36-1.26,6.61-12.05,4.59-15.98Z"/>
      </g>
      <g>
        <path class="cls-14" d="m132,472s-6-2-5-8-1-14,4-16,15-4,20,0,12,7,14,13,2,12-3,14-30-3-30-3Z"/>
        <path class="cls-7" d="m165,461c-2-6-9-9-14-13s-15-2-20,0c-2.28.91-3.1,3.08-3.42,5.73.42,1.22,1.15,2.52,2.42,3.27,3.89,2.31,7.95-3.55,14-2,4.46,1.14,7.14,5.57,8,7,2.23,3.69,1.17,5.11,3,8,1.32,2.08,3.57,4.04,6.18,5.23.31-.06.59-.14.82-.23,5-2,5-8,3-14Z"/>
      </g>
      <g>
        <path class="cls-14" d="m225.88,454.09s5.09-7.82,9.41-7c4.32.82,17.24-1.05,19.88,4.09,2.64,5.15-.65,19.84-6.68,19.91-6.04.07-25.82,4.59-28.48-2.28-2.66-6.87,4.18-12.12,5.88-14.72Z"/>
        <path class="cls-7" d="m255.17,451.19c-2.64-5.15-15.56-3.28-19.88-4.09-4.32-.82-9.41,7-9.41,7-.43.67-1.2,1.5-2.06,2.5,1.82-.27,4.32-.93,8.18-1.59,9.69-1.65,11.44-.46,12,0,1.19.96,1.03,2.06,2,9,.44,3.19.77,5.52,1.1,7.17.52-.04.99-.07,1.39-.07,6.04-.07,9.32-14.76,6.68-19.91Z"/>
      </g>
      <g>
        <path class="cls-14" d="m252.56,469.62s-5.62-8.6-4.34-10.65c1.28-2.06,6.93-15.7,8.94-15.76,2.01-.06,22.75-2.68,26.15-1.43s9.76,12.52,10.47,13.85c.71,1.33-2.39,10.18-4.96,14.29s-36.19,2.4-36.27-.29Z"/>
        <path class="cls-7" d="m288.83,469.91c2.57-4.12,5.67-12.97,4.96-14.29-.71-1.33-7.08-12.6-10.47-13.85s-24.13,1.37-26.15,1.43c-.95.03-2.7,3.07-4.43,6.49.49,1.05,1.23,1.97,2.27,2.3,2.45.79,3.8-2.57,8-3,2.87-.3,6.11.88,8,3,2.17,2.43.79,4.12,3,7,2.46,3.2,5.31,2.62,6,5,.8,2.74-2.67,4.54-2,7,.13.46.39.87.74,1.24,5.16-.27,9.26-.99,10.09-2.33Z"/>
      </g>
    </g>
  </g>
  <g id="layer_1" data-name="layer 1">
    <path class="cls-4" d="m3.98,478.14l-1.58-18.2c-.08-.89-.41-1.36-.7-.99l-1.7,2.17v18.56l3.47.29c.34.03.59-.88.51-1.83Z"/>
    <polygon class="cls-17" points="512 469 0 469 0 512 512 512 1024 512 1024 469 512 469"/>
    <g>
      <polygon class="cls-16" points="250.17 479 241 489 254 493 282.67 479 250.17 479"/>
      <polygon class="cls-16" points="371 479 369 489 400 486 400.67 479 371 479"/>
      <g>
        <polygon class="cls-16" points="0 479 24 479 45.27 486.25 47.91 502.1 31 512 3 512 0 479"/>
        <polygon class="cls-16" points="32 479 92 479 88.86 491.53 70.37 508.7 50.56 502.1 47.91 483.6 32 479"/>
        <polygon class="cls-16" points="37.14 512 69.8 512 49.23 504.74 37.14 512"/>
        <polygon class="cls-16" points="91.51 492.85 73.01 510.02 74.99 512 101.14 512 110 496.81 91.51 492.85"/>
        <polygon class="cls-16" points="95 479 93 490 111 495 133 487 133 479 95 479"/>
        <polygon class="cls-16" points="134 489 113 498 105.53 512 136.69 512 147 497 134 489"/>
        <polygon class="cls-16" points="136 479 136 486 150 496 140.25 512 158 512 168 490 157 479 136 479"/>
        <polygon class="cls-16" points="162.33 479 172 489 167 498 194 498 194 489 205.67 479 162.33 479"/>
        <polygon class="cls-16" points="162.33 512 167 501 194 501 198.33 512 162.33 512"/>
        <polygon class="cls-16" points="197 490 197 500 202.17 512 217.33 512 207 498 222.82 479 210 479 197 490"/>
        <polygon class="cls-16" points="211 498 227 479 245 479 233 491 250 495 250.67 512 221 512 211 498"/>
        <polygon class="cls-16" points="254 496 254.75 512 285.75 512 278 499 293.08 479 287 479 254 496"/>
        <polygon class="cls-16" points="288.67 512 283 500 314 488 339 495 335.5 512 288.67 512"/>
        <polygon class="cls-16" points="296 479 284 495 313 485 330 490 336.17 479 296 479"/>
        <polygon class="cls-16" points="337.88 479 333 490 344 494 338.5 512 357.25 512 367 479 337.88 479"/>
        <polygon class="cls-16" points="362 512 367 493 425 488 434 503 432 512 362 512"/>
        <polygon class="cls-16" points="403 479 403 486 426 484 437 503 435 512 447.25 512 460.5 479 403 479"/>
        <polygon class="cls-16" points="463.75 479 458 495 492 488 524 500 558.25 479 463.75 479"/>
        <polygon class="cls-16" points="450.62 512 457 499 491 492 524 504 524 512 450.62 512"/>
        <polygon class="cls-16" points="527.67 512 527 503 547 491 564 502 562.83 512 527.67 512"/>
        <polygon class="cls-16" points="550 489 562.38 479 581.12 479 580 500 566 501 550 489"/>
        <polygon class="cls-16" points="567.7 503 564.56 512 622.21 512 635.3 501 567.7 503"/>
        <polygon class="cls-16" points="584.77 479 582.59 500 639.84 499 626.75 512 649.62 512 675 491.75 628.93 491 639.57 479 584.77 479"/>
        <polygon class="cls-16" points="643.25 479 635 489 684 489 656.38 512 682.75 512 701 500 729 500 739 512 755 495 739 479 643.25 479"/>
        <polygon class="cls-16" points="689 512 703 503 728 503 734.92 512 689 512"/>
        <polygon class="cls-16" points="746.33 479 759 494 744.17 512 763 512 780 506 787.17 492.33 746.33 479"/>
        <polygon class="cls-16" points="757.5 479 792 490 784 507 770.5 512 801.38 512 812 479 757.5 479"/>
        <polygon class="cls-16" points="805.17 512 812 495 826.33 492.33 841 501 838 512 805.17 512"/>
        <polygon class="cls-16" points="815 479 812 492.26 827 489 841 498 846.33 479 815 479"/>
        <polygon class="cls-16" points="850.33 479 863 495 885 495 897.67 479 850.33 479"/>
        <polygon class="cls-16" points="842.5 512 849 483 862 500 886 498 904 502 899.67 512 842.5 512"/>
        <polygon class="cls-16" points="902.17 479 891 495 906 499 932 490 934 479 902.17 479"/>
        <polygon class="cls-16" points="907 501 902.62 512 928.88 512 923 495 907 501"/>
        <polygon class="cls-16" points="927 495 934 492 936.75 479 945.62 479 951 503 946 512 932.38 512 927 495"/>
        <polygon class="cls-16" points="950.08 512 955 504 976 498 983 512 950.08 512"/>
        <polygon class="cls-16" points="948.92 479 955 501 976 495 990 479 948.92 479"/>
        <polygon class="cls-16" points="993.47 479 980 496 986.32 512 1021 487 1021 479 993.47 479"/>
        <polygon class="cls-16" points="990.25 512 1021 490 1021 512 990.25 512"/>
      </g>
    </g>
    <polygon class="cls-6" points="512 469 0 469 0 479 512 479 1024 479 1024 469 512 469"/>
  </g>
</svg>