<svg xmlns="http://www.w3.org/2000/svg" width="193.663" height="339.087" viewBox="0 0 193.663 339.087">
  <path id="Icon_ionic-ios-bluetooth" data-name="Icon ionic-ios-bluetooth" d="M198.5,230.074l-66.833-58.281,66.758-57.6a11.911,11.911,0,0,0,.833-17.333l-88.4-91.886A9.1,9.1,0,0,0,104.34,2.25h0a8.337,8.337,0,0,0-8.4,8.174V138.49L30.619,83.01a13.29,13.29,0,0,0-18.241,1.135h0a12.547,12.547,0,0,0,1.211,18.241l82.35,69.407-81.82,68.8a12.494,12.494,0,0,0-1.287,18.09l.227.227A13.367,13.367,0,0,0,31.6,260.047L95.938,204.34V332.86a8.563,8.563,0,0,0,8.7,8.477h0A8.992,8.992,0,0,0,111,338.688l88.329-91.205A12,12,0,0,0,198.5,230.074ZM123.489,54.4l47.457,49.879a1.5,1.5,0,0,1-.151,2.195l-47.457,40.115a1.567,1.567,0,0,1-2.573-1.135V55.459A1.593,1.593,0,0,1,123.489,54.4ZM120.84,288.279v-89.54a1.567,1.567,0,0,1,2.573-1.135l47.457,40.115a1.552,1.552,0,0,1,.151,2.2l-47.457,49.425A1.6,1.6,0,0,1,120.84,288.279Z" transform="translate(-9.011 -2.25)" fill="#fff"/>
</svg>
