<svg xmlns="http://www.w3.org/2000/svg" width="63.215" height="49.804" viewBox="0 0 63.215 49.804">
  <path id="Icon_awesome-home" data-name="Icon awesome-home" d="M29.793,11.244h0L10.2,26.432V48.154a1.7,1.7,0,0,0,1.7,1.7l11.908-.031a1.7,1.7,0,0,0,1.692-1.7V37.953a1.7,1.7,0,0,1,1.7-1.7H34a1.7,1.7,0,0,1,1.7,1.7V48.116a1.7,1.7,0,0,0,1.7,1.706l11.9.033a1.7,1.7,0,0,0,1.7-1.7V26.432L31.419,10.246l.463.477C31.408,10.34,30.268,10.862,29.793,11.244ZM60.74,25.57l-8.884-7.323V3.529a1.275,1.275,0,0,0-1.275-1.275H44.631a1.275,1.275,0,0,0-1.275,1.275v7.716L33.842,3.417a5.1,5.1,0,0,0-6.482,0L.462,25.57a1.275,1.275,0,0,0-.17,1.8L3,30.66a1.275,1.275,0,0,0,1.8.173l25-20.587a1.3,1.3,0,0,1,1.626,0l25,20.587a1.275,1.275,0,0,0,1.8-.17l2.71-3.294a1.275,1.275,0,0,0-.181-1.8Z" transform="translate(1.002 -1.05)" fill="none" stroke="#fff" stroke-width="2"/>
</svg>
