<svg xmlns="http://www.w3.org/2000/svg" width="51.979" height="51.979" viewBox="0 0 51.979 51.979">
  <path id="_126572_home_house_icon" data-name="126572_home_house_icon" d="M48.261,21.866,43.731,17.34V6.247a3.133,3.133,0,0,0-3.124-3.124H37.484A3.133,3.133,0,0,0,34.36,6.247V7.975L28.113,1.734C27.26.928,26.479,0,24.989,0s-2.271.928-3.124,1.734L1.718,21.866C.743,22.881,0,23.621,0,24.989a3.072,3.072,0,0,0,3.124,3.124H6.247V46.855a3.133,3.133,0,0,0,3.124,3.124h9.371V34.36a3.133,3.133,0,0,1,3.124-3.124h6.247a3.133,3.133,0,0,1,3.124,3.124V49.979h9.371a3.133,3.133,0,0,0,3.124-3.124V28.113h3.124a3.072,3.072,0,0,0,3.124-3.124C49.979,23.621,49.235,22.881,48.261,21.866Z" transform="translate(1 1)" fill="none" stroke="#fff" stroke-width="2"/>
</svg>
