<svg xmlns="http://www.w3.org/2000/svg" width="61.212" height="47.6" viewBox="0 0 61.212 47.6">
  <path id="Icon_awesome-home" data-name="Icon awesome-home" d="M29.793,14.6,10.2,30.738V48.154a1.7,1.7,0,0,0,1.7,1.7l11.908-.031a1.7,1.7,0,0,0,1.692-1.7V37.953a1.7,1.7,0,0,1,1.7-1.7H34a1.7,1.7,0,0,1,1.7,1.7V48.116a1.7,1.7,0,0,0,1.7,1.706l11.9.033a1.7,1.7,0,0,0,1.7-1.7V30.727L31.419,14.6A1.3,1.3,0,0,0,29.793,14.6ZM60.74,25.57l-8.884-7.323V3.529a1.275,1.275,0,0,0-1.275-1.275H44.631a1.275,1.275,0,0,0-1.275,1.275v7.716L33.842,3.417a5.1,5.1,0,0,0-6.482,0L.462,25.57a1.275,1.275,0,0,0-.17,1.8L3,30.66a1.275,1.275,0,0,0,1.8.173l25-20.587a1.3,1.3,0,0,1,1.626,0l25,20.587a1.275,1.275,0,0,0,1.8-.17l2.71-3.294a1.275,1.275,0,0,0-.181-1.8Z" transform="translate(0.001 -2.254)" fill="#fff"/>
</svg>
