<svg xmlns="http://www.w3.org/2000/svg" width="101" height="101" viewBox="0 0 101 101">
  <path id="Icon_metro-cross" data-name="Icon metro-cross" d="M102.65,83.069h0l-30.64-30.64,30.64-30.64h0a3.164,3.164,0,0,0,0-4.463L88.175,2.85a3.165,3.165,0,0,0-4.463,0h0L53.071,33.49,22.431,2.85h0a3.164,3.164,0,0,0-4.463,0L3.493,17.324a3.164,3.164,0,0,0,0,4.463h0l30.64,30.64L3.493,83.069h0a3.163,3.163,0,0,0,0,4.463l14.474,14.474a3.164,3.164,0,0,0,4.463,0h0l30.64-30.64,30.64,30.64h0a3.163,3.163,0,0,0,4.462,0l14.474-14.474a3.163,3.163,0,0,0,0-4.463Z" transform="translate(-2.571 -1.928)" fill="#e20504"/>
</svg>
