<svg xmlns="http://www.w3.org/2000/svg" width="39.189" height="38.196" viewBox="0 0 39.189 38.196">
  <path id="Icon_awesome-arrow-left" data-name="Icon awesome-arrow-left" d="M22.523,38.285l-1.942,1.942a2.091,2.091,0,0,1-2.965,0l-17-16.995a2.091,2.091,0,0,1,0-2.965l17-17a2.091,2.091,0,0,1,2.965,0l1.942,1.942a2.1,2.1,0,0,1-.035,3L11.949,18.247H37.086a2.094,2.094,0,0,1,2.1,2.1v2.8a2.094,2.094,0,0,1-2.1,2.1H11.949l10.54,10.041A2.086,2.086,0,0,1,22.523,38.285Z" transform="translate(0.004 -2.647)" fill="#fff"/>
</svg>
