<svg xmlns="http://www.w3.org/2000/svg" width="47.471" height="40.196" viewBox="0 0 47.471 40.196">
  <path id="Icon_awesome-arrow-left" data-name="Icon awesome-arrow-left" d="M22.523,38.285l-1.942,1.942a2.091,2.091,0,0,1-2.965,0l-17-16.995a2.091,2.091,0,0,1,0-2.965l17-17a2.091,2.091,0,0,1,2.965,0l1.942,1.942a2.1,2.1,0,0,1-.035,3L11.949,18.247l31.419-.04a2.228,2.228,0,0,1,1.817,1.044,1.827,1.827,0,0,1,.282,1.055v2.8a2.094,2.094,0,0,1-2.1,2.1l-31.419.04,10.54,10.041A2.086,2.086,0,0,1,22.523,38.285Z" transform="translate(1.004 -1.647)" fill="none" stroke="#ffffff" stroke-width="2"/>
</svg>
