<svg xmlns="http://www.w3.org/2000/svg" width="258.835" height="150.241" viewBox="0 0 258.835 150.241">
  <g id="Group_112" data-name="Group 112" transform="translate(-667 -124.733)">
    <line id="Line_6" data-name="Line 6" x2="258.835" transform="translate(667 273.974)" fill="none" stroke="#fff" stroke-width="2"/>
  </g>
  <g id="Layer_1" data-name="Layer 1" transform="translate(29.553 94.691)">
    <g id="Group_124" data-name="Group 124" transform="translate(-21 -21.757)">
      <path id="Path_417" data-name="Path 417" d="M14.911,432.222a14.911,14.911,0,1,1,14.911-14.911A14.927,14.927,0,0,1,14.911,432.222Zm0-28.072a13.161,13.161,0,1,0,13.161,13.161A13.177,13.177,0,0,0,14.911,404.15Z" transform="translate(0 -355.461)" fill="#98d473"/>
      <path id="Path_418" data-name="Path 418" d="M454.261,432.222a14.911,14.911,0,1,1,14.911-14.911A14.927,14.927,0,0,1,454.261,432.222Zm0-28.072a13.161,13.161,0,1,0,13.161,13.161A13.177,13.177,0,0,0,454.261,404.15Z" transform="translate(-388.101 -355.461)" fill="#98d473"/>
      <path id="Path_419" data-name="Path 419" d="M54.511,466.34a.874.874,0,0,1-.874-.853,8.958,8.958,0,0,1,1.32-4.928,9.141,9.141,0,0,1,3.955-3.475,9.348,9.348,0,0,1,3.86-.834.875.875,0,0,1,0,1.75h-.014a7.424,7.424,0,0,0-6.308,3.475,7.335,7.335,0,0,0-1.063,3.967.875.875,0,0,1-.853.9h-.022Z" transform="translate(-47.378 -403.03)" fill="#98d473"/>
      <path id="Path_420" data-name="Path 420" d="M556.058,527.649h-.014a.875.875,0,0,1,0-1.75h.013a7.424,7.424,0,0,0,6.311-3.475,7.321,7.321,0,0,0,1.061-3.967.875.875,0,0,1,.853-.9h.022a.874.874,0,0,1,.874.853,8.958,8.958,0,0,1-1.32,4.928,9.143,9.143,0,0,1-3.954,3.475,9.292,9.292,0,0,1-3.846.834Z" transform="translate(-490.411 -457.188)" fill="#98d473"/>
      <path id="Path_421" data-name="Path 421" d="M206.923,161.721a4.775,4.775,0,0,1-1.231-.162,5.566,5.566,0,0,1-3.635-3.587,5.951,5.951,0,0,1-.316-2.615l.007-.055,2.691-16.577c-.334-.278-.675-.552-1.02-.815a32.941,32.941,0,0,0-3.015-2.048l-.219-.135c-1.15-.713-2.418-1.586-4.944-3.326-2.686-1.85-3.378-2.4-4.114-3.294a7.8,7.8,0,0,1-1.778-3c-.437-1.577-.442-4.137,2.023-7.376a10.99,10.99,0,0,1,2.413-2.321l14.777-11.195.051-.029a8.679,8.679,0,0,1,2.285-.895,8.864,8.864,0,0,1,3.471-.1,7.808,7.808,0,0,1,3.805,1.616,7.176,7.176,0,0,1,1.323,1.424l.019.028L225.19,116l.019.037a3.628,3.628,0,0,0,1.842,1.689,3.368,3.368,0,0,0,1.492.212l.056,0,11.862-.18.068.009a4.759,4.759,0,0,1,2.3.987,4.7,4.7,0,0,1-.036,7.378,4.557,4.557,0,0,1-3.153.792l-14.959.177a4.035,4.035,0,0,1-2.543-.362,4.081,4.081,0,0,1-1.9-2.066l-3.422-5.044-.039-.139a.923.923,0,0,0-.374-.54,1.113,1.113,0,0,0-1.268.366l-.048.051-8.308,6.482-.147.048c-.145.05-.593.274-.666.607a1.089,1.089,0,0,0,.892,1.112l.136.037,6.626,4.392a3.956,3.956,0,0,1,1.728,4.562l-2.861,20.947-.033.089a6.181,6.181,0,0,1-1.772,2.576,6.029,6.029,0,0,1-3.763,1.5Zm-3.442-6.167a4.206,4.206,0,0,0,.223,1.826,3.849,3.849,0,0,0,2.44,2.489,3.912,3.912,0,0,0,3.4-.981,4.435,4.435,0,0,0,1.234-1.763l2.857-20.914.026-.078a2.227,2.227,0,0,0,0-1.409,2.265,2.265,0,0,0-.962-1.192l-.031-.02-6.414-4.252a2.8,2.8,0,0,1-2-3.134,2.725,2.725,0,0,1,1.67-1.834l7.975-6.223a2.81,2.81,0,0,1,3.345-.652,2.571,2.571,0,0,1,1.169,1.455l3.379,4.981.036.1a2.251,2.251,0,0,0,2.58,1.418l.083-.017,15.243-.181.062.008a2.792,2.792,0,0,0,1.964-.467,2.963,2.963,0,0,0,1.071-2.528,3.079,3.079,0,0,0-1.1-2.067,3,3,0,0,0-1.392-.611l-11.694.177a5.09,5.09,0,0,1-2.231-.327,5.312,5.312,0,0,1-2.741-2.473l-5.619-8.663a5.446,5.446,0,0,0-.992-1.065,6.086,6.086,0,0,0-2.985-1.243,7.112,7.112,0,0,0-2.783.078,6.938,6.938,0,0,0-1.775.686l-14.72,11.15a9.219,9.219,0,0,0-2.04,1.959c-2.031,2.668-2.061,4.652-1.73,5.848a6.155,6.155,0,0,0,1.439,2.356c.575.694,1.107,1.142,3.754,2.964,2.508,1.728,3.764,2.592,4.878,3.282h0l.217.134a34.9,34.9,0,0,1,3.16,2.149c.5.384.994.784,1.467,1.192l.371.32-2.844,17.52Z" transform="translate(-167.067 -91.924)" fill="#98d473"/>
      <path id="Path_422" data-name="Path 422" d="M476.8,14.91a7.455,7.455,0,1,1,7.455-7.455A7.463,7.463,0,0,1,476.8,14.91Zm0-13.16a5.705,5.705,0,1,0,5.705,5.705A5.712,5.712,0,0,0,476.8,1.75Z" transform="translate(-414.602)" fill="#98d473"/>
    </g>
  </g>
  <g id="Icon_feather-clock" data-name="Icon feather-clock" transform="translate(106.835 -2)">
    <path id="Path_429" data-name="Path 429" d="M41,22A19,19,0,1,1,22,3,19,19,0,0,1,41,22Z" fill="none" stroke="#fff" stroke-linecap="round" stroke-linejoin="round" stroke-width="2"/>
    <path id="Path_430" data-name="Path 430" d="M18,9V20.4l7.6,3.8" transform="translate(4 1.6)" fill="none" stroke="#fff" stroke-linecap="round" stroke-linejoin="round" stroke-width="2"/>
  </g>
</svg>
