<svg xmlns="http://www.w3.org/2000/svg" width="114.921" height="141.772" viewBox="0 0 114.921 141.772">
  <g id="Layer_1" data-name="Layer 1" transform="translate(165.992 368.978)">
    <g id="Group_121" data-name="Group 121" transform="translate(-165.992 -368.978)">
      <path id="Path_413" data-name="Path 413" d="M321.7,25.784A12.892,12.892,0,1,1,334.6,12.893,12.908,12.908,0,0,1,321.7,25.784Zm0-22.759a9.868,9.868,0,1,0,9.868,9.868A9.879,9.879,0,0,0,321.7,3.025Z" transform="translate(-246.533)" fill="#98d473"/>
      <path id="Path_414" data-name="Path 414" d="M99.947,265.371a8.977,8.977,0,0,1-6.3-2.269,8.82,8.82,0,0,1-2.616-4.655l-.034-.159.073-24.023a8.423,8.423,0,0,0-.793-.795,8.318,8.318,0,0,0-1.049-.787l-.079-.05L74.393,220.479l-.085-.1a1.564,1.564,0,0,0-1.178-.508,1.518,1.518,0,0,0-1.049.565l-.123.159L21.132,259.182l-6.427,4.78a9.075,9.075,0,0,1-4.475,1.4,9.5,9.5,0,0,1-7.145-3.065,9.516,9.516,0,0,1-3.071-6.429,9.629,9.629,0,0,1,3.487-7.4l.083-.063,53.282-37.991a8.579,8.579,0,0,0,3.241-4.834l.307-27a7.127,7.127,0,0,0-.405-2.7,35.113,35.113,0,0,0-6.508,3.346c-2.5,1.676-2.785,1.9-3.08,2.422a4.79,4.79,0,0,0-.577,2.475v14.843a7.279,7.279,0,0,1-1.174,4.084,7.407,7.407,0,0,1-4.653,3.12,7.651,7.651,0,0,1-7.92-2.969,7.234,7.234,0,0,1-1.012-4.989l.93-21.635a10.231,10.231,0,0,1,1.269-3.985,10.364,10.364,0,0,1,2.9-3.259l.085-.056,16.313-10.312a20.2,20.2,0,0,1,10.255-4.116l.1-.01,5.286.149,11.284.155.083.01a8.014,8.014,0,0,1,5.467,2.708,7.218,7.218,0,0,1,1.575,4.536l-.772,41.986c.02.932.071,1.878.149,2.809a8.761,8.761,0,0,0,.476,2.874,4.245,4.245,0,0,0,1.377,1.591l.071.054,10.13,8.3a26.984,26.984,0,0,1,4.8,4.477c2.569,3.463,3.656,8.053,3.231,13.645l-.462,18.653a8.921,8.921,0,0,1-1.87,5.225,9.243,9.243,0,0,1-7.135,3.354c-.226.012-.448.016-.668.016Zm-5.927-7.411a5.775,5.775,0,0,0,1.674,2.916,7.375,7.375,0,0,0,9.682-.752,5.9,5.9,0,0,0,1.22-3.445l.466-18.752c.375-4.86-.512-8.781-2.642-11.649a25.714,25.714,0,0,0-4.286-3.939l-10.1-8.279a7.232,7.232,0,0,1-2.293-2.706,10.727,10.727,0,0,1-.76-3.923c-.085-1-.139-2.025-.159-3.031v-.03l.772-42.047a4.243,4.243,0,0,0-.9-2.569,5.076,5.076,0,0,0-3.414-1.607l-11.213-.153-5.028-.143a17.177,17.177,0,0,0-8.676,3.531l-.121.085L41.918,171.789a7.252,7.252,0,0,0-2.9,5.042L38.094,198.5l-.014.087a4.24,4.24,0,0,0,.547,2.95,4.574,4.574,0,0,0,4.745,1.666,4.4,4.4,0,0,0,2.763-1.823,4.254,4.254,0,0,0,.68-2.394V184.143a7.775,7.775,0,0,1,.968-4c.676-1.2,1.454-1.72,4.027-3.447a37.708,37.708,0,0,1,7.288-3.723,2.867,2.867,0,0,1,1.872-.087c1.609.516,2.438,2.426,2.464,5.671v.028l-.311,27.351-.036.159a11.6,11.6,0,0,1-4.435,6.744l-.022.016L5.381,250.83a5.918,5.918,0,0,0-.167,9.313,6.571,6.571,0,0,0,4.9,2.186,6.063,6.063,0,0,0,2.93-.908l6.262-4.663,50.517-38.35a4.531,4.531,0,0,1,3.118-1.561,4.59,4.59,0,0,1,3.555,1.444l14.428,11.889a11.528,11.528,0,0,1,2.846,2.614l.317.409v3.3Z" transform="translate(-0.008 -123.605)" fill="#98d473"/>
      <path id="Path_415" data-name="Path 415" d="M439.45,267.963v-3.025h18.574a4.575,4.575,0,0,0,2.323-.579,4.7,4.7,0,0,0,2.091-2.571,4.413,4.413,0,0,0-4.729-6.038l-.171.01H440.569v-3.025h16.9a7.936,7.936,0,0,1,6.841,2.92A7.891,7.891,0,0,1,461.834,267a7.617,7.617,0,0,1-3.842.966h-18.54Z" transform="translate(-350.826 -201.748)" fill="#98d473"/>
    </g>
  </g>
</svg>
