<svg id="Layer_1" data-name="Layer 1" xmlns="http://www.w3.org/2000/svg" width="138.222" height="130.873" viewBox="0 0 138.222 130.873">
  <g id="Group_124" data-name="Group 124">
    <path id="Path_417" data-name="Path 417" d="M25.423,453.245a25.423,25.423,0,1,1,25.423-25.423A25.45,25.45,0,0,1,25.423,453.245Zm0-47.862a22.439,22.439,0,1,0,22.439,22.439A22.466,22.466,0,0,0,25.423,405.383Z" transform="translate(0 -322.372)" fill="#98d473"/>
    <path id="Path_418" data-name="Path 418" d="M464.772,453.245a25.423,25.423,0,1,1,25.422-25.423A25.45,25.45,0,0,1,464.772,453.245Zm0-47.862a22.439,22.439,0,1,0,22.439,22.439A22.466,22.466,0,0,0,464.772,405.383Z" transform="translate(-351.973 -322.372)" fill="#98d473"/>
    <path id="Path_419" data-name="Path 419" d="M55.129,473.453A1.49,1.49,0,0,1,53.64,472a15.272,15.272,0,0,1,2.251-8.4,15.584,15.584,0,0,1,6.744-5.925,15.938,15.938,0,0,1,6.581-1.422,1.492,1.492,0,0,1,0,2.983H69.19a12.658,12.658,0,0,0-10.755,5.925,12.506,12.506,0,0,0-1.812,6.764,1.493,1.493,0,0,1-1.454,1.529h-.038Z" transform="translate(-42.968 -365.512)" fill="#98d473"/>
    <path id="Path_420" data-name="Path 420" d="M556.683,534.761h-.024a1.492,1.492,0,0,1,0-2.983h.022a12.658,12.658,0,0,0,10.759-5.924,12.482,12.482,0,0,0,1.81-6.764,1.493,1.493,0,0,1,1.454-1.529h.038a1.49,1.49,0,0,1,1.49,1.454,15.272,15.272,0,0,1-2.251,8.4,15.588,15.588,0,0,1-6.742,5.925,15.843,15.843,0,0,1-6.557,1.422Z" transform="translate(-444.759 -414.629)" fill="#98d473"/>
    <path id="Path_421" data-name="Path 421" d="M219.467,202.367a8.143,8.143,0,0,1-2.1-.276c-3.991-1.066-5.664-4.632-6.2-6.115a10.145,10.145,0,0,1-.539-4.459l.012-.093,4.588-28.262c-.569-.473-1.152-.941-1.738-1.39a56.156,56.156,0,0,0-5.141-3.492l-.374-.231c-1.961-1.215-4.123-2.7-8.428-5.67-4.58-3.154-5.759-4.1-7.014-5.616a13.292,13.292,0,0,1-3.031-5.121c-.746-2.689-.754-7.054,3.449-12.575a18.739,18.739,0,0,1,4.115-3.958l25.194-19.086.088-.05a14.8,14.8,0,0,1,3.9-1.525,15.113,15.113,0,0,1,5.919-.171,13.313,13.313,0,0,1,6.487,2.754,12.234,12.234,0,0,1,2.255,2.428l.032.048,9.671,14.912.032.064a6.186,6.186,0,0,0,3.14,2.88,5.742,5.742,0,0,0,2.544.362l.1,0,20.224-.306.115.016a8.114,8.114,0,0,1,3.926,1.683,8.214,8.214,0,0,1,2.987,5.616c.036.459.261,4.564-3.049,6.963a7.769,7.769,0,0,1-5.376,1.35l-25.5.3a6.879,6.879,0,0,1-4.335-.617,6.957,6.957,0,0,1-3.242-3.522l-5.835-8.6-.066-.237a1.573,1.573,0,0,0-.638-.921,1.9,1.9,0,0,0-2.162.624l-.082.088L219.222,141.21l-.251.082c-.247.086-1.01.467-1.136,1.034a1.856,1.856,0,0,0,1.521,1.9l.233.064,11.3,7.488a6.744,6.744,0,0,1,2.945,7.778l-4.878,35.714-.056.151a10.539,10.539,0,0,1-3.021,4.391,10.279,10.279,0,0,1-6.416,2.566ZM213.6,191.853a7.169,7.169,0,0,0,.38,3.112,6.563,6.563,0,0,0,4.161,4.244c2.645.706,4.94-.935,5.805-1.673a7.561,7.561,0,0,0,2.1-3.005l4.871-35.657.044-.133a3.8,3.8,0,0,0,0-2.4,3.861,3.861,0,0,0-1.641-2.033l-.054-.034-10.936-7.249a4.77,4.77,0,0,1-3.407-5.344,4.645,4.645,0,0,1,2.848-3.126l13.6-10.61a4.791,4.791,0,0,1,5.7-1.112,4.383,4.383,0,0,1,1.993,2.48l5.761,8.492.062.165a3.839,3.839,0,0,0,4.4,2.418l.141-.03,25.989-.308.105.014a4.759,4.759,0,0,0,3.349-.8,5.052,5.052,0,0,0,1.826-4.31,5.249,5.249,0,0,0-1.877-3.524,5.108,5.108,0,0,0-2.373-1.042l-19.937.3a8.678,8.678,0,0,1-3.8-.557,9.057,9.057,0,0,1-4.674-4.216l-9.58-14.771a9.284,9.284,0,0,0-1.69-1.816,10.377,10.377,0,0,0-5.089-2.12,12.125,12.125,0,0,0-4.745.133,11.829,11.829,0,0,0-3.027,1.169l-25.1,19.011a15.72,15.72,0,0,0-3.478,3.339c-3.462,4.548-3.514,7.931-2.949,9.97a10.494,10.494,0,0,0,2.454,4.017c.98,1.183,1.887,1.947,6.4,5.053,4.276,2.945,6.418,4.419,8.317,5.6h0l.37.229a59.509,59.509,0,0,1,5.388,3.663c.851.654,1.694,1.336,2.5,2.033l.632.545-4.849,29.871Z" transform="translate(-151.515 -83.367)" fill="#98d473"/>
    <path id="Path_422" data-name="Path 422" d="M482.06,25.421a12.71,12.71,0,1,1,12.71-12.71A12.725,12.725,0,0,1,482.06,25.421Zm0-22.437a9.727,9.727,0,1,0,9.727,9.727A9.738,9.738,0,0,0,482.06,2.983Z" transform="translate(-376.007)" fill="#98d473"/>
  </g>
</svg>
