<?xml version="1.0" encoding="UTF-8"?>
<svg xmlns="http://www.w3.org/2000/svg" xmlns:xlink="http://www.w3.org/1999/xlink" viewBox="0 0 2048 512">
  <defs>
    <style>
      .cls-1 {
        fill: #919e37;
      }

      .cls-1, .cls-2, .cls-3, .cls-4, .cls-5, .cls-6, .cls-7, .cls-8, .cls-9, .cls-10, .cls-11, .cls-12, .cls-13, .cls-14, .cls-15, .cls-16, .cls-17, .cls-18, .cls-19, .cls-20, .cls-21, .cls-22, .cls-23, .cls-24, .cls-25, .cls-26, .cls-27, .cls-28, .cls-29, .cls-30, .cls-31, .cls-32, .cls-33, .cls-34, .cls-35, .cls-36, .cls-37 {
        stroke-width: 0px;
      }

      .cls-38 {
        clip-path: url(#clippath-20);
      }

      .cls-2 {
        fill: #657028;
      }

      .cls-3 {
        fill: #b58822;
      }

      .cls-4 {
        fill: #846e1e;
      }

      .cls-5 {
        fill: #839b9a;
      }

      .cls-6 {
        fill: #545a2b;
      }

      .cls-7 {
        fill: #b7b875;
      }

      .cls-8 {
        fill: #879357;
      }

      .cls-9 {
        fill: #7a884b;
      }

      .cls-10 {
        fill: #687d27;
      }

      .cls-11 {
        fill: none;
      }

      .cls-12 {
        fill: #6e7a43;
      }

      .cls-13 {
        fill: #a9bc58;
      }

      .cls-39 {
        clip-path: url(#clippath-7);
      }

      .cls-40 {
        clip-path: url(#clippath-1);
      }

      .cls-41 {
        clip-path: url(#clippath-4);
      }

      .cls-14 {
        fill: #b2c75c;
      }

      .cls-42 {
        clip-path: url(#clippath-12);
      }

      .cls-15 {
        fill: #63604d;
      }

      .cls-16 {
        fill: #837947;
      }

      .cls-17 {
        fill: #9faa6f;
      }

      .cls-18 {
        fill: #9ab7b7;
      }

      .cls-19 {
        fill: #615d4c;
      }

      .cls-43 {
        clip-path: url(#clippath-22);
      }

      .cls-20 {
        fill: #9ba865;
      }

      .cls-21 {
        fill: #728236;
      }

      .cls-22 {
        fill: #8d9a67;
      }

      .cls-23 {
        fill: #81a13b;
      }

      .cls-24 {
        fill: #907b29;
      }

      .cls-25 {
        fill: #99caca;
      }

      .cls-26 {
        fill: #879c00;
      }

      .cls-27 {
        fill: #93a257;
      }

      .cls-28 {
        fill: #8aa128;
      }

      .cls-29 {
        fill: #86aead;
      }

      .cls-30 {
        fill: #526129;
      }

      .cls-31 {
        fill: #757c3e;
      }

      .cls-44 {
        clip-path: url(#clippath-14);
      }

      .cls-45 {
        clip-path: url(#clippath-17);
      }

      .cls-32 {
        fill: #746a37;
      }

      .cls-33 {
        fill: #869941;
      }

      .cls-46 {
        clip-path: url(#clippath-10);
      }

      .cls-34 {
        fill: #a09951;
      }

      .cls-35 {
        fill: #342f27;
      }

      .cls-36 {
        fill: #8f9a50;
      }

      .cls-37 {
        fill: #899755;
      }
    </style>
    <clipPath id="clippath-1">
      <rect class="cls-11" width="1024" height="512"/>
    </clipPath>
    <clipPath id="clippath-4">
      <rect class="cls-11" width="1024" height="512"/>
    </clipPath>
    <clipPath id="clippath-7">
      <rect class="cls-11" width="1024" height="512"/>
    </clipPath>
    <clipPath id="clippath-10">
      <rect class="cls-11" width="1024" height="512"/>
    </clipPath>
    <clipPath id="clippath-12">
      <rect class="cls-11" width="1024" height="512"/>
    </clipPath>
    <clipPath id="clippath-14">
      <rect class="cls-11" x="1023.89" y=".5" width="1024" height="512"/>
    </clipPath>
    <clipPath id="clippath-17">
      <rect class="cls-11" x="1023.89" y=".04" width="1024" height="512"/>
    </clipPath>
    <clipPath id="clippath-20">
      <rect class="cls-11" x="1023.89" y=".5" width="1024" height="512"/>
    </clipPath>
    <clipPath id="clippath-22">
      <rect class="cls-11" x="1023.89" width="1024" height="512"/>
    </clipPath>
  </defs>
  <g id="layer_5" data-name="layer 5">
    <g id="layer_5-2" data-name="layer 5">
      <g class="cls-40">
        <polygon class="cls-7" points="512 0 -512 0 -512 490 512 490 1536 490 1536 0 512 0"/>
        <path class="cls-35" d="M943,376c-42.41-12.61-63.88-18.4-76-25-40.93-22.3-46.98-42.99-79-47-23.18-2.91-45.22,4.77-66,12-8.01,2.79-10.36,4.14-16.61,7.29.02,2.72.5,5.32,1.61,7.71,9.37,20.21,51.92-.81,97,24,16.9,9.3,10.06,11.78,53,50,30.05,26.74,45.49,40.25,66,47,19.61,6.45,35.16,5.61,65,4,6.63-.36,12.76-.69,18.43-1.06,8.08-6.58,11.24-12.82,12.57-15.94.98-2.28,6.08-14.19,2-26-6.23-18.01-29.23-22.5-78-37Z"/>
        <path class="cls-34" d="M454,474s2-345,0-356c0,0-55-28-69-65S368.33,0,368.33,0h23.67s9,46,22,61c10.83,12.5,36,31,41,33s20,9,18-94h18s2,92-9,126l-3,348h-25Z"/>
        <path class="cls-34" d="M43.67-.33s-4.67,186.33.33,206.33,28,20,34,19l5,249h27L98.33,0l-16-.33-.33,202.33s-27,4-25-12S55-.33,55-.33h-11.33Z"/>
        <path class="cls-34" d="M647,0s-4,258,11,295,26,179,26,179h40s-34-119-21-207S734,7,734,0h-16.5s-22.5,201-29.5,237-8,52-12,39-14-251-12-276h-17Z"/>
        <path class="cls-34" d="M893,474l-10-245s-56-22-62-86S810-.33,810-.33l20,.33s5,136,13,153,33,54,50,53,14-122,14-122l.2-84h18.8s13,179-21,237l12,237h-24Z"/>
      </g>
    </g>
  </g>
  <g id="layer_4" data-name="layer 4">
    <g id="layer_4-2" data-name="layer 4">
      <g class="cls-41">
        <path class="cls-32" d="M547,474v-194s-37-24-38-58,0-222,0-222h13v163c0,6,12,12,16-3S547,0,547,0h13l-11,172s-3,25-27,13c0,0-.63,14.62,1,44,1,18,17,32,25,36s30,2,35-21c8.12-37.34,10-244,10-244h19s-8.09,228.49-11,245c-3,17-9,34-18,41l-4,188h-32Z"/>
        <path class="cls-32" d="M-35,477s-17-219-20-252S-84.33,0-84.67,0h23.67s1,90,11,110,13-22,13-22L-32,0H-14.67s-2.33,121-7.33,136-23,12-23,12c0,0,19,188,20,200s19,19,24-12S17.33,0,17.33,0h18s-15.33,338-20.33,351-15,34-34,27l7,96-23,3Z"/>
        <path class="cls-32" d="M187,469v-120s-46,8-43-58S144,0,144,0h21.43s-1.43,273-.43,285,2,41,29,36V0h23s-2,127,0,138,19,34,24-2S252,0,252,0h27s-9,147-22,168c-7.59,12.26-36,12-36,12l-2,294-32-5Z"/>
        <path class="cls-16" d="M333,474s-23-165-27-213S284,8,287,0l22.83-.33s18.17,268.33,23.17,318.33,8,11,15-27S375,16,375,0h21s-17,228-20,245-15,118-19,130l14,99h-38Z"/>
        <path class="cls-16" d="M695,0s-1,168,8,196,45,40,53,37l7,236h29.33l-6.33-124s56,0,56-41V0l-13.67-.33s3.67,161.33.67,175.33-21,15-21-12-.33-163.33-.33-163.33l-14.67.67s-4,176.67-1,186.67,18,21,34,13v102s1,18-38,27L779,0l-35.33-.33,7.33,204.33s-23,6-23-14S723.67,0,723.67,0h-28.67Z"/>
        <path class="cls-32" d="M989,477s-17-219-20-252S939.67,0,939.33,0h23.67s1,90,11,110,13-22,13-22l5-88h17.33s-2.33,121-7.33,136-23,12-23,12c0,0,19,188,20,200s19,19,24-12S1041.33,0,1041.33,0h18s-15.33,338-20.33,351-15,34-34,27l7,96-23,3Z"/>
        <path class="cls-24" d="M954,0s-5,212,140,216S1245.69,0,1245.69,0h7.85s-.54,229.41-159.54,225.21C935,221,945.67,0,945.67,0h8.33Z"/>
        <path class="cls-4" d="M618.87,0s54.13,140,258.13,136S1122,0,1122,0h8.61s-44.61,142-253.61,144S613,0,612,0s0,0,0,0h6.87Z"/>
        <path class="cls-24" d="M-70,0s-5,212,140,216S221.69,0,221.69,0h7.85s-.54,229.41-159.54,225.21C-89,221-78.33,0-78.33,0h8.33Z"/>
        <path class="cls-4" d="M-405.13,0s54.13,140,258.13,136S98,0,98,0h8.61s-44.61,142-253.61,144S-411,0-412,0s0,0,0,0h6.87Z"/>
      </g>
    </g>
  </g>
  <g id="layer_3" data-name="layer 3">
    <g id="layer_3-2" data-name="layer 3">
      <g class="cls-39">
        <path class="cls-37" d="M516,450v.06s58.42,15.53,89.12,2.4c0,0-10.51-12.69-27.11-21.83,10.6-6.67,21.28-16.31,31.31-30.07,0,0-12.84-4.5-30.88-5.8,6.05-11.64,10.11-25.21,10.63-40.98,0,0-11.24,3.69-25.82,10.86,5.19-10.91,10.12-22.95,14.52-36.28,0,0-26.79-5.53-52.28,18.61-6-14.27-16.25-29.21-32.65-44.19,0,0-10.56,14.25-16.98,35.39-21.91-19.66-47.47-14.61-47.47-14.61,1.87,9.84,4.17,18.84,6.75,27.15-15.55-4.05-27.59-3.9-27.59-3.9,5.21,20.03,12.69,36.04,21.02,48.84-10.77-.76-22.76-.06-35.95,2.83,0,0,11.07,17.82,35.83,33.45-17.78,9.19-27.35,25.01-27.35,25.01,48.52,11.94,114.72-5.71,114.72-5.71l.18-1.23Z"/>
        <path class="cls-9" d="M422,452v.05s47.68,12.68,72.73,1.96c0,0-8.58-10.36-22.13-17.81,8.66-5.44,17.37-13.31,25.56-24.55,0,0-10.48-3.67-25.2-4.74,4.94-9.5,8.25-20.57,8.67-33.45,0,0-9.18,3.01-21.08,8.87,4.24-8.9,8.26-18.73,11.85-29.61,0,0-21.87-4.52-42.67,15.19-4.89-11.65-13.26-23.84-26.65-36.06,0,0-8.62,11.63-13.85,28.89-17.88-16.05-38.75-11.92-38.75-11.92,1.53,8.03,3.4,15.38,5.51,22.16-12.69-3.3-22.52-3.18-22.52-3.18,4.25,16.35,10.36,29.42,17.16,39.86-8.79-.62-18.57-.05-29.34,2.31,0,0,9.03,14.54,29.24,27.3-14.51,7.5-22.32,20.42-22.32,20.42,39.6,9.75,93.63-4.66,93.63-4.66l.15-1Z"/>
        <path class="cls-21" d="M192,390.66s-23.17-7.58-66.4-1.35c29.5-27.2,45.73-54.65,45.73-54.65-20.48,4.82-37.9,11.63-52.55,19.19,3.81-16.81,6.58-37.21,6.32-60.66,0,0-15.51,14.53-29.33,36.71-.87-37.43-16.97-64.58-16.97-64.58-23.7,18.97-39.93,37.89-50.73,56.02-15.79-34.23-33.26-55.54-33.26-55.54-4.96,24.46.83,58.03,8.36,86.74-70.86-41.78-100.08-33.49-100.08-33.49,18.48,26.36,37.71,47.39,56.36,64.16-43.09-10.65-83.71-16.59-83.71-16.59,29.46,34.85,66.46,54.86,98.25,66.33-36.75,4.8-48.98,13.37-48.98,13.37,44.48,20.02,90.57,16.66,112.78,13.23,12.04,2.63,64.11,10.54,140.3-27.34,0,0-17.68-8.13-44.26-11.69,17.31-6.55,36.83-16.09,58.17-29.87Z"/>
        <g>
          <path class="cls-9" d="M136.54,446.23s-54.43-76.58,42.43-154.1c0,0,51.37,86.59-42.43,154.1Z"/>
          <path class="cls-9" d="M168.83,437.41s-65.59-10.03-121.37-89.58c0,0,33.5-9.52,118.82,57.36l2.56,32.22Z"/>
          <path class="cls-9" d="M158.09,426.78s56.75,13.57,142.91-42.11c0,0-48.49-15.88-136.09,17.17l-6.82,24.94Z"/>
          <path class="cls-9" d="M157.54,445s-73.61-2.96-120.53-58.47c0,0,84.4,12.33,118.21,32.68l2.31,25.79Z"/>
          <path class="cls-9" d="M144.12,452.9s55.65,16.73,142.97-26.68c0,0-69.6-32.01-140.25,3.19l-2.72,23.49Z"/>
          <path class="cls-9" d="M160.39,450.9s-64.74,17.18-126.38-10.57c0,0,28.79-20.21,130.89-15.93l-4.51,26.51Z"/>
          <path class="cls-9" d="M187.47,414.98l-24.24-11.63s28.88-47.77,103.95-65.44c0,0-29.06,49.18-79.71,77.07Z"/>
          <path class="cls-9" d="M149.68,404.25l-20.99,1.86s-26.86-65.77-19.42-102.46c0,0,35.36,43.13,40.41,100.6Z"/>
          <path class="cls-9" d="M184.4,400.61l19.44.73s22.01-35.39,21.36-93.56c0,0-47.49,44.49-40.81,92.83Z"/>
        </g>
        <path class="cls-21" d="M401,451.69s-17.87-12.59-45.33-19.35c11.13-4.46,23.49-10.68,36.9-19.35,0,0-13.08-4.28-37.65-1.92,16.76-16.73,25.9-32.19,25.9-32.19-17.08,4.02-31.01,10.07-42.2,16.59,5.32-8.11,10.6-19.57,11.05-33.57,0,0-15.81,8.11-27.77,19.65-1.12-24.7-12.97-43.69-12.97-43.69-12,9.45-20.49,19.09-26.36,28.57-9.73-16.61-19.91-26.33-19.91-26.33-4.64,12.76-3.94,28.78-1.29,43.76-32.88-15.73-46.81-11.78-46.81-11.78,11.39,16.24,23.21,29.42,34.74,40.11-20.48-4.83-38.76-7.5-38.76-7.5,13.24,15.66,29.45,25.48,44.23,31.62-39.17,2.16-51.34,10.69-51.34,10.69,36.93,16.63,75.5,9.43,83.87,7.55,14.84,5.1,53.95,14.2,113.71-2.88ZM317.61,410.62c.2-.54.4-1.08.58-1.62h1.29c-.64.54-1.26,1.08-1.87,1.62Z"/>
        <path class="cls-9" d="M1001,433.8s-21.94-15.47-56.38-25.32c16.51-6.82,34.74-16.14,54.41-28.85,0,0-25.51-8.35-73.06-1.13,31.17-33.87,48.43-66.26,48.43-66.26-15.62,4.4-29.7,9.91-42.34,16.06,4.18-10.88,7.16-23.32,7.6-37.09,0,0-16.73,8.59-34.42,21.99.99-50.14-24.01-90.18-24.01-90.18-22.07,17.39-37.72,35.13-48.54,52.57-17.9-30.57-36.65-48.45-36.65-48.45-8.54,23.48-7.26,52.98-2.38,80.56-60.53-28.96-86.17-21.69-86.17-21.69,20.96,29.9,42.72,54.15,63.96,73.83-37.69-8.89-71.36-13.81-71.36-13.81,24.37,28.83,54.21,46.9,81.41,58.2-72.1,3.98-94.5,19.69-94.5,19.69,66.63,29.99,136.14,17.86,153.4,14.12,21.38,7.25,76.58,19.77,160.59-4.24Z"/>
        <path class="cls-21" d="M624,455v.05s47.68,12.68,72.73,1.96c0,0-8.58-10.36-22.13-17.81,8.66-5.44,17.37-13.31,25.56-24.55,0,0-10.48-3.67-25.2-4.74,4.94-9.5,8.25-20.57,8.67-33.45,0,0-9.18,3.01-21.08,8.87,4.24-8.9,8.26-18.73,11.85-29.61,0,0-21.87-4.52-42.67,15.19-4.89-11.65-13.26-23.84-26.65-36.06,0,0-8.62,11.63-13.85,28.89-17.88-16.05-38.75-11.92-38.75-11.92,1.53,8.03,3.4,15.38,5.51,22.16-12.69-3.3-22.52-3.18-22.52-3.18,4.25,16.35,10.36,29.42,17.16,39.86-8.79-.62-18.57-.05-29.34,2.31,0,0,9.03,14.54,29.24,27.3-14.51,7.5-22.32,20.42-22.32,20.42,39.6,9.75,93.63-4.66,93.63-4.66l.15-1Z"/>
        <path class="cls-21" d="M1216,390.66s-23.17-7.58-66.4-1.35c29.5-27.2,45.73-54.65,45.73-54.65-20.48,4.82-37.9,11.63-52.55,19.19,3.81-16.81,6.58-37.21,6.32-60.66,0,0-15.51,14.53-29.33,36.71-.87-37.43-16.97-64.58-16.97-64.58-23.7,18.97-39.93,37.89-50.73,56.02-15.79-34.23-33.26-55.54-33.26-55.54-4.96,24.46.83,58.03,8.36,86.74-70.86-41.78-100.08-33.49-100.08-33.49,18.48,26.36,37.71,47.39,56.36,64.16-43.09-10.65-83.71-16.59-83.71-16.59,29.46,34.85,66.46,54.86,98.25,66.33-36.75,4.8-48.98,13.37-48.98,13.37,44.48,20.02,90.57,16.66,112.78,13.23,12.04,2.63,64.11,10.54,140.3-27.34,0,0-17.68-8.13-44.26-11.69,17.31-6.55,36.83-16.09,58.17-29.87Z"/>
        <path class="cls-15" d="M635,405c-6.67-22.38-9.92-33.74-6-42,4.75-10,13.48-11.49,49-27,33.54-14.64,29.58-14.98,44-20,20.78-7.23,42.82-14.91,66-12,32.02,4.01,38.07,24.7,79,47,12.12,6.6,33.59,12.39,76,25,48.77,14.5,71.77,18.99,78,37,4.08,11.81-1.02,23.72-2,26-2.25,5.24-9.67,19.36-37,29-79.57,28.08-194.19-28.88-278-4-7.22,2.14-24.19,7.86-39,0-14.75-7.83-19.93-25.19-30-59Z"/>
        <path class="cls-25" d="M695.82,327.96s41.09,5.52,62.18,34.04c17,23,12,46,25,66,10.47,16.11,39,38,39,38l143-9s-78.13-11.85-110-39c-27-23-33.19-60.8-46-73-21-20-67-31-84-31,0,0-9.35-1.08-29.18,13.96Z"/>
        <path class="cls-29" d="M718,314s-20.83,11.22-22,14c0,0,19,3,31,11,11.83,7.88,43.69,23,47.85,39,4.15,16,6.15,29,16.15,43,32.3,45.21,59.08,57.53,11.18,6.61-6.78-7.2-12.13-15.63-15.79-24.82-1.44-3.62-4.73-14.19-5.38-16.79-2-8-2-17-10-27.68-9.04-12.07-15-17.32-15-17.32l7.71,3s13.29,6,19.29,20c4.79,11.18,5,34,15,52,8.5,15.29,45.79,42.5,50,43,17,2-35-37-35-37,0,0-11-9-14-23s-3-37-20-53-13-11-13-11c0,0-9-6,0-4s22,9,27,20,10,36,13,44,13.72,24.74,24,31c100.51,61.22,63.28,24.09,14.32-1.33-8.55-4.44-16.26-10.41-22.41-17.83-4.13-4.98-7.79-10.84-8.91-16.84-3-16-7-26-10-38-3.04-12.16-22-22-40-28s-45-10-45-10Z"/>
      </g>
    </g>
  </g>
  <g id="layer_2" data-name="layer 2">
    <g id="layer_2-2" data-name="layer 2">
      <g class="cls-46">
        <g>
          <path class="cls-6" d="M338.12,342.09s-9.51-63.1,9.51-114.1c0,0,22.47,73.47,12.97,114.1,0,0-17.29,10.37-22.47,0Z"/>
          <path class="cls-6" d="M349.35,338.63s62.23-32.85,98.54-26.8c0,0-15.56,22.47-84.71,40.63,0,0-25.93,6.91-13.83-13.83Z"/>
          <circle class="cls-3" cx="337.25" cy="303.19" r="11.24" transform="translate(-39.46 555.68) rotate(-75.79)"/>
          <circle class="cls-3" cx="364.05" cy="310.97" r="16.42" transform="translate(-1.48 620.2) rotate(-80.73)"/>
          <path class="cls-2" d="M349.34,338.62s19.9-70.86,70.03-84.69c0,0-13.01,56.18-50.13,95.08,0,0-21.64-4.35-19.9-10.39Z"/>
          <path class="cls-2" d="M345.03,351.6s-30.25-25.07-38.03-80.39c0,0,34.57,29.39,47.54,53.59,12.97,24.2-9.51,26.8-9.51,26.8Z"/>
          <path class="cls-2" d="M343.3,355.92l-10.52-17.3s28.45,3.26,39.91,11.25c.4.28-1.88,2.59-1.88,2.59l-11.95,7.78s-8.64,66.56-2.59,114.96l-15.56,1.3s-7.78-75.63,2.59-120.58Z"/>
        </g>
        <g>
          <path class="cls-2" d="M612.13,471.87s-30.21-101.05,37.83-172.48l2.43,1.95s-64.36,63.01-37.79,169.75l-2.47.78Z"/>
          <path class="cls-2" d="M648.49,303.33s-10.94-56.26,62.4-74.91c0,0,6.71,61.04-62.4,74.91Z"/>
          <path class="cls-2" d="M626.51,334.93s-31.28-25.69-35.77-84.78c0,0,20.53,5.44,44.46,67.08l-8.69,17.7Z"/>
          <path class="cls-2" d="M626.08,332.78s31.59,16.39,90.8-3.88c0,0-26.36-16.54-83.09-9.88l-7.71,13.76Z"/>
          <path class="cls-2" d="M612.78,365.58s-39.89-20.69-51.43-63.49c0,0,43.42,28.66,56.83,48.65l-5.4,14.84Z"/>
          <path class="cls-2" d="M614.31,365.3s30.66,17.79,88.61,4.36c0,0-36.78-28.82-83.68-17.91l-4.93,13.55Z"/>
          <path class="cls-2" d="M608.1,393.35s37.42-16.39,77.17-5.41c0,0-15.47,14.87-77.41,21.81l.24-16.4Z"/>
          <path class="cls-2" d="M608.1,393.35l-.24,16.4s-33.84-3.78-62.81-40.84c0,0,34.67,3.52,63.06,24.45Z"/>
          <path class="cls-2" d="M605.64,427.54l1.04,12.81s-40.24,16.08-62.59,11.37c0,0,26.47-21.37,61.55-24.18Z"/>
          <path class="cls-2" d="M606.03,428.77l2.47,11.61s24.21,7.74,58.52-1.32c0,0-33.4-21.45-60.99-10.29Z"/>
        </g>
        <g>
          <path class="cls-6" d="M522.44,461.05s.28-63.7-49.27-93.41l-1.03,1.55s46.13,25.47,48.8,91.84l1.5.03Z"/>
          <path class="cls-6" d="M474.63,369.67s-3.12-34.46-46.98-32.69c0,0,6.25,36.5,46.98,32.69Z"/>
          <path class="cls-6" d="M492.03,384.21s13.2-20.23,6.03-55.23c0,0-10.54,6.67-13.77,46.47l7.73,8.76Z"/>
          <path class="cls-6" d="M491.92,382.89s-14.9,14.9-51.16,13.31c0,0,11.96-14.09,44.62-19.95l6.54,6.65Z"/>
          <path class="cls-6" d="M504.69,399.6s18.81-18.82,18.23-45.58c0,0-19.48,24.04-23.67,37.91l5.43,7.67Z"/>
          <path class="cls-6" d="M503.78,399.7s-14.15,15.55-48.6,17.7c0,0,15.75-22.99,43.64-24.71l4.96,7.01Z"/>
          <path class="cls-6" d="M511.83,414.89s-23.51-3.08-43.83,10.08c0,0,11.04,5.96,46.65-.63l-2.82-9.46Z"/>
          <path class="cls-6" d="M511.83,414.89l2.82,9.46s18.21-7.99,28.27-34.42c0,0-18.72,7.98-31.09,24.96Z"/>
          <path class="cls-6" d="M518.8,434.27l1.52,7.6s25.03,2.42,36.69-4.14c0,0-18.23-7.84-38.21-3.46Z"/>
          <path class="cls-6" d="M518.78,435.04l.52,7.15s-12.21,8.63-32.78,9.26c0,0,15.08-18.15,32.26-16.41Z"/>
        </g>
        <g>
          <path class="cls-13" d="M713.38,375.18s6.3-40.26-6.3-72.8c0,0-14.89,46.88-8.59,72.8,0,0,11.45,6.62,14.89,0Z"/>
          <path class="cls-13" d="M705.94,372.98s-41.24-20.96-65.29-17.1c0,0,10.31,14.34,56.13,25.92,0,0,17.18,4.41,9.16-8.82Z"/>
          <path class="cls-19" d="M706.51,350.37c0,3.96,3.33,7.17,7.45,7.17s7.45-3.21,7.45-7.17-3.33-7.17-7.45-7.17-7.45,3.21-7.45,7.17Z"/>
          <ellipse class="cls-19" cx="696.2" cy="355.33" rx="10.88" ry="10.48"/>
          <path class="cls-13" d="M705.95,372.97s-13.18-45.21-46.4-54.04c0,0,8.07,34.19,32.67,59.01,0,0,14.88-1.12,13.73-4.97Z"/>
          <path class="cls-13" d="M708.8,381.25s20.04-15.99,25.2-51.29c0,0-22.91,18.75-31.5,34.19-8.59,15.44,6.3,17.1,6.3,17.1Z"/>
          <path class="cls-22" d="M709.95,384.01l6.97-11.04s-18.85,2.08-26.44,7.18c-.27.18,1.25,1.65,1.25,1.65l7.92,4.96s5.73,42.47,1.72,73.35l10.31.83s5.15-48.26-1.72-76.93Z"/>
        </g>
        <g>
          <path class="cls-2" d="M478.21,465.96s-17.24-33.9-20.73-43.7c0,0,15.55,1.17,22.86,14.07,7.32,12.9,11.73,30.43,9.34,31.03l-11.48-1.4Z"/>
          <path class="cls-27" d="M485.53,464.97s-11.24-36.05-7.49-60.87c0,0,14.05.47,21.54,59l-14.05,1.87Z"/>
          <path class="cls-2" d="M493.02,463.97s-2.34-60.34,15.45-79.07c0,0,10.32,41.08.94,79.07h-16.4Z"/>
          <path class="cls-27" d="M504.57,463.97s-.31-29.9,35.27-34.59c0,0-17.79,27.16-23.41,35.58l-11.86-1Z"/>
          <path class="cls-27" d="M480.38,464.5s-13.11-17.79-26.22-18.73c0,0,14.05,14.05,16.86,19.2l9.36-.47Z"/>
        </g>
        <g>
          <path class="cls-23" d="M152,459s2-56-28-87l3-3s31,28,30,90h-5Z"/>
          <path class="cls-30" d="M121,405l8.44-11.81c-3.15-1.59-6.75-3-10.85-4.07l-6.59,17.88h-6l6.94-19.08c-3.23-.53-6.72-.86-10.49-.93l-4.45,14.01-4-1,.75-12.8c-3.69.27-7.63.79-11.79,1.57l2.04,12.22h-4l-10.01-9.34c-5.62,1.62-11.6,3.71-17.99,6.34,0,0,2.17,2.74,5.9,6.79l9.1-3.79,4,5-7.88,4.2c2.74,2.73,5.9,5.68,9.38,8.61l8.5-9.81,4,1-3.57,15.69c2.48,1.73,5.04,3.37,7.68,4.85l6.89-14.55,4,2-3.11,16.35c2.68,1.1,5.39,1.99,8.11,2.62v-16.96h8l-2.43,17.84c8.11.69,16.19-1.35,23.56-7.71l-11.13-11.13,3-3,11.59,10.76c3.63-3.95,7.05-9.06,10.17-15.57,0,0-3.71-7.89-13.65-14.67l-7.11,9.48-7-1Z"/>
          <path class="cls-30" d="M243.46,373.69c1.61-9.67.87-17.07.87-17.07,0,0-4.9-1.28-13.04-2.21l-6.29,12.59-5,1,3.56-14.26c-3.57-.21-7.5-.32-11.72-.24l-.84,18.5-7,2,4.64-20.41c-6.43.26-13.44.97-20.79,2.37l5.15,24.03-6,1-3.7-24.08c-.19.04-.38.08-.57.13-4.24.98-7.93,2.6-11.15,4.67l8.43,25.28-8,4-6.67-24.17c-4.28,4.39-7.39,9.7-9.64,15.11l10.31,13.06-6,4-6.64-10.51c-3.74,12.41-3.6,23.64-3.6,23.64,2.2.63,4.33,1.19,6.43,1.71l2.81-9.84h4l-2.51,10.87c3.05.69,5.99,1.26,8.82,1.74l3.69-16.61,14-5,4.65,23.27c3.23-.11,6.26-.4,9.11-.84l-2.76-29.43,9-3,9.27,27.82c3.08-1.45,5.84-3.14,8.29-5.01l-9.56-27.81,8-2,15.53,12.08c1.11-2.4,2.02-4.82,2.76-7.2l-17.29-9.88,6-2,13.46,2.69Z"/>
          <path class="cls-30" d="M61,310l-14.5-3.48c1.88,5.94,3.91,11.42,6.05,16.48h25.46l4,7-22.73,6.94c5.06,9.19,10.52,16.58,16.13,22.51l16.6-12.45,9,4-18.99,14.77c4.21,3.6,8.44,6.46,12.57,8.74l13.41-20.51,4,4-7.02,21.19c17.12,6.04,30.49,3,30.49,3,3.05-5.38,5.63-10.47,7.8-15.29l-19.28-8.9-2-7,24.58,7.93c3.02-8.04,4.75-15.24,5.4-21.68l-34.98-5.25-1-6,35.73-1.7c-2.16-13.92-10.62-23.21-21.99-29.31l-22.74,20.02-4-5,18.67-18.67c-9.32-3.55-19.81-5.51-30.08-6.51l-5.59,19.18-6-3s3.84-10.98,5.43-16.67c-7.5-.47-14.71-.47-21.07-.25l-1.36,12.93h-5l-3.87-12.37c-8.02.6-13.13,1.37-13.13,1.37,1.05,4.69,2.18,9.14,3.37,13.39l15.63,6.61,1,4Z"/>
          <path class="cls-10" d="M238.53,390.58c1.11-2.4,2.72-6.2,3.47-8.58l-17-9,5-1.5,13.46,2.69c1.04-6.24,1.1-11.52,1.01-14.49l-50.47,24.3-30.31,15.15c-3.77,1.88-7.21,4.36-10.19,7.34l-3.69,3.69c-.07,1.56-.06,2.45-.06,2.45,2.2.63,4.33,1.19,6.43,1.71l2.81-9.84h4l-2.51,10.87c3.05.69,5.99,1.26,8.82,1.74l3.69-16.61,14-5,4.65,23.27c3.23-.11,6.26-.4,9.11-.84l-2.76-29.43,9-3,9.27,27.82c3.08-1.45,5.84-3.14,8.29-5.01l-9.56-27.81,8-2,15.53,12.08Z"/>
          <path class="cls-10" d="M99,330.75l35.2,51.67c.83-.13,1.28-.23,1.28-.23,3.05-5.38,5.63-10.47,7.8-15.29l-19.28-8.9-2-7,24.58,7.93c3.02-8.04,4.75-15.24,5.4-21.68l-34.98-5.25-1-6,35.73-1.7c-2.16-13.92-10.62-23.21-21.99-29.31l-22.74,20.02-4-5,18.67-18.67c-9.32-3.55-19.81-5.51-30.08-6.51l-5.59,19.18-6-3s3.84-10.98,5.43-16.67c-7.5-.47-14.71-.47-21.07-.25l-1.36,12.93h-5l-3.87-12.37c-8.02.6-13.13,1.37-13.13,1.37l8.99,8.99c2.66,2.66,5.68,4.91,8.99,6.7l19.52,10.55c8.21,4.44,15.24,10.79,20.5,18.5Z"/>
          <path class="cls-10" d="M124,419l3-3,11.59,10.76c3.63-3.95,7.05-9.06,10.17-15.57,0,0-.25-.53-.79-1.43l-27.3,2.9c-8.31.88-16.72-.28-24.48-3.38l-13.18-5.27-9.27-3.86c-1.81-.75-3.7-1.3-5.64-1.62l-11.54-1.92c-1.17.46-2.34.91-3.54,1.41,0,0,2.17,2.74,5.9,6.79l9.1-3.79,4,5-7.88,4.2c2.74,2.73,5.9,5.68,9.38,8.61l8.5-9.81,4,1-3.57,15.69c2.48,1.73,5.04,3.37,7.68,4.85l6.89-14.55,4,2-3.11,16.35c2.68,1.1,5.39,1.99,8.11,2.62v-16.96h8l-2.43,17.84c8.11.69,16.19-1.35,23.56-7.71l-11.13-11.13Z"/>
        </g>
        <g>
          <path class="cls-14" d="M-14,461s-24-77-16-130c0,0,30,1,46,126l-30,4Z"/>
          <path class="cls-14" d="M1.99,458.87s-4.99-128.87,33.01-168.87c0,0,22.04,87.73,2.02,168.87H1.99Z"/>
          <path class="cls-14" d="M26.67,458.87s-.67-63.87,75.33-73.87c0,0-38,58-50,76l-25.33-2.13Z"/>
          <path class="cls-31" d="M35.75,459c1.03-2.99,2.28-6.64,3.64-10.61,15.77-77.98-4.39-158.26-4.39-158.26-.34.36-.67.74-1.01,1.11-3.22,20.16-13.16,83.35-13.99,101.75-.83,18.16-1.65,54.03-1.91,66h17.66Z"/>
          <path class="cls-36" d="M52,461c12-18,50-76,50-76-41.67,14.19-60.55,63.75-64.29,74.8l14.29,1.2Z"/>
          <path class="cls-36" d="M17,456C.79,338.1-30,331-30,331c0,.02,0,.04,0,.07,6.39,15.68,21.13,55.11,25.01,93.93,1.68,16.79,2.91,27.49,3.8,34.29l12.23-1.63c.81-1.55,4.26,1.67,5.97-1.66Z"/>
        </g>
        <g>
          <path class="cls-1" d="M295.54,410.56s12.88-7.41,20.4-28.61c0,0-15.33-3.52-21.43,21.64l1.03,6.97Z"/>
          <path class="cls-1" d="M295.87,410.45s-12.08,3.84-29.24-7.42c0,0,9.02-13.96,28.2,1.93l1.04,5.49Z"/>
          <path class="cls-1" d="M297.38,422.99s19.79-2.48,23.62-19.58c0,0-19.7,2.8-23.79,13.85l.17,5.73Z"/>
          <path class="cls-1" d="M297.3,423.03s-12.77,6.74-29.41-4.3c0,0,14.92-13.72,29.26-.94l.15,5.23Z"/>
          <path class="cls-1" d="M297.62,431.6s-9.65-9.69-25.5-4.31c0,0,7.98,10.14,24.36,10.33l1.14-6.02Z"/>
          <path class="cls-1" d="M297.53,431.57l-1.19,6.02s15.54,4.14,24.2-12.9c0,0-14.34-2.58-23.02,6.88Z"/>
          <path class="cls-1" d="M295.46,442.85l-1.56,4.61s11.78,7.95,19.61,7.4c0,0-5.3-14.23-18.06-12.02Z"/>
          <path class="cls-1" d="M295.26,443.13l-1.36,4.28s-8.6,2.91-19.89-.34c0,0,8.18-12.44,21.25-3.94Z"/>
          <path class="cls-13" d="M297.27,419.34l.11,3.65s19.63-2.46,23.58-19.38c-6.66,5.32-21.37,14.32-23.68,15.73Z"/>
          <path class="cls-13" d="M296.35,437.59s15.33,4.07,24.03-12.58c-4.84,2.91-19.49,7.79-23.34,9.05l-.69,3.52Z"/>
          <path class="cls-13" d="M294.66,445.21l-.76,2.25s11.66,7.87,19.49,7.41c-5.07-5.51-15.23-8.69-18.73-9.66Z"/>
          <path class="cls-13" d="M293.9,447.41l.61-1.93-.21-.7s-15.24,1.3-20.3,2.28h0c11.29,3.25,19.89.34,19.89.34Z"/>
          <path class="cls-13" d="M272.15,427.32c.53.65,8.51,10.11,24.33,10.29l.63-3.31c-5.05-4.42-19.36-6.37-24.95-6.98Z"/>
          <path class="cls-13" d="M267.94,418.76c16.61,10.99,29.36,4.27,29.36,4.27l-.1-3.33c-11.53-5-24.85-2.13-29.27-.94Z"/>
          <path class="cls-13" d="M295.87,410.45l-.66-3.48c-2.47-.69-20.41-5.58-28.5-4.06-.05.07-.08.12-.08.12,17.16,11.26,29.24,7.42,29.24,7.42Z"/>
          <path class="cls-13" d="M287,464.59s20.73-34.58,6.19-64.95l-1,.54s14.25,27.08-5.91,63.96l.72.45Z"/>
          <path class="cls-13" d="M315.66,382.42s-.06-.01-.19-.04c-2.77,1.85-8.34,5.73-10.34,8.28-2.71,3.46-8.74,12.91-9.97,17.38-.08.31.88.36.82.63l.35,1.5s11.8-6.56,19.32-27.76Z"/>
          <path class="cls-1" d="M293.24,401.17s9.62-19.64-12.33-31.25c0,0-8.75,21.65,12.33,31.25Z"/>
          <path class="cls-13" d="M280.97,369.94c3.68,6.89,10.91,21.41,12.04,31.11.08.04.16.08.24.11,0,0,9.6-19.61-12.27-31.22Z"/>
        </g>
        <g>
          <path class="cls-36" d="M994.36,463.12s-36.82-72.4-44.27-93.32c0,0,33.2,2.49,48.83,30.04,15.63,27.55,25.06,64.98,19.96,66.27l-24.52-2.99Z"/>
          <path class="cls-14" d="M1010,461s-24-77-16-130c0,0,30,1,46,126l-30,4Z"/>
          <path class="cls-14" d="M1025.99,458.87s-4.99-128.87,33.01-168.87c0,0,22.04,87.73,2.02,168.87h-35.02Z"/>
          <path class="cls-14" d="M1050.67,458.87s-.67-63.87,75.33-73.87c0,0-38,58-50,76l-25.33-2.13Z"/>
          <path class="cls-14" d="M999,460s-28-38-56-40c0,0,30,30,36,41l20-1Z"/>
          <path class="cls-31" d="M1059.75,459c1.03-2.99,2.28-6.64,3.64-10.61,15.77-77.98-4.39-158.26-4.39-158.26-.34.36-.67.74-1.01,1.11-3.22,20.16-13.16,83.35-13.99,101.75-.83,18.16-1.65,54.03-1.91,66h17.66Z"/>
          <path class="cls-36" d="M1076,461c12-18,50-76,50-76-41.67,14.19-60.55,63.75-64.29,74.8l14.29,1.2Z"/>
          <path class="cls-36" d="M1041,456c-16.21-117.9-47-125-47-125,0,.02,0,.04,0,.07,6.39,15.68,21.13,55.11,25.01,93.93,1.68,16.79,2.91,27.49,3.8,34.29l12.23-1.63c.81-1.55,4.26,1.67,5.97-1.66Z"/>
          <path class="cls-31" d="M950.85,369.87c10.51,7.65,29.83,22.49,34.15,31.13,5.76,11.52,19.8,31.33,23.57,63.85l10.31,1.26c5.1-1.29-4.33-38.72-19.96-66.27-14.24-25.1-43.06-29.4-48.07-29.96Z"/>
          <path class="cls-31" d="M999,460s-27.08-36.72-54.6-39.85c8.34,3.6,17.73,8.48,22.6,13.85,6.18,6.8,15.03,18.56,20.89,26.56l11.11-.56Z"/>
        </g>
        <g>
          <path class="cls-14" d="M687.8,460s-1.03-30.28,14.43-47.05l-1.55-1.62s-15.97,15.14-15.46,48.67h2.58Z"/>
          <path class="cls-14" d="M703.78,430.8l-4.35-6.39c1.62-.86,3.48-1.62,5.59-2.2l3.39,9.67h3.09l-3.58-10.32c1.66-.29,3.46-.47,5.4-.5l2.29,7.58,2.06-.54-.39-6.92c1.9.14,3.93.42,6.08.85l-1.05,6.61h2.06l5.16-5.05c2.9.88,5.98,2,9.27,3.43,0,0-1.12,1.48-3.04,3.67l-4.69-2.05-2.06,2.7,4.06,2.27c-1.41,1.47-3.04,3.07-4.83,4.65l-4.38-5.3-2.06.54,1.84,8.49c-1.28.94-2.6,1.82-3.96,2.62l-3.55-7.87-2.06,1.08,1.6,8.84c-1.38.6-2.78,1.08-4.18,1.42v-9.17h-4.12l1.25,9.65c-4.18.37-8.34-.73-12.14-4.17l5.73-6.02-1.55-1.62-5.97,5.82c-1.87-2.13-3.63-4.9-5.24-8.42,0,0,1.91-4.27,7.03-7.93l3.66,5.12,3.61-.54Z"/>
          <path class="cls-14" d="M640.67,413.87c-.83-5.23-.45-9.23-.45-9.23,0,0,2.53-.69,6.72-1.2l3.24,6.81,2.58.54-1.84-7.71c1.84-.12,3.87-.18,6.04-.13l.43,10.01,3.61,1.08-2.39-11.04c3.31.14,6.93.53,10.71,1.28l-2.65,13,3.09.54,1.91-13.02c.1.02.2.04.29.07,2.18.53,4.09,1.41,5.75,2.53l-4.34,13.67,4.12,2.16,3.44-13.07c2.21,2.38,3.81,5.24,4.97,8.17l-5.31,7.06,3.09,2.16,3.42-5.68c1.93,6.71,1.86,12.79,1.86,12.79-1.13.34-2.23.64-3.31.93l-1.45-5.32h-2.06l1.29,5.88c-1.57.37-3.08.68-4.54.94l-1.9-8.98-7.21-2.7-2.4,12.58c-1.66-.06-3.22-.22-4.69-.46l1.42-15.91-4.64-1.62-4.78,15.04c-1.59-.78-3.01-1.7-4.27-2.71l4.93-15.04-4.12-1.08-8,6.53c-.57-1.3-1.04-2.61-1.42-3.89l8.91-5.34-3.09-1.08-6.94,1.46Z"/>
          <path class="cls-14" d="M734.69,379.42l7.47-1.88c-.97,3.21-2.01,6.18-3.11,8.91h-13.12l-2.06,3.79,11.71,3.76c-2.61,4.97-5.42,8.96-8.31,12.17l-8.55-6.73-4.64,2.16,9.78,7.99c-2.17,1.95-4.35,3.5-6.48,4.73l-6.91-11.09-2.06,2.16,3.62,11.46c-8.82,3.27-15.71,1.62-15.71,1.62-1.57-2.91-2.9-5.66-4.02-8.27l9.93-4.81,1.03-3.79-12.66,4.29c-1.56-4.35-2.45-8.24-2.78-11.73l18.02-2.84.52-3.24-18.41-.92c1.11-7.53,5.47-12.55,11.33-15.85l11.72,10.82,2.06-2.7-9.62-10.1c4.8-1.92,10.21-2.98,15.5-3.52l2.88,10.37,3.09-1.62s-1.98-5.94-2.8-9.02c3.86-.25,7.58-.25,10.86-.14l.7,6.99h2.58l1.99-6.69c4.13.32,6.77.74,6.77.74-.54,2.54-1.12,4.94-1.74,7.24l-8.05,3.58-.52,2.16Z"/>
          <path class="cls-33" d="M727.27,406.16c2.89-3.21,5.7-7.2,8.31-12.17l-11.71-3.76,2.06-3.79h13.12c1.1-2.74,2.14-5.7,3.11-8.91l-7.47,1.88.52-2.16,8.05-3.58c.57-2.14,1.12-4.38,1.62-6.72l-19.39,13.27c-5.14,3.52-9.52,8.02-12.89,13.26l-16.08,25.01c1.16.23,7.54,1.28,15.5-1.67l-3.62-11.46,2.06-2.16,6.91,11.09c2.13-1.23,4.31-2.78,6.48-4.73l-9.78-7.99,4.64-2.16,8.55,6.73Z"/>
          <path class="cls-33" d="M733.08,433.61l-4.06-2.27,2.06-2.7,4.69,2.05c1.92-2.19,3.04-3.67,3.04-3.67-1.27-.55-2.5-1.05-3.71-1.51l-6.88,3.75-10.82,3.93c-4.61,1.67-9.5,2.39-14.4,2.1l-13.36-.78c1.56,3.35,3.27,6,5.07,8.06l5.97-5.82,1.55,1.62-5.73,6.02c3.8,3.44,7.96,4.54,12.14,4.17l-1.25-9.65h4.12v9.17c1.4-.34,2.8-.82,4.18-1.42l-1.6-8.84,2.06-1.08,3.55,7.87c1.36-.8,2.68-1.69,3.96-2.62l-1.84-8.49,2.06-.54,4.38,5.3c1.79-1.58,3.42-3.18,4.83-4.65Z"/>
          <path class="cls-33" d="M648.93,411.45l-8.78-5.17c-.03,1.64.02,4.38.53,7.58l6.94-1.46,3.09,1.08-8.91,5.34c.38,1.29.85,2.6,1.42,3.89l8-6.53,4.12,1.08-4.93,15.04c1.26,1.01,2.68,1.92,4.27,2.71l4.78-15.04,4.64,1.62-1.42,15.91c1.47.24,3.03.39,4.69.46l2.4-12.58,7.21,2.7,1.9,8.98c1.46-.26,2.97-.57,4.54-.94l-1.29-5.88h2.06l1.45,5.32c1.08-.28,2.18-.59,3.31-.93,0,0,.02-2.24-.39-5.5l-2.39-.45c-3.78-.71-7.44-1.96-10.86-3.71l-26.4-13.54Z"/>
        </g>
        <g>
          <path class="cls-26" d="M915.12,365.36s12.95-24.01,4.21-64.39c0,0-27.34,9.31-12.56,54.51l8.35,9.88Z"/>
          <path class="cls-26" d="M902.46,352.91s-3.96-39.97-49.46-36.9c0,0,7.25,42.28,49.46,36.9Z"/>
          <path class="cls-26" d="M915.53,364.87s-15.16,17.67-52.84,16.66c0,0,.6-30.53,45.91-24.23l6.93,7.57Z"/>
          <path class="cls-26" d="M930,383s28.52-23,17.98-53.4c0,0-28.06,23.41-23.78,44.62l5.8,8.79Z"/>
          <path class="cls-26" d="M929.92,383.13s-13.44,22.87-50.08,21.71c0,0,10.05-35.84,44.78-29.74l5.3,8.03Z"/>
          <path class="cls-26" d="M938.69,396.2s-24.44-5.8-43.99,17.91c0,0,22.27,8.13,48.02-7.4l-4.04-10.51Z"/>
          <path class="cls-26" d="M938.53,396.24l3.96,10.55s28.26-8.55,25.34-43.53c0,0-24.89,9.82-29.3,32.98Z"/>
          <path class="cls-26" d="M946.19,415.86l2.03,8.71s26.08,1.04,37.78-7.39c0,0-22.03-17.09-39.81-1.32Z"/>
          <path class="cls-26" d="M946.16,416.49l2.01,8s-10.62,12.85-31.4,18.69c0,0,.75-27.33,29.39-26.69Z"/>
          <path class="cls-14" d="M919.34,301.97s-.12.04-.32.12c-2.54,5.57-7.48,17.01-8.14,22.93-.89,8.01-1.16,28.61,1.23,36.78.16.56,1.72-.3,1.89.2l2,2s12.08-21.65,3.34-62.03Z"/>
          <path class="cls-14" d="M926.3,377.4l3.69,5.59s28.29-22.82,18.09-53.05c-5.26,14.74-19.53,43.02-21.79,47.45Z"/>
          <path class="cls-14" d="M942.5,406.79s27.88-8.46,25.38-42.86c-4.75,9.22-22.9,31-27.7,36.69l2.32,6.18Z"/>
          <path class="cls-14" d="M947.23,420.32l.99,4.25s25.82,1.03,37.6-7.27c-13.24-3.7-32.18,1.14-38.59,3.02Z"/>
          <path class="cls-14" d="M948.17,424.49l-.9-3.6-1-.89s-22.54,16.75-29.49,23.18h0c20.77-5.83,31.4-18.69,31.4-18.69Z"/>
          <path class="cls-14" d="M894.79,414.14c1.45.5,23.06,7.57,47.94-7.43l-2.22-5.78c-12.16-2.02-36.39,8.75-45.72,13.21Z"/>
          <path class="cls-14" d="M879.94,404.84c36.56,1.11,49.98-21.71,49.98-21.71l-3.37-5.11c-22.83,3.34-40.87,20.69-46.61,26.82Z"/>
          <path class="cls-14" d="M915.53,364.87l-4.39-4.8c-4.53,1.31-37.27,11-48.43,21.2-.01.17-.01.26-.01.26,37.68,1.01,52.84-16.66,52.84-16.66Z"/>
          <path class="cls-26" d="M953.99,458s-1.04-74.04-53.1-107.42l-1.04,1.82s48.41,28.52,52.58,105.6h1.56Z"/>
          <path class="cls-14" d="M853.11,316.01c12.4,7.2,37.74,22.9,48.86,36.96.16-.02.32-.03.48-.05,0,0-3.95-39.9-49.34-36.9Z"/>
        </g>
        <g>
          <path class="cls-13" d="M388.27,437.5s12.02-1.28,22.25,5.37c0,0-5.69,2.81-23.78-.77l1.53-4.6Z"/>
          <g>
            <path class="cls-13" d="M407.71,415.72s1.94-16.84,24.29-15.55c0,0-3.56,17.82-24.29,15.55Z"/>
            <path class="cls-13" d="M398.68,422.66s-6.53-10.04-2.51-27.11c0,0,5.3,3.37,6.54,22.89l-4.03,4.21Z"/>
            <path class="cls-13" d="M398.76,422.02s7.45,7.45,25.95,7.02c0,0-5.96-7.02-22.55-10.21l-3.4,3.19Z"/>
            <path class="cls-13" d="M392.07,430.08s-9.4-9.4-8.83-22.5c0,0,9.69,11.96,11.68,18.8l-2.85,3.7Z"/>
            <path class="cls-13" d="M392.53,430.14s7.06,7.76,24.6,9.15c0,0-7.8-11.42-22-12.53l-2.6,3.38Z"/>
            <path class="cls-13" d="M388.27,437.5l-1.53,4.6s-9.21-4.09-14.06-17.13c0,0,9.46,4.09,15.6,12.53Z"/>
            <path class="cls-13" d="M384.52,446.92l-.85,3.71s-12.79.94-18.67-2.39c0,0,9.38-3.66,19.52-1.32Z"/>
            <path class="cls-13" d="M384.52,447.3l-.34,3.49s6.14,4.35,16.62,4.86c0,0-7.5-9.04-16.28-8.35Z"/>
          </g>
          <path class="cls-28" d="M398.76,422.02s7.45,7.45,25.95,7.02c0,0-.02-.02-.05-.05-8.53-2.93-23.01-8.16-24.19-8.58l-1.72,1.62Z"/>
          <path class="cls-28" d="M392.53,430.14s7.06,7.76,24.6,9.15c0,0-.06-.09-.18-.25-6.98-3.62-19.5-9.07-23.09-10.63l-1.33,1.73Z"/>
          <path class="cls-28" d="M396.22,395.59s-.05-.03-.05-.03c-4.02,17.07,2.51,27.11,2.51,27.11l2.12-2.21c-.01-12.19-2.76-20.61-4.58-24.86Z"/>
          <path class="cls-28" d="M393.44,428.3c-6.22-6.52-9.15-16.4-10.19-20.7,0,0-.01-.01-.01-.01-.57,13.1,8.83,22.5,8.83,22.5l1.37-1.79Z"/>
          <path class="cls-28" d="M372.74,425.14c4.88,12.9,14,16.96,14,16.96l.8-2.4c-3.57-2.67-11.71-11.26-14.8-14.56Z"/>
          <path class="cls-28" d="M386.74,442.1c17.51,3.46,23.4.94,23.76.78-6.34-.94-19.88-2.66-23.01-3.05l-.76,2.27Z"/>
          <path class="cls-28" d="M400.17,454.95c-6.35-3.56-12.33-4.86-15.87-5.34l-.12,1.19s6.14,4.35,16.62,4.86c0,0-.22-.27-.63-.71Z"/>
          <path class="cls-28" d="M378.64,448.73c-7.27-.87-11.25-.75-13.43-.39,5.97,3.19,18.46,2.28,18.46,2.28l.24-1.03c-1.35-.3-3.07-.59-5.27-.86Z"/>
          <path class="cls-13" d="M382.39,460s.51-31.2,26.08-45.26l.51.77s-23.78,12.02-25.83,44.5h-.77Z"/>
          <path class="cls-28" d="M431.99,400.22c-4.29,1.32-12.09,5.04-24.27,15.38-.01.07-.02.12-.02.12,20.12,2.2,24.07-14.51,24.28-15.5Z"/>
        </g>
      </g>
    </g>
  </g>
  <g id="layer_1" data-name="layer 1">
    <g class="cls-42">
      <polygon class="cls-18" points="512 453 -512 453 -512 474 512 474 1536 474 1536 453 512 453"/>
      <path class="cls-5" d="M512,453H-512v3.75l4,.25c12.35,1.16,32.3,2.69,57,3,43.6.54,62.34-3.24,103-2,24.49.75,20.07,3.29,60,5,70,3,102,3,147,1,10.02-.45,26.97-4.37,52-6,18.97-1.24,33.84-1.17,45-1,83.96,1.27,97.47,10.47,149,6,21.7-1.88,27.26-4.21,51-5,26.74-.89,38.03,1.44,68,3,24.94,1.3,44.96.87,85,0,68.51-1.48,59.02-4.71,85-3,21.18,1.39,45.82,4.75,88,5,1.5,0,5.16.28,10,0,2.85-.17,7.02-1.08,11.1-2.15,9.15-2.4,18.63-3.27,28.06-2.6,11.34.81,25.56,1.55,41.84,1.75,43.6.54,62.34-3.24,103-2,24.49.75,20.07,3.29,60,5,70,3,102,3,147,1,10.02-.45,26.97-4.37,52-6,18.97-1.24,33.84-1.17,45-1,83.96,1.27,97.47,10.47,149,6,21.7-1.88,27.26-4.21,51-5,26.74-.89,38.03,1.44,68,3,24.94,1.3,44.96.87,85,0,68.51-1.48,59.02-4.71,85-3,21.18,1.39,45.82,4.75,88,5,1.5,0,5.16.28,10,0,7.44-.44,13.6-1.78,18-3l2-1.07v-5.93H512Z"/>
      <polygon class="cls-12" points="1024 469 512 469 0 469 -512 469 -512 512 0 512 512 512 1024 512 1536 512 1536 469 1024 469"/>
      <g>
        <g>
          <polygon class="cls-8" points="3.28 473.5 7 512 22.05 512 25 477 3.28 473.5"/>
          <polygon class="cls-17" points="90 476 90 512 110 512 110 474 90 476"/>
          <polygon class="cls-8" points="173 476 173 512 198.67 512 199 476 173 476"/>
          <polygon class="cls-8" points="333 474 337.34 512 357 512 363 476 333 474"/>
          <polygon class="cls-17" points="448 476 468 476 468.16 512 448 512 448 476"/>
        </g>
        <polygon class="cls-17" points="243 479 250 479 242.98 512 236.75 512 243 479"/>
        <polygon class="cls-17" points="32.33 479 59.67 479 58.17 512 30.5 512 32.33 479"/>
        <g>
          <polygon class="cls-8" points="566 477 596 476 596 512 568 512 566 477"/>
          <polygon class="cls-17" points="662.53 479 667 512 688.23 512 695 476 662.53 479"/>
          <polygon class="cls-8" points="745 476 750.61 512 774.47 512 779 476 745 476"/>
          <polygon class="cls-8" points="820 476 822.79 512 843.53 512 838 476 820 476"/>
          <polygon class="cls-17" points="871.08 473.5 876.17 512 890 512 894 477 871.08 473.5"/>
          <polygon class="cls-8" points="985 476 990 512 1013.33 512 1012 474 985 476"/>
          <polygon class="cls-17" points="1114 476 1114 512 1134 512 1134 474 1114 476"/>
          <polygon class="cls-8" points="1197 476 1197 512 1222.67 512 1223 476 1197 476"/>
          <polygon class="cls-8" points="1357 474 1361.34 512 1381 512 1387 476 1357 474"/>
          <polygon class="cls-17" points="1472 476 1492 476 1492.16 512 1472 512 1472 476"/>
        </g>
        <polygon class="cls-17" points="608 479 608 512 613.25 512 614.75 479 608 479"/>
      </g>
      <polygon class="cls-20" points="1280 469 1024 469 768 469 512 469 256 469 0 469 -256 469 -512 469 -512 479 -256 479 0 479 256 479 512 479 768 479 1024 479 1280 479 1536 479 1536 469 1280 469"/>
    </g>
    <g id="layer_5-3" data-name="layer 5">
      <g class="cls-44">
        <polygon class="cls-7" points="1535.89 .5 511.89 .5 511.89 490.5 1535.89 490.5 2559.89 490.5 2559.89 .5 1535.89 .5"/>
        <path class="cls-35" d="M1966.89,376.5c-42.41-12.61-63.88-18.4-76-25-40.93-22.3-46.98-42.99-79-47-23.18-2.91-45.22,4.77-66,12-8.01,2.79-10.36,4.14-16.61,7.29.02,2.72.5,5.32,1.61,7.71,9.37,20.21,51.92-.81,97,24,16.9,9.3,10.06,11.78,53,50,30.05,26.74,45.49,40.25,66,47,19.61,6.45,35.16,5.61,65,4,6.63-.36,12.76-.69,18.43-1.06,8.08-6.58,11.24-12.82,12.57-15.94.98-2.28,6.08-14.19,2-26-6.23-18.01-29.23-22.5-78-37Z"/>
        <path class="cls-34" d="M1477.89,474.5s2-345,0-356c0,0-55-28-69-65s-16.67-53-16.67-53h23.67s9,46,22,61c10.83,12.5,36,31,41,33s20,9,18-94h18s2,92-9,126l-3,348h-25Z"/>
        <path class="cls-34" d="M1067.56.17s-4.67,186.33.33,206.33,28,20,34,19l5,249h27L1122.23.5l-16-.33-.33,202.33s-27,4-25-12S1078.89.17,1078.89.17h-11.33Z"/>
        <path class="cls-34" d="M1670.89.5s-4,258,11,295,26,179,26,179h40s-34-119-21-207S1757.89,7.5,1757.89.5h-16.5s-22.5,201-29.5,237-8,52-12,39-14-251-12-276h-17Z"/>
        <path class="cls-34" d="M1916.89,474.5l-10-245s-56-22-62-86S1833.89.17,1833.89.17l20,.33s5,136,13,153,33,54,50,53,14-122,14-122l.2-84h18.8s13,179-21,237l12,237h-24Z"/>
      </g>
    </g>
    <g id="layer_4-3" data-name="layer 4">
      <g class="cls-45">
        <path class="cls-32" d="M1570.89,474.04v-194s-37-24-38-58S1532.89.04,1532.89.04h13v163c0,6,12,12,16-3S1570.89.04,1570.89.04h13l-11,172s-3,25-27,13c0,0-.63,14.62,1,44,1,18,17,32,25,36s30,2,35-21C1615.01,206.7,1616.89.04,1616.89.04h19s-8.09,228.49-11,245c-3,17-9,34-18,41l-4,188h-32Z"/>
        <path class="cls-32" d="M988.89,477.04s-17-219-20-252S939.56.04,939.23.04h23.67s1,90,11,110,13-22,13-22L991.89.04h17.33s-2.33,121-7.33,136-23,12-23,12c0,0,19,188,20,200s19,19,24-12C1027.89,305.04,1041.23.04,1041.23.04h18s-15.33,338-20.33,351-15,34-34,27l7,96-23,3Z"/>
        <path class="cls-32" d="M1210.89,469.04v-120s-46,8-43-58S1167.89.04,1167.89.04h21.43s-1.43,273-.43,285,2,41,29,36V.04h23s-2,127,0,138,19,34,24-2S1275.89.04,1275.89.04h27s-9,147-22,168c-7.59,12.26-36,12-36,12l-2,294-32-5Z"/>
        <path class="cls-16" d="M1356.89,474.04s-23-165-27-213S1307.89,8.04,1310.89.04l22.83-.33s18.17,268.33,23.17,318.33,8,11,15-27S1398.89,16.04,1398.89.04h21s-17,228-20,245-15,118-19,130l14,99h-38Z"/>
        <path class="cls-16" d="M1718.89.04s-1,168,8,196,45,40,53,37l7,236h29.33l-6.33-124s56,0,56-41V.04l-13.67-.33s3.67,161.33.67,175.33-21,15-21-12-.33-163.33-.33-163.33l-14.67.67s-4,176.67-1,186.67,18,21,34,13v102s1,18-38,27L1802.89.04l-35.33-.33,7.33,204.33s-23,6-23-14S1747.56.04,1747.56.04h-28.67Z"/>
        <path class="cls-32" d="M2012.89,477.04s-17-219-20-252S1963.56.04,1963.23.04h23.67s1,90,11,110,13-22,13-22L2015.89.04h17.33s-2.33,121-7.33,136-23,12-23,12c0,0,19,188,20,200s19,19,24-12S2065.23.04,2065.23.04h18s-15.33,338-20.33,351-15,34-34,27l7,96-23,3Z"/>
        <path class="cls-24" d="M1977.89.04s-5,212,140,216S2269.59.04,2269.59.04h7.85s-.54,229.41-159.54,225.21C1958.89,221.04,1969.56.04,1969.56.04h8.33Z"/>
        <path class="cls-4" d="M1642.77.04s54.13,140,258.13,136S2145.89.04,2145.89.04h8.61s-44.61,142-253.61,144S1636.89.04,1635.89.04s0,0,0,0h6.87Z"/>
        <path class="cls-24" d="M953.89.04s-5,212,140,216S1245.59.04,1245.59.04h7.85s-.54,229.41-159.54,225.21C934.89,221.04,945.56.04,945.56.04h8.33Z"/>
        <path class="cls-4" d="M618.77.04s54.13,140,258.13,136S1121.89.04,1121.89.04h8.61s-44.61,142-253.61,144S612.89.04,611.89.04s0,0,0,0h6.87Z"/>
      </g>
    </g>
    <g id="layer_3-3" data-name="layer 3">
      <g class="cls-38">
        <path class="cls-37" d="M1539.89,450.5v.06s58.42,15.53,89.12,2.4c0,0-10.51-12.69-27.11-21.83,10.6-6.67,21.28-16.31,31.31-30.07,0,0-12.84-4.5-30.88-5.8,6.05-11.64,10.11-25.21,10.63-40.98,0,0-11.24,3.69-25.82,10.86,5.19-10.91,10.12-22.95,14.52-36.28,0,0-26.79-5.53-52.28,18.61-6-14.27-16.25-29.21-32.65-44.19,0,0-10.56,14.25-16.98,35.39-21.91-19.66-47.47-14.61-47.47-14.61,1.87,9.84,4.17,18.85,6.75,27.15-15.55-4.05-27.59-3.9-27.59-3.9,5.21,20.03,12.69,36.04,21.02,48.84-10.77-.76-22.76-.06-35.95,2.83,0,0,11.07,17.82,35.83,33.45-17.78,9.19-27.35,25.01-27.35,25.01,48.52,11.94,114.72-5.71,114.72-5.71l.18-1.23Z"/>
        <path class="cls-9" d="M1445.89,452.5v.05s47.68,12.68,72.73,1.96c0,0-8.58-10.36-22.13-17.81,8.66-5.44,17.37-13.31,25.56-24.55,0,0-10.48-3.67-25.2-4.74,4.94-9.5,8.25-20.57,8.67-33.45,0,0-9.18,3.01-21.08,8.87,4.24-8.9,8.26-18.73,11.85-29.61,0,0-21.87-4.52-42.67,15.19-4.89-11.65-13.26-23.84-26.65-36.06,0,0-8.62,11.63-13.85,28.89-17.88-16.05-38.75-11.92-38.75-11.92,1.53,8.03,3.4,15.38,5.51,22.16-12.69-3.3-22.52-3.18-22.52-3.18,4.25,16.35,10.36,29.42,17.16,39.86-8.79-.62-18.57-.05-29.34,2.31,0,0,9.03,14.54,29.24,27.3-14.51,7.5-22.32,20.42-22.32,20.42,39.6,9.75,93.63-4.66,93.63-4.66l.15-1Z"/>
        <path class="cls-21" d="M1215.89,391.16s-23.17-7.58-66.4-1.35c29.5-27.2,45.73-54.65,45.73-54.65-20.48,4.82-37.9,11.63-52.55,19.19,3.81-16.81,6.58-37.21,6.32-60.66,0,0-15.51,14.53-29.33,36.71-.87-37.43-16.97-64.58-16.97-64.58-23.7,18.97-39.93,37.89-50.73,56.02-15.79-34.23-33.26-55.54-33.26-55.54-4.96,24.46.83,58.03,8.36,86.74-70.86-41.78-100.08-33.49-100.08-33.49,18.48,26.36,37.71,47.39,56.36,64.16-43.09-10.65-83.71-16.59-83.71-16.59,29.46,34.85,66.46,54.86,98.25,66.33-36.75,4.8-48.98,13.37-48.98,13.37,44.48,20.02,90.57,16.66,112.78,13.23,12.04,2.63,64.11,10.54,140.3-27.34,0,0-17.68-8.13-44.26-11.69,17.31-6.55,36.83-16.09,58.17-29.87Z"/>
        <g>
          <path class="cls-9" d="M1160.43,446.73s-54.43-76.58,42.43-154.1c0,0,51.37,86.59-42.43,154.1Z"/>
          <path class="cls-9" d="M1192.72,437.91s-65.59-10.03-121.37-89.58c0,0,33.5-9.52,118.82,57.36l2.56,32.22Z"/>
          <path class="cls-9" d="M1181.98,427.28s56.75,13.57,142.91-42.11c0,0-48.49-15.88-136.09,17.17l-6.82,24.94Z"/>
          <path class="cls-9" d="M1181.44,445.5s-73.61-2.96-120.53-58.47c0,0,84.4,12.33,118.21,32.68l2.31,25.79Z"/>
          <path class="cls-9" d="M1168.01,453.4s55.65,16.73,142.97-26.68c0,0-69.6-32.01-140.25,3.19l-2.72,23.49Z"/>
          <path class="cls-9" d="M1184.28,451.4s-64.74,17.18-126.38-10.57c0,0,28.79-20.21,130.89-15.93l-4.51,26.51Z"/>
          <path class="cls-9" d="M1211.36,415.48l-24.24-11.63s28.88-47.77,103.95-65.44c0,0-29.06,49.18-79.71,77.07Z"/>
          <path class="cls-9" d="M1173.57,404.75l-20.99,1.86s-26.86-65.77-19.42-102.46c0,0,35.36,43.13,40.41,100.6Z"/>
          <path class="cls-9" d="M1208.29,401.11l19.44.73s22.01-35.39,21.36-93.56c0,0-47.49,44.49-40.81,92.83Z"/>
        </g>
        <path class="cls-21" d="M1424.89,452.19s-17.87-12.59-45.33-19.35c11.13-4.46,23.49-10.68,36.9-19.35,0,0-13.08-4.28-37.65-1.92,16.76-16.73,25.9-32.19,25.9-32.19-17.08,4.02-31.01,10.07-42.2,16.59,5.32-8.11,10.6-19.57,11.05-33.57,0,0-15.81,8.11-27.77,19.65-1.12-24.7-12.97-43.69-12.97-43.69-12,9.45-20.49,19.09-26.36,28.57-9.73-16.61-19.91-26.33-19.91-26.33-4.64,12.76-3.94,28.78-1.29,43.76-32.88-15.73-46.81-11.78-46.81-11.78,11.39,16.24,23.21,29.42,34.74,40.11-20.48-4.83-38.76-7.5-38.76-7.5,13.24,15.66,29.45,25.48,44.23,31.62-39.17,2.16-51.34,10.69-51.34,10.69,36.93,16.63,75.5,9.43,83.87,7.55,14.84,5.1,53.95,14.2,113.71-2.88ZM1341.5,411.12c.2-.54.4-1.08.58-1.62h1.29c-.64.54-1.26,1.08-1.87,1.62Z"/>
        <path class="cls-9" d="M2024.89,434.3s-21.94-15.47-56.38-25.32c16.51-6.82,34.74-16.14,54.41-28.85,0,0-25.51-8.35-73.06-1.13,31.17-33.87,48.43-66.26,48.43-66.26-15.62,4.4-29.7,9.91-42.34,16.06,4.18-10.88,7.16-23.32,7.6-37.09,0,0-16.73,8.59-34.42,21.99.99-50.14-24.01-90.18-24.01-90.18-22.07,17.39-37.72,35.13-48.54,52.57-17.9-30.57-36.65-48.45-36.65-48.45-8.54,23.48-7.26,52.98-2.38,80.56-60.53-28.96-86.17-21.69-86.17-21.69,20.96,29.9,42.72,54.15,63.96,73.83-37.69-8.89-71.36-13.81-71.36-13.81,24.37,28.83,54.21,46.9,81.41,58.2-72.1,3.98-94.5,19.69-94.5,19.69,66.63,29.99,136.14,17.86,153.4,14.12,21.38,7.25,76.58,19.77,160.59-4.24Z"/>
        <path class="cls-21" d="M1647.89,455.5v.05s47.68,12.68,72.73,1.96c0,0-8.58-10.36-22.13-17.81,8.66-5.44,17.37-13.31,25.56-24.55,0,0-10.48-3.67-25.2-4.74,4.94-9.5,8.25-20.57,8.67-33.45,0,0-9.18,3.01-21.08,8.87,4.24-8.9,8.26-18.73,11.85-29.61,0,0-21.87-4.52-42.67,15.19-4.89-11.65-13.26-23.84-26.65-36.06,0,0-8.62,11.63-13.85,28.89-17.88-16.05-38.75-11.92-38.75-11.92,1.53,8.03,3.4,15.38,5.51,22.16-12.69-3.3-22.52-3.18-22.52-3.18,4.25,16.35,10.36,29.42,17.16,39.86-8.79-.62-18.57-.05-29.34,2.31,0,0,9.03,14.54,29.24,27.3-14.51,7.5-22.32,20.42-22.32,20.42,39.6,9.75,93.63-4.66,93.63-4.66l.15-1Z"/>
        <path class="cls-21" d="M2239.89,391.16s-23.17-7.58-66.4-1.35c29.5-27.2,45.73-54.65,45.73-54.65-20.48,4.82-37.9,11.63-52.55,19.19,3.81-16.81,6.58-37.21,6.32-60.66,0,0-15.51,14.53-29.33,36.71-.87-37.43-16.97-64.58-16.97-64.58-23.7,18.97-39.93,37.89-50.73,56.02-15.79-34.23-33.26-55.54-33.26-55.54-4.96,24.46.83,58.03,8.36,86.74-70.86-41.78-100.08-33.49-100.08-33.49,18.48,26.36,37.71,47.39,56.36,64.16-43.09-10.65-83.71-16.59-83.71-16.59,29.46,34.85,66.46,54.86,98.25,66.33-36.75,4.8-48.98,13.37-48.98,13.37,44.48,20.02,90.57,16.66,112.78,13.23,12.04,2.63,64.11,10.54,140.3-27.34,0,0-17.68-8.13-44.26-11.69,17.31-6.55,36.83-16.09,58.17-29.87Z"/>
        <path class="cls-15" d="M1658.89,405.5c-6.67-22.38-9.92-33.74-6-42,4.75-10,13.48-11.49,49-27,33.54-14.64,29.58-14.98,44-20,20.78-7.23,42.82-14.91,66-12,32.02,4.01,38.07,24.7,79,47,12.12,6.6,33.59,12.39,76,25,48.77,14.5,71.77,18.99,78,37,4.08,11.81-1.02,23.72-2,26-2.25,5.24-9.67,19.36-37,29-79.57,28.08-194.19-28.88-278-4-7.22,2.14-24.19,7.86-39,0-14.75-7.83-19.93-25.19-30-59Z"/>
        <path class="cls-25" d="M1719.72,328.46s41.09,5.52,62.18,34.04c17,23,12,46,25,66,10.47,16.11,39,38,39,38l143-9s-78.13-11.85-110-39c-27-23-33.19-60.8-46-73-21-20-67-31-84-31,0,0-9.35-1.08-29.18,13.96Z"/>
        <path class="cls-29" d="M1741.89,314.5s-20.83,11.22-22,14c0,0,19,3,31,11,11.83,7.88,43.69,23,47.85,39,4.15,16,6.15,29,16.15,43,32.3,45.21,59.08,57.53,11.18,6.61-6.78-7.2-12.13-15.63-15.79-24.82-1.44-3.62-4.73-14.19-5.38-16.79-2-8-2-17-10-27.68-9.04-12.07-15-17.32-15-17.32l7.71,3s13.29,6,19.29,20c4.79,11.18,5,34,15,52,8.5,15.29,45.79,42.5,50,43,17,2-35-37-35-37,0,0-11-9-14-23s-3-37-20-53-13-11-13-11c0,0-9-6,0-4s22,9,27,20,10,36,13,44,13.72,24.74,24,31c100.51,61.22,63.28,24.09,14.32-1.33-8.55-4.44-16.26-10.41-22.41-17.83-4.13-4.98-7.79-10.84-8.91-16.84-3-16-7-26-10-38-3.04-12.16-22-22-40-28s-45-10-45-10Z"/>
      </g>
    </g>
    <g class="cls-43">
      <polygon class="cls-18" points="1535.89 453 511.89 453 511.89 474 1535.89 474 2559.89 474 2559.89 453 1535.89 453"/>
      <path class="cls-5" d="M1535.89,453H511.89v3.75l4,.25c12.35,1.16,32.3,2.69,57,3,43.6.54,62.34-3.24,103-2,24.49.75,20.07,3.29,60,5,70,3,102,3,147,1,10.02-.45,26.97-4.37,52-6,18.97-1.24,33.84-1.17,45-1,83.96,1.27,97.47,10.47,149,6,21.7-1.88,27.26-4.21,51-5,26.74-.89,38.03,1.44,68,3,24.94,1.3,44.96.87,85,0,68.51-1.48,59.02-4.71,85-3,21.18,1.39,45.82,4.75,88,5,1.5,0,5.16.28,10,0,2.85-.17,7.02-1.08,11.1-2.15,9.15-2.4,18.63-3.27,28.06-2.6,11.34.81,25.56,1.55,41.84,1.75,43.6.54,62.34-3.24,103-2,24.49.75,20.07,3.29,60,5,70,3,102,3,147,1,10.02-.45,26.97-4.37,52-6,18.97-1.24,33.84-1.17,45-1,83.96,1.27,97.47,10.47,149,6,21.7-1.88,27.26-4.21,51-5,26.74-.89,38.03,1.44,68,3,24.94,1.3,44.96.87,85,0,68.51-1.48,59.02-4.71,85-3,21.18,1.39,45.82,4.75,88,5,1.5,0,5.16.28,10,0,7.44-.44,13.6-1.78,18-3l2-1.07v-5.93h-1024Z"/>
      <polygon class="cls-12" points="2047.89 469 1535.89 469 1023.89 469 511.89 469 511.89 512 1023.89 512 1535.89 512 2047.89 512 2559.89 512 2559.89 469 2047.89 469"/>
      <g>
        <g>
          <polygon class="cls-8" points="565.89 477 595.89 476 595.89 512 567.89 512 565.89 477"/>
          <polygon class="cls-17" points="662.43 479 666.89 512 688.12 512 694.89 476 662.43 479"/>
          <polygon class="cls-8" points="744.89 476 750.5 512 774.36 512 778.89 476 744.89 476"/>
          <polygon class="cls-8" points="819.89 476 822.68 512 843.42 512 837.89 476 819.89 476"/>
          <polygon class="cls-17" points="870.97 473.5 876.06 512 889.89 512 893.89 477 870.97 473.5"/>
          <polygon class="cls-8" points="984.89 476 989.89 512 1013.23 512 1011.89 474 984.89 476"/>
          <polygon class="cls-8" points="1027.17 473.5 1030.89 512 1045.95 512 1048.89 477 1027.17 473.5"/>
          <polygon class="cls-17" points="1113.89 476 1113.89 512 1133.89 512 1133.89 474 1113.89 476"/>
          <polygon class="cls-8" points="1196.89 476 1196.89 512 1222.56 512 1222.89 476 1196.89 476"/>
          <polygon class="cls-8" points="1356.89 474 1361.24 512 1380.89 512 1386.89 476 1356.89 474"/>
          <polygon class="cls-17" points="1471.89 476 1491.89 476 1492.06 512 1471.89 512 1471.89 476"/>
        </g>
        <polygon class="cls-17" points="1266.89 479 1273.89 479 1266.88 512 1260.65 512 1266.89 479"/>
        <polygon class="cls-17" points="1056.23 479 1083.56 479 1082.06 512 1054.39 512 1056.23 479"/>
        <g>
          <polygon class="cls-8" points="1589.89 477 1619.89 476 1619.89 512 1591.89 512 1589.89 477"/>
          <polygon class="cls-17" points="1686.43 479 1690.89 512 1712.12 512 1718.89 476 1686.43 479"/>
          <polygon class="cls-8" points="1768.89 476 1774.5 512 1798.36 512 1802.89 476 1768.89 476"/>
          <polygon class="cls-8" points="1843.89 476 1846.68 512 1867.42 512 1861.89 476 1843.89 476"/>
          <polygon class="cls-17" points="1894.97 473.5 1900.06 512 1913.89 512 1917.89 477 1894.97 473.5"/>
          <polygon class="cls-8" points="2008.89 476 2013.89 512 2037.23 512 2035.89 474 2008.89 476"/>
        </g>
        <polygon class="cls-17" points="1631.89 479 1631.89 512 1637.14 512 1638.64 479 1631.89 479"/>
      </g>
      <polygon class="cls-20" points="2303.89 469 2047.89 469 1791.89 469 1535.89 469 1279.89 469 1023.89 469 767.89 469 511.89 469 511.89 479 767.89 479 1023.89 479 1279.89 479 1535.89 479 1791.89 479 2047.89 479 2303.89 479 2559.89 479 2559.89 469 2303.89 469"/>
    </g>
  </g>
</svg>