<?xml version="1.0" encoding="UTF-8"?>
<svg xmlns="http://www.w3.org/2000/svg" viewBox="0 0 2048 512">
  <defs>
    <style>
      .cls-1 {
        fill: #8ebf49;
      }

      .cls-1, .cls-2, .cls-3, .cls-4, .cls-5, .cls-6, .cls-7, .cls-8, .cls-9, .cls-10, .cls-11, .cls-12, .cls-13, .cls-14, .cls-15, .cls-16, .cls-17, .cls-18, .cls-19, .cls-20, .cls-21, .cls-22, .cls-23, .cls-24, .cls-25, .cls-26, .cls-27 {
        stroke-width: 0px;
      }

      .cls-2 {
        fill: #4c6817;
      }

      .cls-3 {
        fill: #425e24;
      }

      .cls-4 {
        fill: none;
        stroke: #d3eced;
        stroke-linecap: round;
        stroke-linejoin: round;
      }

      .cls-5 {
        fill: #709141;
      }

      .cls-6 {
        fill: #676457;
      }

      .cls-7, .cls-11 {
        fill: #6e5e51;
      }

      .cls-8 {
        fill: #6aa09d;
      }

      .cls-9 {
        fill: #7a786d;
      }

      .cls-10 {
        fill: #d3eced;
      }

      .cls-11 {
        opacity: .5;
      }

      .cls-12 {
        fill: #5e7f37;
      }

      .cls-13 {
        fill: #4c6b30;
      }

      .cls-14 {
        fill: #6b6961;
      }

      .cls-15 {
        fill: #8fa8a7;
      }

      .cls-16 {
        fill: #f5dfc2;
      }

      .cls-17 {
        fill: #4f4b3a;
      }

      .cls-18 {
        fill: #b4ccca;
      }

      .cls-19 {
        fill: #4f4c3f;
      }

      .cls-20 {
        fill: #74a53a;
      }

      .cls-21 {
        fill: #a7c1bf;
      }

      .cls-22 {
        fill: #423f32;
      }

      .cls-23 {
        fill: #8e7e70;
      }

      .cls-24 {
        fill: #cab59e;
      }

      .cls-25 {
        fill: #a38f7d;
      }

      .cls-26 {
        fill: #f5ffff;
      }

      .cls-27 {
        fill: #93cecc;
      }
    </style>
  </defs>
  <g id="layer_2" data-name="layer 2">
    <g>
      <rect class="cls-4" x="1024" width="1024" height="512"/>
      <rect class="cls-10" x="1024" width="1024" height="512"/>
      <path class="cls-26" d="m1105.5,164.35c-.81-6.5-8.06-8.32-8.06-8.32-32.71-10.74-62.33-2.93-73.44.87v24.15c34.88-.04,60.6-.2,64.32-.42,12.89-.78,18.19-8.18,17.18-16.28Z"/>
      <path class="cls-26" d="m1245.35,150.83s.23-3.16,7.26-4.77c7.03-1.61,22.44-.11,25.66,1.12,0,0,4.74-10.72,13.86-13.33,9.12-2.61,18.03-.22,18.98.83,0,0,1.42-14.63,17.26-19.61,15.84-4.98,32.22,9.75,31.78,19.74,0,0,9.25-5.6,21.02-.09,11.77,5.52,12.33,11.87,12.33,11.87,0,0,11.25-1.84,17.12,1.42,5.86,3.26,1.71,8.32-1.39,8.95-12.12,2.48-141.26,2.87-156.2,1.22-9-.99-7.69-7.34-7.69-7.34Z"/>
      <path class="cls-26" d="m2043.35,158.66s-3.25-8.13-14.63-12.19c-11.38-4.06-20.32,0-20.32,0,0,0-2.9-11.66-18.69-15.44-12.59-3.02-22.76,4.06-22.76,4.06-4.06-3.25-13.1-10.49-39.83-8.13-27.63,2.44-36.57,26.01-36.57,26.01,0,0-13-9.75-43.08-8.94-30.07.81-43.89,14.63-43.89,14.63-5.69,12.19,3.25,16.26,11.38,19.51,5.78,2.31,147.18,2.98,233.03,2.89v-24.15c-2.99,1.02-4.65,1.76-4.65,1.76Z"/>
      <path class="cls-26" d="m1553.29,308.88s3.81-3.81,12.12-4.04c8.3-.22,11.89,2.47,11.89,2.47,0,0,2.47-6.51,10.1-7.18,7.38-.65,9.87,1.35,11,2.24,0,0,2.81-1.96,6.28-1.12,4.36,1.05,5.16,4.26,5.16,4.26,0,0,2.47-1.12,5.61,0s4.04,3.37,4.04,3.37c0,0,10.1-4.49,21.56-.73,0,0,2,.5,2.23,2.3.28,2.24-1.18,4.28-4.74,4.5-3.56.22-79.86.22-82.1-.68-2.24-.9-4.71-2.02-3.14-5.39Z"/>
      <path class="cls-18" d="m1576.35,82.83s.23-3.16,7.26-4.77c7.03-1.61,22.44-.11,25.66,1.12,0,0,4.74-10.72,13.86-13.33,9.12-2.61,18.03-.22,18.98.83,0,0,1.42-14.63,17.26-19.61,15.84-4.98,32.22,9.75,31.78,19.74,0,0,9.25-5.6,21.02-.09,11.77,5.52,12.33,11.87,12.33,11.87,0,0,11.25-1.84,17.12,1.42,5.86,3.26,1.71,8.32-1.39,8.95-12.12,2.48-141.26,2.87-156.2,1.22-9-.99-7.69-7.34-7.69-7.34Z"/>
      <path class="cls-18" d="m1224.21,276.71s.14-1.88,4.32-2.84,13.35-.06,15.26.66c0,0,2.82-6.38,8.25-7.93,5.43-1.55,10.72-.13,11.29.49,0,0,.84-8.7,10.27-11.66,9.42-2.96,19.17,5.8,18.91,11.74,0,0,5.5-3.33,12.51-.05,7,3.28,7.34,7.06,7.34,7.06,0,0,6.69-1.1,10.18.84,3.49,1.94,1.02,4.95-.83,5.32-7.21,1.47-84.03,1.71-92.92.72-5.35-.59-4.57-4.37-4.57-4.37Z"/>
      <path class="cls-15" d="m1482.31,349.71c-4.04,0-7.76,1.06-10.81,2.85-2.52-10.37-11.85-18.06-22.99-18.06s-20.27,7.52-22.91,17.71c-2.58-1.06-5.4-1.65-8.36-1.65-9.73,0-17.98,6.33-20.87,15.09-2.84-.72-6.17-1.15-9.74-1.15-10.29,0-18.64,3.46-18.64,7.73s8.34,7.73,18.64,7.73c3.5,0,6.77-.41,9.56-1.1,2.72,9.05,11.11,15.65,21.04,15.65s17.97-6.32,20.86-15.08c3.14,1.54,6.67,2.41,10.4,2.41,7.34,0,13.9-3.34,18.24-8.59,3.32,4.15,9.04,6.9,15.56,6.9,10.27,0,18.59-6.81,18.59-15.21s-8.32-15.21-18.59-15.21Z"/>
      <path class="cls-15" d="m1113.82,395.82s35.23-12.54,35.83-11.94c.32.32,5.36-1.17,9.63-2.95,5.51.07,9.07-.45,7.09-2.43-.35-.35-.73-.74-1.14-1.16.1-.23.1-.45-.05-.64-.12-.15-.51-.34-1.12-.55-6.28-6.37-17.77-17.73-29.04-20.35-4.94-1.15-9.53.22-12.86,2.71-2.48-6.14-8.48-10.47-15.5-10.47s-12.76,4.14-15.34,10.07c-2.81-3.55-7.46-5.89-12.73-5.89-2.72,0-5.27.62-7.49,1.71-2.94-6.97-9.84-11.86-17.89-11.86-1.5,0-2.95.19-4.35.51-4.52-4.38-10.67-7.08-17.45-7.08-2.21,0-4.74.68-7.41,1.89v59.46c29.23,2.55,89.82-1.03,89.82-1.03Z"/>
      <path class="cls-21" d="m1632.68,353.14c-8,0-15.22,2.04-20.38,5.31-5.17-10.32-15.75-17.4-27.96-17.4-2.48,0-4.89.3-7.21.85-3.69-5.22-8.58-8.41-13.94-8.41-7.09,0-13.35,5.56-17.1,14.05-1.62-.78-3.36-1.21-5.18-1.21-3.92,0-7.5,1.98-10.18,5.23-1.24-9.54-5.51-16.56-10.59-16.56-4.64,0-8.6,5.87-10.2,14.16-6.34-3.21-14.67-3.04-22.68,3.03-.11.08-.21.19-.3.3-11.8,15.82-.77,33.12,14.29,33.12,6.15,0,11.62-2.89,15.15-7.37,1.17.86,2.42,1.33,3.73,1.33,2.65,0,5.07-1.91,6.97-5.09,2.35,7,7.65,11.89,13.8,11.89,1.93,0,3.77-.48,5.46-1.35,3.77,8.14,9.9,13.44,16.82,13.44.82,0,1.64-.08,2.44-.23,5.22,3.94,11.7,6.27,18.71,6.27,13.6,0,25.17-8.77,29.51-21.02,5.01,2.73,11.6,4.4,18.83,4.4,15.64,0,28.32-7.78,28.32-17.37s-12.68-17.37-28.32-17.37Z"/>
      <path class="cls-15" d="m2017.79,382.68c.77,6.74,6.49,7.59,13.76,6.71.33,1.29.71,2.46,1.17,3.45.94,2.02,6.79,3.27,15.28,4.02v-59.46c-14.07,6.37-32.22,27.73-30.21,45.29Z"/>
      <path class="cls-21" d="m2047.86,388.53c0-11.96-8.28-21.65-18.49-21.65-2.9,0-5.65.79-8.09,2.18-2.33-10.69-10.24-18.56-19.63-18.56-7.45,0-13.95,4.94-17.5,12.3-3.15-5.45-9.03-9.14-15.78-9.14-7.62,0-14.14,4.69-16.86,11.33-1.47-1.14-3.31-1.82-5.32-1.82-4.16,0-7.64,2.92-8.5,6.82-1.53-.65-3.2-1.01-4.97-1.01-7,0-12.68,5.68-12.68,12.68,0,0-3.7,16.37,5.28,28.52,8.98,12.15,54.4,15.32,76.58,15.32s45.95-12.32,45.95-33.63c0-.44-.03-.87-.09-1.29.05-.68.09-1.36.09-2.06Z"/>
      <path class="cls-27" d="m2019,381.5c-57.68,5.77-450.77-10.64-481.14-11.92-1.25-.05-2.49-.07-3.74-.05-29.38.37-394.19,5.07-510.12,10.21v93.76h1024v-93.85c-13.13.63-23.08,1.26-29,1.85Z"/>
      <path class="cls-8" d="m1974,403.5c-58,1-438,.94-438,.94,0,0-113-1.44-191-11.44s-144,0-223,0c-41.61,0-71.01,2.77-98,5.55v82.45h512v-.5h512v-82.45c-24.25,2.49-46.55,4.98-74,5.45Z"/>
      <path class="cls-27" d="m1898,421.5c-54.95,2.62-174.85-12.69-199-14-49.28-2.66-93.67,0-117.24,3.54-29.05,2.79-77.97,14.93-93.76,12.96-8-1-16.37-.68-26-1.5-39.22-3.33-98.18-11.96-127-17-24.4-4.27-92-8-140-6h.05c-.38,0-.74,0-1.05,0-73.24-.24-91,1-91,1-29.01,2.02-43.52,3.03-52,4-6.69.76-15.75,2.08-26.42,3.95-.19,0-.39,0-.58,0v10.47c30-5.79,50-4.42,50-4.42,35.37-.1,65.52,3.02,98,6,24.66,2.26,31.91,3.82,39,6,3.65,1.12,19.48,5.01,32,8,7.06,1.69,9.26,2.63,19-1,2.79-1.04,4.98-1.86,5-3,.02-1.25-2.54-4.54-66-12-51.22-6.02-77-6-89-7-.38-.03-27.03-1.12-27-2,.05-1.24,10.85-1.77,15-2,26.94-1.47,99.09-3.89,108-3,5.95.59,9.46.48,11.31.08,18.43.2,50.59-.9,79.69,2.92,1.92.25,3.74.49,5.46.72-17.69-.63-34.53.15-35.46,5.28-2,11,79,22,79,22,0,0-59.9-12.75-57-20,1.65-4.13,48.9,1.2,68.14,1.8,2.39.08,4.77.32,7.13.73.89.15,1.8.31,2.73.47,122,21,164.81,4.65,181,1.5,36-7,71-4,81,1.5,8.82,4.85-8,5-34,10s-61,3-61,3v7c94-7,103-11,123-15s-10.32-7.33-25-11c-16-4,31-6,92,3,29.94,4.42,151.01,12.78,172,12,31.51-1.17,71.87-6.76,100.02-11.22-22.79,5.74-47.27,13.11-70.02,22.22l15,2c56.18-23.93,71.01-23.53,73-21,.34.43-23.82,10.56-23,13,2.03,6.04,28.32,5.54,55,3.86v-5.88c-3.17.07-6.49.09-10,.02-5.52-.1-27.75,1.59-28-1-.16-1.65,16.64-8.63,22-10,5.59-1.43,10.93-2.61,16-3.58v-10.47c-33.69-.24-109.25,11.11-150,13.05Z"/>
      <path class="cls-27" d="m1151,432.5c.06-2.28-31.99-10.24-69-6-17.46,2-32.89,6.41-58,6.98v5.88c14.05-.89,28.21-2.1,39-2.86,58.38-4.1,87.94-1.82,88-4Z"/>
      <g>
        <g>
          <path class="cls-9" d="m1126.58,212.87s31.65,79.22,37.15,216.6h-12.84s-2.75-126.35-33.02-216.6h8.71Z"/>
          <path class="cls-13" d="m1120.42,214.74s-25.11-5.12-36.07,5.61l-19.24-3.21,15.6-16.58s31.15-7.44,41.55,11.9l-1.84,2.28Z"/>
          <g>
            <path class="cls-1" d="m1121.61,216.68s28.82,17.93,27.68,32.53l17.64,3.21,3.21-16.03s-21.39-22.56-48.1-24.85l-.42,5.15Z"/>
            <path class="cls-1" d="m1124.28,214.68s-16.69,23.82-19.08,42.54l-24.05,9.62-3.51-20.26s12.83-32.05,45.39-33.98l1.25,2.09Z"/>
            <path class="cls-1" d="m1119.62,214.91s30.25-17.83,53.71-4.98l16.83-7.21-16.83-16.03s-34.72-6.96-53.71,24.32v3.91Z"/>
            <path class="cls-1" d="m1120.42,214.74s-25.11-5.12-36.07,5.61l-19.24-3.21,15.6-16.58s31.15-7.44,41.55,11.9l-1.84,2.28Z"/>
            <path class="cls-1" d="m1123.15,212.3s.12-30.54-3.53-36.84l-10.42-7.21-6.41,12.02s17.12,26.9,15.23,35.27l5.13-3.24Z"/>
          </g>
          <g>
            <path class="cls-2" d="m1123.42,213.26c-5.4,2.56-35.03,18.07-42.32,53.35l.04.23,24.05-9.62c2.39-18.72,19.08-42.54,19.08-42.54l-.85-1.42Z"/>
            <path class="cls-2" d="m1121.51,213.38c-18.32-11.36-44.89-1.61-56.15,3.49l-.26.27,19.24,3.21c10.96-10.73,36.07-5.61,36.07-5.61l1.09-1.35Z"/>
            <path class="cls-2" d="m1120.74,213.82c-1.5-16.4-8.06-36.03-11.55-45.56l-6.4,12.01s17.12,26.9,15.23,35.27l2.72-1.72Z"/>
            <path class="cls-2" d="m1120.32,214.73c3.28-1.85,31.33-16.88,53.38-4.8l16.6-7.12c-36.85-19.62-62.43,3.56-69.99,11.92Z"/>
            <path class="cls-2" d="m1166.85,252.4c-1.85-14.9-44.85-49.9-45.85-35.9,7.64,5.32,29.17,21.29,28.28,32.71l17.57,3.19Z"/>
          </g>
          <path class="cls-22" d="m1163.73,429.48c-5.5-137.38-37.15-216.61-37.15-216.61h-1.94l6.36,33.63h3l5,36h4l3,41h4v39h5l-1,33h4l-2.68,33.98h8.41Z"/>
        </g>
        <g>
          <path class="cls-17" d="m1100.58,202.63c-2.26,2.23-4.66,6.52-3.15,10.7,2.12,5.88,10.04,6.27,10.7,6.3,4.55.16,11.08-2.04,12.59-7.55,1.04-3.81-.7-7.77-3.15-10.07-4.61-4.34-12.64-3.65-17,.63Z"/>
          <path class="cls-14" d="m1105,201.5c-.75.36-1.5.91-3,2-1.82,1.32-2.01,1.68-2,2,.03.96,1.84,1.7,3,2,3.01.77,4.11-.86,6,0,2.42,1.1,2.98,4.83,3,5,.31,2.27-.67,3.31,0,4,.97,1,4.37.17,6-2,2.1-2.8.48-6.81,0-8-.44-1.1-1.43-3.53-4-5-4.04-2.31-8.5-.24-9,0Z"/>
        </g>
        <g>
          <path class="cls-17" d="m1118.4,215.25c.26-4.4,4.53-6.92,7.58-7.58.9-.2,5.34-1.02,8.27,2.07,2.62,2.75,2.71,7.21.69,10.34-2.26,3.5-6.73,4.64-10.34,3.45-3.31-1.09-6.44-4.32-6.21-8.27Z"/>
          <path class="cls-14" d="m1125,209.5c-.42.08-4.78.95-5,3-.08.74.39,1.54,1,2,2.03,1.52,4.86-1.37,7,0,1.42.91,2.02,3.38,2,5-.01,1.16-.34,1.7,0,2,.73.64,3.69-.66,5-3,1.03-1.84.99-4.23,0-6-2.42-4.35-9.49-3.1-10-3Z"/>
        </g>
      </g>
      <g>
        <g>
          <path class="cls-6" d="m1491.35,222.3s-47.54,70.8-37.09,216.69l11.68.8s-15.37-128.26,32.09-217.49h-6.68Z"/>
          <path class="cls-3" d="m1494.98,226.32s-24.12,17.89-25.73,35.31l-15.61,4.22-1.84-23.25s17.09-17.35,41.2-20.04l1.98,3.75Z"/>
          <path class="cls-3" d="m1492.57,223.97s14.87,21.46,17.03,43.48l19.67,10.84,5.41-16.79s-11.58-37.72-40.97-39.99l-1.13,2.45Z"/>
          <path class="cls-3" d="m1495.46,227.06s-27.23-26.95-48.41-11.83l-15.13-5.87,9.43-14.06s35.67-18.44,54.11,24.05v7.71Z"/>
          <path class="cls-3" d="m1495.41,224.04s22.13-6.08,32.03,6.54l19.06-4.01-14.59-19.23s-28.12-8.75-37.51,14l1.02,2.7Z"/>
          <path class="cls-3" d="m1493.59,221.16s-.1-31.27,3.19-38.68l8.37-8.9,4.52,16.35s-13.97,26.9-14.08,33.58l-2-2.34Z"/>
          <path class="cls-19" d="m1494.39,222.3l-17.39,35.2,2,1-11,30h2l-9,33,3,1-7,40,4,1-4,43,4,1-1.72,31.04,6.67.46s-15.12-126.23,30.98-215.36l-2.53-1.33Z"/>
        </g>
        <g>
          <path class="cls-5" d="m1495.46,222.85v-1.18c-21.56-33.32-51.69-19.92-62.96-13.16l-.58.86,15.13,5.87c17.15-12.24,38.27,3.1,45.68,9.38l2.73-1.76Z"/>
          <path class="cls-5" d="m1495.59,223.5c.12-6.68,14.08-33.58,14.08-33.58l-4.52-16.35-.26.27c-2.39,9.56-8,32.83-10.09,48.74l.78.92Z"/>
          <path class="cls-5" d="m1494.81,222.45l.6,1.59s22.13-6.08,32.03,6.54l18.94-3.98c-26.5-25.47-45.78-10.11-51.57-4.15Z"/>
          <path class="cls-5" d="m1493.64,221.66l-.53,1.16.17,2.2c2.96,4.55,14.45,23.27,16.33,42.43l19.67,10.84.22-.69c-12.74-47.16-32.12-54.87-35.85-55.94Z"/>
          <path class="cls-5" d="m1494.98,226.32l-1.11-2.09c-30.12,12.87-38.2,30.82-40.27,41.13l.04.5,15.61-4.22c1.61-17.42,25.73-35.31,25.73-35.31Z"/>
        </g>
        <g>
          <path class="cls-17" d="m1479.58,212.63c-2.26,2.23-4.66,6.52-3.15,10.7,2.12,5.88,10.04,6.27,10.7,6.3,4.55.16,11.08-2.04,12.59-7.55,1.04-3.81-.7-7.77-3.15-10.07-4.61-4.34-12.64-3.65-17,.63Z"/>
          <path class="cls-14" d="m1484,211.5c-.75.36-1.5.91-3,2-1.82,1.32-2.01,1.68-2,2,.03.96,1.84,1.7,3,2,3.01.77,4.11-.86,6,0,2.42,1.1,2.98,4.83,3,5,.31,2.27-.67,3.31,0,4,.97,1,4.37.17,6-2,2.1-2.8.48-6.81,0-8-.44-1.1-1.43-3.53-4-5-4.04-2.31-8.5-.24-9,0Z"/>
        </g>
        <g>
          <path class="cls-17" d="m1497.4,225.25c.26-4.4,4.53-6.92,7.58-7.58.9-.2,5.34-1.02,8.27,2.07,2.62,2.75,2.71,7.21.69,10.34-2.26,3.5-6.73,4.64-10.34,3.45-3.31-1.09-6.44-4.32-6.21-8.27Z"/>
          <path class="cls-14" d="m1504,219.5c-.42.08-4.78.95-5,3-.08.74.39,1.54,1,2,2.03,1.52,4.86-1.37,7,0,1.42.91,2.02,3.38,2,5-.01,1.16-.34,1.7,0,2,.73.64,3.69-.66,5-3,1.03-1.84.99-4.23,0-6-2.42-4.35-9.49-3.1-10-3Z"/>
        </g>
      </g>
      <g>
        <g>
          <path class="cls-3" d="m1404.44,323.86s17.64,3.22,23.74,15.3l8.82.81v-9.66s-12.21-16.91-32.56-8.05v1.61Z"/>
          <g>
            <path class="cls-1" d="m1404.23,323.45s-13.61,9.72-15.16,33.87l-7.87,6.75-7.15-9.83s6.75-26.18,29.79-33.17l.39,2.37Z"/>
            <path class="cls-1" d="m1403.26,322.47s-31.17-4.99-39.24,9.1l-11.02-5.61,6.08-13.63s15.66-6.72,44.35,8.63l-.17,1.51Z"/>
            <path class="cls-1" d="m1402.32,320.61s4.4-20.79,13.83-26.74l10.87-1.19-2.3,15.17s-9.93-.5-20.27,14.44l-2.13-1.67Z"/>
            <path class="cls-1" d="m1403.08,323.06l1.52-2.23s-9.67-29.38-18.72-31.85l-11.39,2.29,3.63,9.98s13.67-.82,24.95,21.81Z"/>
            <path class="cls-1" d="m1437,330.31s-12.21-16.91-32.56-8.05v.36c16.77-1.41,27.49,10.53,32.17,17.32l.39.04v-9.66Z"/>
          </g>
          <path class="cls-6" d="m1400.38,322.26s13.57,41.87,14.25,112.74l8.81.8s-1.36-64.42-17.64-112.74l-5.42-.8Z"/>
          <path class="cls-3" d="m1381.25,364.03l7.82-6.71c1.4-21.83,12.65-31.87,14.8-33.6l.03-1.87s-25.11,16.62-22.66,42.18Z"/>
          <path class="cls-3" d="m1403.26,322.47l.03-.22c-25.61-12.28-43.19-2.07-50.27,3.68l-.02.04,11.02,5.61c8.07-14.08,39.24-9.1,39.24-9.1Z"/>
          <path class="cls-3" d="m1403.32,322.72c-7.06-22.87-22.54-29.57-28.8-31.38l3.61,9.92s13.62-.81,24.9,21.7l.11.03.18-.27Z"/>
          <path class="cls-3" d="m1403.42,321.47l1.03.81c10.33-14.94,20.27-14.44,20.27-14.44l2.26-14.92c-13.5,7.57-21.48,23.85-23.56,28.55Z"/>
          <path class="cls-19" d="m1423.77,437s-1.36-64.42-17.64-112.74l-1.77-.26,2.79,14.04h2.2l3.67,32.34h2.94l.73,33.26,3.67-1.85-1.46,34.76,4.85.44Z"/>
        </g>
        <g>
          <path class="cls-17" d="m1405.26,316.74c-2.94-3.09-7.37-2.27-8.27-2.07-3.06.67-7.33,3.19-7.58,7.58-.23,3.95,2.9,7.18,6.21,8.27,3.61,1.2,8.08.05,10.34-3.45,2.02-3.13,1.93-7.59-.69-10.34Zm-4.26,11.76c-.34-.3-.01-.84,0-2,.02-1.62-.58-4.09-2-5-2.14-1.37-4.97,1.52-7,0-.61-.46-1.08-1.26-1-2,.22-2.05,4.58-2.92,5-3,.51-.1,7.58-1.35,10,3,.99,1.77,1.03,4.16,0,6-1.31,2.34-4.27,3.64-5,3Z"/>
          <path class="cls-14" d="m1406,319.5c-2.42-4.35-9.49-3.1-10-3-.42.08-4.78.95-5,3-.08.74.39,1.54,1,2,2.03,1.52,4.86-1.37,7,0,1.42.91,2.02,3.38,2,5-.01,1.16-.34,1.7,0,2,.73.64,3.69-.66,5-3,1.03-1.84.99-4.23,0-6Z"/>
        </g>
      </g>
      <g>
        <g>
          <g>
            <path class="cls-12" d="m1191.77,316.54s11.43,7.38,12.83,25.65l11.22,7.21,8.82-8.02s-10.6-22.01-31.29-27.29l-1.57,2.44Z"/>
            <path class="cls-12" d="m1192.8,315.6s-14.79,4.63-20.27,13.77l-10.42.8,1.45-9.7s10.97-12.79,29.24-6.09v1.22Z"/>
            <path class="cls-12" d="m1193.86,315.15s27.99-3.77,35.24,6.88l9.9-4.24-5.46-10.31s-14.06-5.08-39.83,6.53l.15,1.14Z"/>
            <path class="cls-12" d="m1193.91,313.74s-2.49-18.35-10.96-22.85h-16.03l5.61,10.42s10.42,1.6,19.46,13.7l1.92-1.26Z"/>
            <path class="cls-12" d="m1194.02,315.6l-1.36-1.69s5.42-23.56,13.54-25.43h13.63l-1.6,13.63s-14.06-3.64-24.2,13.49Z"/>
          </g>
          <g>
            <path class="cls-3" d="m1192.8,315.6v-.5c-20.12.2-28.05,10.23-30.68,14.97v.1s10.41-.8,10.41-.8c5.48-9.14,20.27-13.77,20.27-13.77Z"/>
            <path class="cls-3" d="m1167.23,290.89h-.31l5.61,10.42s10.42,1.6,19.46,13.7l.64-.42c-6.14-15.36-18.07-21.39-25.4-23.69Z"/>
            <path class="cls-3" d="m1218.22,302.11l1.59-13.48c-17.51,1.94-25.95,26.51-25.95,26.51l.51-.12c10.11-16.46,23.85-12.92,23.85-12.92Z"/>
            <path class="cls-3" d="m1238.91,317.61c-11.62-8.37-39.71-4.29-45.17-3.39l.1.76.24.14c2.5-.31,28.13-3.22,35.03,6.91l9.9-4.24-.09-.17Z"/>
            <path class="cls-3" d="m1215.75,349.37c-2.21-25.65-17.45-32.9-22.81-34.66l-1.18,1.83s11.43,7.38,12.83,25.65l11.16,7.17Z"/>
          </g>
          <path class="cls-6" d="m1196.28,313.27s-17.56,43.49-18.4,117.08l-8.15.8s1.67-66.91,21.74-117.08l4.81-.8Z"/>
          <path class="cls-22" d="m1177.88,430.35c.77-67.37,15.54-109.5,18.04-116.15l-.45-.8-.98.16-9.49,23.94,1,1-6,25,1,1-5,26h2l-4,22,2,1-2.47,17.28,4.35-.43Z"/>
        </g>
        <g>
          <path class="cls-17" d="m1185.39,309.4c.2-3.32,3.41-5.22,5.72-5.72.68-.15,4.02-.77,6.24,1.56,1.97,2.08,2.05,5.44.52,7.8-1.71,2.64-5.07,3.5-7.8,2.6-2.49-.82-4.85-3.26-4.68-6.24Z"/>
          <path class="cls-14" d="m1190.37,305.07c-.31.06-3.6.72-3.77,2.26-.06.56.29,1.16.75,1.51,1.53,1.15,3.66-1.03,5.28,0,1.07.69,1.52,2.54,1.51,3.77-.01.87-.25,1.28,0,1.51.55.49,2.78-.5,3.77-2.26.77-1.39.74-3.19,0-4.52-1.82-3.28-7.16-2.33-7.54-2.26Z"/>
        </g>
      </g>
      <g>
        <g>
          <g>
            <path class="cls-1" d="m1740.51,253.19s-36.6,21.7-37.4,40.93l-21.64,4.01-.8-22.44s17.64-27.25,56.53-25.82l3.31,3.33Z"/>
            <path class="cls-1" d="m1741.21,254.04s-39.56-26.01-70.97-8.81l-23.25-11.32,17.2-14.26s51.59-12.71,77.02,29.16v5.23Z"/>
            <path class="cls-1" d="m1741.14,250.59s32.27-9.31,46.94,5.05l24.05-3.21-12.83-21.64s-45.75-9.15-59.67,16.73l1.51,3.07Z"/>
            <path class="cls-1" d="m1738.44,247.32s-1.73-38.56,3.14-46.99l17.64-8.82,3.06,20.27s-20.71,30.6-20.88,38.2l-2.96-2.67Z"/>
            <path class="cls-1" d="m1736.94,250.51s31.16,22.07,34.36,47.13l20.05,14.66,8.02-19.09s-17.17-42.9-60.76-45.49l-1.67,2.79Z"/>
          </g>
          <path class="cls-9" d="m1736.38,252.43s-37.04,63.61-43.48,173.93h14.48s3.22-101.46,38.65-173.93h-9.65Z"/>
          <path class="cls-2" d="m1740.24,253.35l-1.59-2.04-.08-.08c-46.28,7.62-57.1,46.89-57.1,46.89l21.64-4.01c.76-18.27,33.78-38.74,37.12-40.77Z"/>
          <path class="cls-2" d="m1648.14,233.27l-.76.63,23.25,11.32c26.13-14.31,57.91,1.29,67.84,6.94l1.52-2.13c-17.83-26.06-75.53-19.27-91.85-16.76Z"/>
          <path class="cls-2" d="m1741.41,249.98c.17-7.6,20.88-38.2,20.88-38.2l-3.06-20.27-.5.25c-5.68,6.67-13.5,22.08-18.01,57.61l.68.61Z"/>
          <path class="cls-2" d="m1740.18,248.64l.96,1.96s32.27-9.31,46.94,5.05l23.69-3.16c-29.26-24.16-63.07-8.47-71.59-3.85Z"/>
          <path class="cls-22" d="m1745.39,252.43l-7.01,6.42-9.62,16.83,2.4,3.21-21.64,55.31,5.61,3.21-15.23,44.09,5.61,1.6-9.62,39.28,10.81,3.98h.67s3.22-101.46,38.65-173.93h-.64Z"/>
          <path class="cls-2" d="m1737.16,250.15l.14.63c3.46,2.53,31,23.39,34.01,46.87l19.54,14.29c-7.11-54.35-45.17-62.31-52.74-63.36l-.94,1.57Z"/>
        </g>
        <g>
          <path class="cls-17" d="m1727.02,240.39c-2.06,2.42-4.07,6.9-2.2,10.94,2.63,5.67,10.55,5.37,11.21,5.33,4.55-.24,10.86-3,11.88-8.63.7-3.89-1.38-7.68-4.02-9.76-4.98-3.92-12.91-2.53-16.88,2.12Z"/>
          <path class="cls-14" d="m1731.33,238.88c-.71.42-1.41,1.03-2.81,2.26-1.69,1.48-1.86,1.85-1.82,2.17.12.95,1.98,1.54,3.16,1.73,3.06.5,4.02-1.21,5.98-.53,2.51.88,3.39,4.55,3.43,4.72.51,2.23-.38,3.36.35,3.98,1.06.91,4.37-.21,5.8-2.52,1.85-2.98-.12-6.83-.7-7.97-.54-1.05-1.73-3.39-4.42-4.63-4.23-1.95-8.48.5-8.97.79Z"/>
        </g>
        <g>
          <path class="cls-17" d="m1737.4,260.25c.26-4.4,4.53-6.92,7.58-7.58.9-.2,5.34-1.02,8.27,2.07,2.62,2.75,2.71,7.21.69,10.34-2.26,3.5-6.73,4.64-10.34,3.45-3.31-1.09-6.44-4.32-6.21-8.27Z"/>
          <path class="cls-14" d="m1744,254.5c-.42.08-4.78.95-5,3-.08.74.39,1.54,1,2,2.03,1.52,4.86-1.37,7,0,1.42.91,2.02,3.38,2,5-.01,1.16-.34,1.7,0,2,.73.64,3.69-.66,5-3,1.03-1.84.99-4.23,0-6-2.42-4.35-9.49-3.1-10-3Z"/>
        </g>
      </g>
      <g>
        <g>
          <path class="cls-6" d="m1827.86,332.26s16.11,41.87,16.91,112.74l10.46.8s-1.61-64.42-20.94-112.74l-6.43-.8Z"/>
          <path class="cls-12" d="m1832.43,333.45s-16.15,9.72-18,33.87l-9.35,6.75-8.48-9.83s8.01-26.18,35.36-33.17l.46,2.37Z"/>
          <path class="cls-3" d="m1832.68,333.86s20.94,3.22,28.18,15.3l10.47.81v-9.66s-14.49-16.91-38.65-8.05v1.61Z"/>
          <path class="cls-3" d="m1831.28,332.47s-37-4.99-46.58,9.1l-13.08-5.61,7.22-13.63s18.59-6.72,52.65,8.63l-.2,1.51Z"/>
          <path class="cls-3" d="m1830.16,330.61s5.22-20.79,16.42-26.74l12.9-1.19-2.73,15.17s-11.79-.5-24.06,14.44l-2.53-1.67Z"/>
          <path class="cls-3" d="m1831.07,333.06l1.8-2.23s-11.48-29.38-22.22-31.85l-13.52,2.29,4.31,9.98s16.22-.82,29.62,21.81Z"/>
          <path class="cls-3" d="m1805.15,374.03l9.29-6.71c1.67-21.83,15.02-31.87,17.57-33.6l.04-1.87s-29.81,16.62-26.9,42.18Z"/>
          <path class="cls-12" d="m1831.28,332.47l.03-.22c-30.4-12.28-51.27-2.07-59.67,3.68l-.02.04,13.08,5.61c9.58-14.08,46.58-9.1,46.58-9.1Z"/>
          <path class="cls-12" d="m1831.35,332.72c-8.38-22.87-26.75-29.57-34.19-31.38l4.28,9.92s16.17-.81,29.56,21.7l.13.03.21-.27Z"/>
          <path class="cls-12" d="m1831.47,331.47l1.23.81c12.27-14.94,24.06-14.44,24.06-14.44l2.68-14.92c-16.03,7.57-25.49,23.85-27.96,28.55Z"/>
          <path class="cls-12" d="m1871.33,340.31s-14.49-16.91-38.65-8.05v.36c19.91-1.41,32.64,10.53,38.19,17.32l.46.04v-9.66Z"/>
          <path class="cls-19" d="m1855.63,447s-1.61-64.42-20.94-112.74l-2.1-.26,3.31,14.04h2.62l4.36,32.34h3.49l.87,33.26,4.36-1.85-1.73,34.76,5.75.44Z"/>
        </g>
        <g>
          <path class="cls-17" d="m1826.39,331.93c.18-3.05,3.14-4.8,5.26-5.26.63-.14,3.7-.71,5.74,1.43,1.81,1.91,1.88,5,.48,7.17-1.57,2.43-4.67,3.22-7.17,2.39-2.29-.76-4.46-3-4.3-5.74Z"/>
          <path class="cls-14" d="m1830.97,327.94c-.29.06-3.31.66-3.47,2.08-.06.51.27,1.07.69,1.39,1.41,1.06,3.37-.95,4.85,0,.99.63,1.4,2.34,1.39,3.47,0,.8-.23,1.18,0,1.39.51.45,2.56-.46,3.47-2.08.71-1.27.68-2.93,0-4.16-1.68-3.01-6.58-2.15-6.93-2.08Z"/>
        </g>
      </g>
      <g>
        <g>
          <path class="cls-9" d="m1884.45,227.3s61.98,70.8,48.35,216.69l-15.23.8s20.04-128.26-41.83-217.49h8.71Z"/>
          <path class="cls-20" d="m1879.71,231.32s31.45,17.89,33.55,35.31l20.34,4.22,2.4-23.25s-22.28-17.35-53.71-20.04l-2.59,3.75Z"/>
          <path class="cls-20" d="m1882.85,228.97s-19.38,21.46-22.2,43.48l-25.64,10.84-7.05-16.79s15.09-37.72,53.41-39.99l1.47,2.45Z"/>
          <path class="cls-20" d="m1879.09,232.06s35.5-26.95,63.11-11.83l19.72-5.87-12.29-14.06s-46.49-18.44-70.54,24.05v7.71Z"/>
          <path class="cls-20" d="m1879.16,229.04s-28.85-6.08-41.75,6.54l-24.85-4.01,19.03-19.23s36.66-8.75,48.9,14l-1.33,2.7Z"/>
          <path class="cls-20" d="m1881.53,226.16s.13-31.27-4.16-38.68l-10.91-8.9-5.89,16.35s18.21,26.9,18.36,33.58l2.6-2.34Z"/>
          <path class="cls-13" d="m1879,227.65v4.41s35.5-26.95,63.11-11.83l19.13-5.69c-45.21-23.06-73.41,2.82-82.24,13.11Z"/>
          <path class="cls-13" d="m1933.63,270.54c-3.55-10.17-15.57-33.06-53.2-40.28l-.73,1.05s31.45,17.89,33.55,35.31l20.34,4.22.03-.31Z"/>
          <path class="cls-13" d="m1834.95,283.13l.07.16,25.64-10.84c2.42-18.93,17.07-37.43,21.14-42.26-38.95,9.1-45.87,38.38-46.84,52.94Z"/>
          <path class="cls-13" d="m1812.65,231.59l24.76,3.99c12.9-12.62,41.75-6.54,41.75-6.54l.61-1.24c-32.94-16.63-57.37-3.43-67.12,3.79Z"/>
          <path class="cls-13" d="m1879.01,228.43l2.52-2.27s.13-31.27-4.16-38.68l-10.56-8.61c3.18,11.31,9.67,35.11,12.19,49.57Z"/>
          <path class="cls-19" d="m1881.53,228.68l14.47,25.82,2-2,11,32h3l7,41h5l2,44h4l-2,38h4l-7.82,37.15,8.62-.45c12.78-136.87-40.97-207.65-47.67-215.88l-3.6.37Z"/>
        </g>
        <g>
          <path class="cls-17" d="m1870.4,228.25c.26-4.4,4.53-6.92,7.58-7.58.9-.2,5.34-1.02,8.27,2.07,2.62,2.75,2.71,7.21.69,10.34-2.26,3.5-6.73,4.64-10.34,3.45-3.31-1.09-6.44-4.32-6.21-8.27Z"/>
          <path class="cls-14" d="m1877,222.5c-.42.08-4.78.95-5,3-.08.74.39,1.54,1,2,2.03,1.52,4.86-1.37,7,0,1.42.91,2.02,3.38,2,5-.01,1.16-.34,1.7,0,2,.73.64,3.69-.66,5-3,1.03-1.84.99-4.23,0-6-2.42-4.35-9.49-3.1-10-3Z"/>
        </g>
      </g>
      <g>
        <path class="cls-24" d="m1893,434c-63.98-4.15-137-7-245-5-46.95.87-83,7.5-112,8,0,0-242.9-10.17-316-9.5-95.41.87-153.41,2.87-196,4.44v59.56h512v2.5h512v-59.56c-61.75,2.29-91.08,3.7-155-.44Z"/>
        <path class="cls-16" d="m1893,431.5c-63.98-4.15-137-7-245-5-34.35.64-78.39,4.89-99.55,7.13-8.58.91-17.22,1.23-25.84.96-126.99-3.87-231.97-7.74-302.6-7.09-95.41.87-153.41,2.87-196,4.44v18.91c46.48-.74,97.1-3.79,132-7.35,49-5,187-5,259,4,55.86,6.98,121,4.5,121,4.5,37.19-.45,179.58-3.9,235-6.5,64-3,168,3,224,5,16.11.58,34.22.65,53,.35v-18.91c-61.75,2.29-91.08,3.7-155-.44Z"/>
      </g>
      <path class="cls-16" d="m1899,456.5c21-6,15.88-11.46-51-7-135,9-206,18-172,11s98.67-15.5,26-13.5c-70.29,1.93-157.97,3.38-163.71,3.37-.2,0-81.21,5.27-133.29,9.13-54,4-119,7-50-3s-14-9-51-7-166.75,14-194,14-30-2,3-5,68.33-9.1,45-10c-26-1-114-1-114-1l-7.04,6.46c70.04-2.46,152.04-3.46,74.04,1.54-71.03,4.55-78,10-2,12,26.67.7,98-5,166-13s89-4,89-3c0,2.24-14.1,2.36-41,7-29,5-23.97,10.47,35,7,68-4,180-12,180-12,0,0,139-3,153,0,4.89,1.05-25,5-48,10s47.53,2.4,84,1c26-1,95-11,136-10s9,5-4,8,4,4,28,1c21.21-2.65,111.89-4.52,161-8.37v-6.29c-45.6,3.54-166.08,12.54-149,7.66Z"/>
      <g>
        <rect class="cls-23" x="1024" y="470.5" width="512" height="41.5"/>
        <rect class="cls-23" x="1536" y="470.5" width="512" height="41.5"/>
        <polygon class="cls-25" points="1792 470.5 1536 470.5 1280 470.5 1024 470.5 1024 480.5 1280 480.5 1536 480.5 1792 480.5 2048 480.5 2048 470.5 1792 470.5"/>
      </g>
      <g>
        <g>
          <polygon class="cls-7" points="1059.75 482.5 1047.62 512 1073.07 512 1074.5 482.5 1059.75 482.5"/>
          <polygon class="cls-7" points="1024 482.5 1024 512 1031.73 512 1041.25 482.5 1024 482.5"/>
          <polygon class="cls-7" points="1165.17 482.33 1161.2 512 1167.27 512 1173 480.5 1165.17 482.33"/>
          <polygon class="cls-7" points="1319.67 482.83 1312.06 512 1390.19 512 1394 482.5 1319.67 482.83"/>
          <g>
            <polygon class="cls-11" points="1082 482.5 1083.11 512 1149.57 512 1154 483 1082 482.5"/>
            <polygon class="cls-11" points="1183 481.5 1180.78 512 1197.3 512 1200 480.5 1183 481.5"/>
            <polygon class="cls-11" points="1214 480.5 1212.09 512 1232.65 512 1235.67 482.67 1214 480.5"/>
            <polygon class="cls-11" points="1256 482.5 1244.58 512 1297.52 512 1301 483.5 1256 482.5"/>
            <polygon class="cls-11" points="1417 482 1406 480.5 1406 512 1444.3 512 1437 482.5 1417 482"/>
          </g>
          <polygon class="cls-7" points="1453 480.5 1455.23 512 1475.77 512 1478 480.5 1453 480.5"/>
          <polygon class="cls-7" points="1490 481.5 1491.91 512 1528.23 512 1533 481.5 1490 481.5"/>
        </g>
        <g>
          <polygon class="cls-7" points="2048 482.5 2029.75 482.5 2034.51 512 2048 512 2048 482.5"/>
          <polygon class="cls-7" points="1962 481.5 1965.81 512 1985 512 1985 481.5 1962 481.5"/>
          <polygon class="cls-7" points="1788 483.5 1792.75 512 1833 512 1833 483.5 1788 483.5"/>
          <polygon class="cls-7" points="1847 482.5 1853.53 512 1877.65 512 1876.83 482.5 1847 482.5"/>
          <polygon class="cls-7" points="1629 484.5 1635.32 512 1652 512 1652 484.5 1629 484.5"/>
          <polygon class="cls-7" points="1562 481.5 1569.62 512 1576.67 512 1570 481.5 1562 481.5"/>
          <g>
            <polygon class="cls-11" points="1994 479.5 1995.48 512 2019.94 512 2016 479.5 1994 479.5"/>
            <polygon class="cls-11" points="1924 482.5 1924 512 1947.86 512 1943.33 481.5 1924 482.5"/>
            <polygon class="cls-11" points="1890 481.5 1891.59 512 1907.09 512 1909 481.5 1890 481.5"/>
            <polygon class="cls-11" points="1712 483.5 1720.55 512 1772 512 1772 484.44 1712 483.5"/>
            <polygon class="cls-11" points="1666.5 482.75 1671.97 512 1701.14 512 1699 483.5 1666.5 482.75"/>
            <polygon class="cls-11" points="1581 480.5 1588 512 1615 512 1615 480.5 1581 480.5"/>
            <polygon class="cls-11" points="1540 481.5 1540.16 512 1561.77 512 1557.17 482.5 1540 481.5"/>
          </g>
        </g>
        <path class="cls-7" d="m2026,479.5h-1002v14.28c25.66-.2,59.76-1.65,96-2.16,62.91-.89,61.3-3.84,99-3.23,80.64,1.3,90.7,14.85,165,12.93,20.95-.54,56.55.09,95-4.85,32.4-4.16,42.75-7.17,57-9,5.1-.65,10.71-1.16,18-1.51,81.29-3.9,107.73,17.48,190,9.69,19.19-1.82,25.27-4.83,44-6.46,54-4.69,134-1.69,238,4.31,6.31.27,13.72.34,22,.28v-14.28h-22Z"/>
      </g>
    </g>
  </g>
  <g id="layer_1" data-name="layer 1">
    <g>
      <rect class="cls-4" width="1024" height="512"/>
      <rect class="cls-10" width="1024" height="512"/>
      <path class="cls-26" d="m81.5,164.35c-.81-6.5-8.06-8.32-8.06-8.32-32.71-10.74-62.33-2.93-73.44.87v24.15c34.88-.04,60.6-.2,64.32-.42,12.89-.78,18.19-8.18,17.18-16.28Z"/>
      <path class="cls-26" d="m221.35,150.83s.23-3.16,7.26-4.77c7.03-1.61,22.44-.11,25.66,1.12,0,0,4.74-10.72,13.86-13.33,9.12-2.61,18.03-.22,18.98.83,0,0,1.42-14.63,17.26-19.61,15.84-4.98,32.22,9.75,31.78,19.74,0,0,9.25-5.6,21.02-.09,11.77,5.52,12.33,11.87,12.33,11.87,0,0,11.25-1.84,17.12,1.42,5.86,3.26,1.71,8.32-1.39,8.95-12.12,2.48-141.26,2.87-156.2,1.22-9-.99-7.69-7.34-7.69-7.34Z"/>
      <path class="cls-26" d="m1019.35,158.66s-3.25-8.13-14.63-12.19c-11.38-4.06-20.32,0-20.32,0,0,0-2.9-11.66-18.69-15.44-12.59-3.02-22.76,4.06-22.76,4.06-4.06-3.25-13.1-10.49-39.83-8.13-27.63,2.44-36.57,26.01-36.57,26.01,0,0-13-9.75-43.08-8.94-30.07.81-43.89,14.63-43.89,14.63-5.69,12.19,3.25,16.26,11.38,19.51,5.78,2.31,147.18,2.98,233.03,2.89v-24.15c-2.99,1.02-4.65,1.76-4.65,1.76Z"/>
      <path class="cls-26" d="m529.29,308.88s3.81-3.81,12.12-4.04c8.3-.22,11.89,2.47,11.89,2.47,0,0,2.47-6.51,10.1-7.18,7.38-.65,9.87,1.35,11,2.24,0,0,2.81-1.96,6.28-1.12,4.36,1.05,5.16,4.26,5.16,4.26,0,0,2.47-1.12,5.61,0s4.04,3.37,4.04,3.37c0,0,10.1-4.49,21.56-.73,0,0,2,.5,2.23,2.3.28,2.24-1.18,4.28-4.74,4.5-3.56.22-79.86.22-82.1-.68-2.24-.9-4.71-2.02-3.14-5.39Z"/>
      <path class="cls-18" d="m552.35,82.83s.23-3.16,7.26-4.77c7.03-1.61,22.44-.11,25.66,1.12,0,0,4.74-10.72,13.86-13.33,9.12-2.61,18.03-.22,18.98.83,0,0,1.42-14.63,17.26-19.61,15.84-4.98,32.22,9.75,31.78,19.74,0,0,9.25-5.6,21.02-.09,11.77,5.52,12.33,11.87,12.33,11.87,0,0,11.25-1.84,17.12,1.42,5.86,3.26,1.71,8.32-1.39,8.95-12.12,2.48-141.26,2.87-156.2,1.22-9-.99-7.69-7.34-7.69-7.34Z"/>
      <path class="cls-18" d="m200.21,276.71s.14-1.88,4.32-2.84,13.35-.06,15.26.66c0,0,2.82-6.38,8.25-7.93,5.43-1.55,10.72-.13,11.29.49,0,0,.84-8.7,10.27-11.66,9.42-2.96,19.17,5.8,18.91,11.74,0,0,5.5-3.33,12.51-.05,7,3.28,7.34,7.06,7.34,7.06,0,0,6.69-1.1,10.18.84,3.49,1.94,1.02,4.95-.83,5.32-7.21,1.47-84.03,1.71-92.92.72-5.35-.59-4.57-4.37-4.57-4.37Z"/>
      <path class="cls-15" d="m458.31,349.71c-4.04,0-7.76,1.06-10.81,2.85-2.52-10.37-11.85-18.06-22.99-18.06s-20.27,7.52-22.91,17.71c-2.58-1.06-5.4-1.65-8.36-1.65-9.73,0-17.98,6.33-20.87,15.09-2.84-.72-6.17-1.15-9.74-1.15-10.29,0-18.64,3.46-18.64,7.73s8.34,7.73,18.64,7.73c3.5,0,6.77-.41,9.56-1.1,2.72,9.05,11.11,15.65,21.04,15.65s17.97-6.32,20.86-15.08c3.14,1.54,6.67,2.41,10.4,2.41,7.34,0,13.9-3.34,18.24-8.59,3.32,4.15,9.04,6.9,15.56,6.9,10.27,0,18.59-6.81,18.59-15.21s-8.32-15.21-18.59-15.21Z"/>
      <path class="cls-15" d="m89.82,395.82s35.23-12.54,35.83-11.94c.32.32,5.36-1.17,9.63-2.95,5.51.07,9.07-.45,7.09-2.43-.35-.35-.73-.74-1.14-1.16.1-.23.1-.45-.05-.64-.12-.15-.51-.34-1.12-.55-6.28-6.37-17.77-17.73-29.04-20.35-4.94-1.15-9.53.22-12.86,2.71-2.48-6.14-8.48-10.47-15.5-10.47s-12.76,4.14-15.34,10.07c-2.81-3.55-7.46-5.89-12.73-5.89-2.72,0-5.27.62-7.49,1.71-2.94-6.97-9.84-11.86-17.89-11.86-1.5,0-2.95.19-4.35.51-4.52-4.38-10.67-7.08-17.45-7.08-2.21,0-4.74.68-7.41,1.89v59.46c29.23,2.55,89.82-1.03,89.82-1.03Z"/>
      <path class="cls-21" d="m608.68,353.14c-8,0-15.22,2.04-20.38,5.31-5.17-10.32-15.75-17.4-27.96-17.4-2.48,0-4.89.3-7.21.85-3.69-5.22-8.58-8.41-13.94-8.41-7.09,0-13.35,5.56-17.1,14.05-1.62-.78-3.36-1.21-5.18-1.21-3.92,0-7.5,1.98-10.18,5.23-1.24-9.54-5.51-16.56-10.59-16.56-4.64,0-8.6,5.87-10.2,14.16-6.34-3.21-14.67-3.04-22.68,3.03-.11.08-.21.19-.3.3-11.8,15.82-.77,33.12,14.29,33.12,6.15,0,11.62-2.89,15.15-7.37,1.17.86,2.42,1.33,3.73,1.33,2.65,0,5.07-1.91,6.97-5.09,2.35,7,7.65,11.89,13.8,11.89,1.93,0,3.77-.48,5.46-1.35,3.77,8.14,9.9,13.44,16.82,13.44.82,0,1.64-.08,2.44-.23,5.22,3.94,11.7,6.27,18.71,6.27,13.6,0,25.17-8.77,29.51-21.02,5.01,2.73,11.6,4.4,18.83,4.4,15.64,0,28.32-7.78,28.32-17.37s-12.68-17.37-28.32-17.37Z"/>
      <path class="cls-15" d="m993.79,382.68c.77,6.74,6.49,7.59,13.76,6.71.33,1.29.71,2.46,1.17,3.45.94,2.02,6.79,3.27,15.28,4.02v-59.46c-14.07,6.37-32.22,27.73-30.21,45.29Z"/>
      <path class="cls-21" d="m1023.86,388.53c0-11.96-8.28-21.65-18.49-21.65-2.9,0-5.65.79-8.09,2.18-2.33-10.69-10.24-18.56-19.63-18.56-7.45,0-13.95,4.94-17.5,12.3-3.15-5.45-9.03-9.14-15.78-9.14-7.62,0-14.14,4.69-16.86,11.33-1.47-1.14-3.31-1.82-5.32-1.82-4.16,0-7.64,2.92-8.5,6.82-1.53-.65-3.2-1.01-4.97-1.01-7,0-12.68,5.68-12.68,12.68,0,0-3.7,16.37,5.28,28.52,8.98,12.15,54.4,15.32,76.58,15.32s45.95-12.32,45.95-33.63c0-.44-.03-.87-.09-1.29.05-.68.09-1.36.09-2.06Z"/>
      <path class="cls-27" d="m995,381.5c-57.68,5.77-450.77-10.64-481.14-11.92-1.25-.05-2.49-.07-3.74-.05-29.38.37-394.19,5.07-510.12,10.21v93.76h1024v-93.85c-13.13.63-23.08,1.26-29,1.85Z"/>
      <path class="cls-8" d="m950,403.5c-58,1-438,.94-438,.94,0,0-113-1.44-191-11.44s-144,0-223,0c-41.61,0-71.01,2.77-98,5.55v82.45h512v-.5h512v-82.45c-24.25,2.49-46.55,4.98-74,5.45Z"/>
      <path class="cls-27" d="m874,421.5c-54.95,2.62-174.85-12.69-199-14-49.28-2.66-93.67,0-117.24,3.54-29.05,2.79-77.97,14.93-93.76,12.96-8-1-16.37-.68-26-1.5-39.22-3.33-98.18-11.96-127-17-24.4-4.27-92-8-140-6h.05c-.38,0-.74,0-1.05,0-73.24-.24-91,1-91,1-29.01,2.02-43.52,3.03-52,4-6.69.76-15.75,2.08-26.42,3.95-.19,0-.39,0-.58,0v10.47c30-5.79,50-4.42,50-4.42,35.37-.1,65.52,3.02,98,6,24.66,2.26,31.91,3.82,39,6,3.65,1.12,19.48,5.01,32,8,7.06,1.69,9.26,2.63,19-1,2.79-1.04,4.98-1.86,5-3,.02-1.25-2.54-4.54-66-12-51.22-6.02-77-6-89-7-.38-.03-27.03-1.12-27-2,.05-1.24,10.85-1.77,15-2,26.94-1.47,99.09-3.89,108-3,5.95.59,9.46.48,11.31.08,18.43.2,50.59-.9,79.69,2.92,1.92.25,3.74.49,5.46.72-17.69-.63-34.53.15-35.46,5.28-2,11,79,22,79,22,0,0-59.9-12.75-57-20,1.65-4.13,48.9,1.2,68.14,1.8,2.39.08,4.77.32,7.13.73.89.15,1.8.31,2.73.47,122,21,164.81,4.65,181,1.5,36-7,71-4,81,1.5,8.82,4.85-8,5-34,10s-61,3-61,3v7c94-7,103-11,123-15s-10.32-7.33-25-11c-16-4,31-6,92,3,29.94,4.42,151.01,12.78,172,12,31.51-1.17,71.87-6.76,100.02-11.22-22.79,5.74-47.27,13.11-70.02,22.22l15,2c56.18-23.93,71.01-23.53,73-21,.34.43-23.82,10.56-23,13,2.03,6.04,28.32,5.54,55,3.86v-5.88c-3.17.07-6.49.09-10,.02-5.52-.1-27.75,1.59-28-1-.16-1.65,16.64-8.63,22-10,5.59-1.43,10.93-2.61,16-3.58v-10.47c-33.69-.24-109.25,11.11-150,13.05Z"/>
      <path class="cls-27" d="m127,432.5c.06-2.28-31.99-10.24-69-6-17.46,2-32.89,6.41-58,6.98v5.88c14.05-.89,28.21-2.1,39-2.86,58.38-4.1,87.94-1.82,88-4Z"/>
      <g>
        <g>
          <path class="cls-9" d="m102.58,212.87s31.65,79.22,37.15,216.6h-12.84s-2.75-126.35-33.02-216.6h8.71Z"/>
          <path class="cls-13" d="m96.42,214.74s-25.11-5.12-36.07,5.61l-19.24-3.21,15.6-16.58s31.15-7.44,41.55,11.9l-1.84,2.28Z"/>
          <g>
            <path class="cls-1" d="m97.61,216.68s28.82,17.93,27.68,32.53l17.64,3.21,3.21-16.03s-21.39-22.56-48.1-24.85l-.42,5.15Z"/>
            <path class="cls-1" d="m100.28,214.68s-16.69,23.82-19.08,42.54l-24.05,9.62-3.51-20.26s12.83-32.05,45.39-33.98l1.25,2.09Z"/>
            <path class="cls-1" d="m95.62,214.91s30.25-17.83,53.71-4.98l16.83-7.21-16.83-16.03s-34.72-6.96-53.71,24.32v3.91Z"/>
            <path class="cls-1" d="m96.42,214.74s-25.11-5.12-36.07,5.61l-19.24-3.21,15.6-16.58s31.15-7.44,41.55,11.9l-1.84,2.28Z"/>
            <path class="cls-1" d="m99.15,212.3s.12-30.54-3.53-36.84l-10.42-7.21-6.41,12.02s17.12,26.9,15.23,35.27l5.13-3.24Z"/>
          </g>
          <g>
            <path class="cls-2" d="m99.42,213.26c-5.4,2.56-35.03,18.07-42.32,53.35l.04.23,24.05-9.62c2.39-18.72,19.08-42.54,19.08-42.54l-.85-1.42Z"/>
            <path class="cls-2" d="m97.51,213.38c-18.32-11.36-44.89-1.61-56.15,3.49l-.26.27,19.24,3.21c10.96-10.73,36.07-5.61,36.07-5.61l1.09-1.35Z"/>
            <path class="cls-2" d="m96.74,213.82c-1.5-16.4-8.06-36.03-11.55-45.56l-6.4,12.01s17.12,26.9,15.23,35.27l2.72-1.72Z"/>
            <path class="cls-2" d="m96.32,214.73c3.28-1.85,31.33-16.88,53.38-4.8l16.6-7.12c-36.85-19.62-62.43,3.56-69.99,11.92Z"/>
            <path class="cls-2" d="m142.85,252.4c-1.85-14.9-44.85-49.9-45.85-35.9,7.64,5.32,29.17,21.29,28.28,32.71l17.57,3.19Z"/>
          </g>
          <path class="cls-22" d="m139.73,429.48c-5.5-137.38-37.15-216.61-37.15-216.61h-1.94l6.36,33.63h3l5,36h4l3,41h4v39h5l-1,33h4l-2.68,33.98h8.41Z"/>
        </g>
        <g>
          <path class="cls-17" d="m76.58,202.63c-2.26,2.23-4.66,6.52-3.15,10.7,2.12,5.88,10.04,6.27,10.7,6.3,4.55.16,11.08-2.04,12.59-7.55,1.04-3.81-.7-7.77-3.15-10.07-4.61-4.34-12.64-3.65-17,.63Z"/>
          <path class="cls-14" d="m81,201.5c-.75.36-1.5.91-3,2-1.82,1.32-2.01,1.68-2,2,.03.96,1.84,1.7,3,2,3.01.77,4.11-.86,6,0,2.42,1.1,2.98,4.83,3,5,.31,2.27-.67,3.31,0,4,.97,1,4.37.17,6-2,2.1-2.8.48-6.81,0-8-.44-1.1-1.43-3.53-4-5-4.04-2.31-8.5-.24-9,0Z"/>
        </g>
        <g>
          <path class="cls-17" d="m94.4,215.25c.26-4.4,4.53-6.92,7.58-7.58.9-.2,5.34-1.02,8.27,2.07,2.62,2.75,2.71,7.21.69,10.34-2.26,3.5-6.73,4.64-10.34,3.45-3.31-1.09-6.44-4.32-6.21-8.27Z"/>
          <path class="cls-14" d="m101,209.5c-.42.08-4.78.95-5,3-.08.74.39,1.54,1,2,2.03,1.52,4.86-1.37,7,0,1.43.91,2.02,3.38,2,5-.01,1.16-.34,1.7,0,2,.73.64,3.69-.66,5-3,1.03-1.84.99-4.23,0-6-2.42-4.35-9.49-3.1-10-3Z"/>
        </g>
      </g>
      <g>
        <g>
          <path class="cls-6" d="m467.35,222.3s-47.54,70.8-37.09,216.69l11.68.8s-15.37-128.26,32.09-217.49h-6.68Z"/>
          <path class="cls-3" d="m470.98,226.32s-24.12,17.89-25.73,35.31l-15.61,4.22-1.84-23.25s17.09-17.35,41.2-20.04l1.98,3.75Z"/>
          <path class="cls-3" d="m468.57,223.97s14.87,21.46,17.03,43.48l19.67,10.84,5.41-16.79s-11.58-37.72-40.97-39.99l-1.13,2.45Z"/>
          <path class="cls-3" d="m471.46,227.06s-27.23-26.95-48.41-11.83l-15.13-5.87,9.43-14.06s35.67-18.44,54.11,24.05v7.71Z"/>
          <path class="cls-3" d="m471.41,224.04s22.13-6.08,32.03,6.54l19.06-4.01-14.59-19.23s-28.12-8.75-37.51,14l1.02,2.7Z"/>
          <path class="cls-3" d="m469.59,221.16s-.1-31.27,3.19-38.68l8.37-8.9,4.52,16.35s-13.97,26.9-14.08,33.58l-2-2.34Z"/>
          <path class="cls-19" d="m470.39,222.3l-17.39,35.2,2,1-11,30h2l-9,33,3,1-7,40,4,1-4,43,4,1-1.72,31.04,6.67.46s-15.12-126.23,30.98-215.36l-2.53-1.33Z"/>
        </g>
        <g>
          <path class="cls-5" d="m471.46,222.85v-1.18c-21.56-33.32-51.69-19.92-62.96-13.16l-.58.86,15.13,5.87c17.15-12.24,38.27,3.1,45.68,9.38l2.73-1.76Z"/>
          <path class="cls-5" d="m471.59,223.5c.12-6.68,14.08-33.58,14.08-33.58l-4.52-16.35-.26.27c-2.39,9.56-8,32.83-10.09,48.74l.78.92Z"/>
          <path class="cls-5" d="m470.81,222.45l.6,1.59s22.13-6.08,32.03,6.54l18.94-3.98c-26.5-25.47-45.78-10.11-51.57-4.15Z"/>
          <path class="cls-5" d="m469.64,221.66l-.53,1.16.17,2.2c2.96,4.55,14.45,23.27,16.33,42.43l19.67,10.84.22-.69c-12.74-47.16-32.12-54.87-35.85-55.94Z"/>
          <path class="cls-5" d="m470.98,226.32l-1.11-2.09c-30.12,12.87-38.2,30.82-40.27,41.13l.04.5,15.61-4.22c1.61-17.42,25.73-35.31,25.73-35.31Z"/>
        </g>
        <g>
          <path class="cls-17" d="m455.58,212.63c-2.26,2.23-4.66,6.52-3.15,10.7,2.12,5.88,10.04,6.27,10.7,6.3,4.55.16,11.08-2.04,12.59-7.55,1.04-3.81-.7-7.77-3.15-10.07-4.61-4.34-12.64-3.65-17,.63Z"/>
          <path class="cls-14" d="m460,211.5c-.75.36-1.5.91-3,2-1.82,1.32-2.01,1.68-2,2,.03.96,1.84,1.7,3,2,3.01.77,4.11-.86,6,0,2.42,1.1,2.98,4.83,3,5,.31,2.27-.67,3.31,0,4,.97,1,4.37.17,6-2,2.1-2.8.48-6.81,0-8-.44-1.1-1.43-3.53-4-5-4.04-2.31-8.5-.24-9,0Z"/>
        </g>
        <g>
          <path class="cls-17" d="m473.4,225.25c.26-4.4,4.53-6.92,7.58-7.58.9-.2,5.34-1.02,8.27,2.07,2.62,2.75,2.71,7.21.69,10.34-2.26,3.5-6.73,4.64-10.34,3.45-3.31-1.09-6.44-4.32-6.21-8.27Z"/>
          <path class="cls-14" d="m480,219.5c-.42.08-4.78.95-5,3-.08.74.39,1.54,1,2,2.03,1.52,4.86-1.37,7,0,1.43.91,2.02,3.38,2,5-.01,1.16-.34,1.7,0,2,.73.64,3.69-.66,5-3,1.03-1.84.99-4.23,0-6-2.42-4.35-9.49-3.1-10-3Z"/>
        </g>
      </g>
      <g>
        <g>
          <path class="cls-3" d="m380.44,323.86s17.64,3.22,23.74,15.3l8.82.81v-9.66s-12.21-16.91-32.56-8.05v1.61Z"/>
          <g>
            <path class="cls-1" d="m380.23,323.45s-13.61,9.72-15.16,33.87l-7.87,6.75-7.15-9.83s6.75-26.18,29.79-33.17l.39,2.37Z"/>
            <path class="cls-1" d="m379.26,322.47s-31.17-4.99-39.24,9.1l-11.02-5.61,6.08-13.63s15.66-6.72,44.35,8.63l-.17,1.51Z"/>
            <path class="cls-1" d="m378.32,320.61s4.4-20.79,13.83-26.74l10.87-1.19-2.3,15.17s-9.93-.5-20.27,14.44l-2.13-1.67Z"/>
            <path class="cls-1" d="m379.08,323.06l1.52-2.23s-9.67-29.38-18.72-31.85l-11.39,2.29,3.63,9.98s13.67-.82,24.95,21.81Z"/>
            <path class="cls-1" d="m413,330.31s-12.21-16.91-32.56-8.05v.36c16.77-1.41,27.49,10.53,32.17,17.32l.39.04v-9.66Z"/>
          </g>
          <path class="cls-6" d="m376.38,322.26s13.57,41.87,14.25,112.74l8.81.8s-1.36-64.42-17.64-112.74l-5.42-.8Z"/>
          <path class="cls-3" d="m357.25,364.03l7.82-6.71c1.4-21.83,12.65-31.87,14.8-33.6l.03-1.87s-25.11,16.62-22.66,42.18Z"/>
          <path class="cls-3" d="m379.26,322.47l.03-.22c-25.61-12.28-43.19-2.07-50.27,3.68l-.02.04,11.02,5.61c8.07-14.08,39.24-9.1,39.24-9.1Z"/>
          <path class="cls-3" d="m379.32,322.72c-7.06-22.87-22.54-29.57-28.8-31.38l3.61,9.92s13.62-.81,24.9,21.7l.11.03.18-.27Z"/>
          <path class="cls-3" d="m379.42,321.47l1.03.81c10.33-14.94,20.27-14.44,20.27-14.44l2.26-14.92c-13.5,7.57-21.48,23.85-23.56,28.55Z"/>
          <path class="cls-19" d="m399.77,437s-1.36-64.42-17.64-112.74l-1.77-.26,2.79,14.04h2.2l3.67,32.34h2.94l.73,33.26,3.67-1.85-1.46,34.76,4.85.44Z"/>
        </g>
        <g>
          <path class="cls-17" d="m381.26,316.74c-2.94-3.09-7.37-2.27-8.27-2.07-3.06.67-7.33,3.19-7.58,7.58-.23,3.95,2.9,7.18,6.21,8.27,3.61,1.2,8.08.05,10.34-3.45,2.02-3.13,1.93-7.59-.69-10.34Zm-4.26,11.76c-.34-.3-.01-.84,0-2,.02-1.62-.57-4.09-2-5-2.14-1.37-4.97,1.52-7,0-.61-.46-1.08-1.26-1-2,.22-2.05,4.58-2.92,5-3,.51-.1,7.58-1.35,10,3,.99,1.77,1.03,4.16,0,6-1.31,2.34-4.27,3.64-5,3Z"/>
          <path class="cls-14" d="m382,319.5c-2.42-4.35-9.49-3.1-10-3-.42.08-4.78.95-5,3-.08.74.39,1.54,1,2,2.03,1.52,4.86-1.37,7,0,1.43.91,2.02,3.38,2,5-.01,1.16-.34,1.7,0,2,.73.64,3.69-.66,5-3,1.03-1.84.99-4.23,0-6Z"/>
        </g>
      </g>
      <g>
        <g>
          <g>
            <path class="cls-12" d="m167.77,316.54s11.43,7.38,12.83,25.65l11.22,7.21,8.82-8.02s-10.6-22.01-31.29-27.29l-1.57,2.44Z"/>
            <path class="cls-12" d="m168.8,315.6s-14.79,4.63-20.27,13.77l-10.42.8,1.45-9.7s10.97-12.79,29.24-6.09v1.22Z"/>
            <path class="cls-12" d="m169.86,315.15s27.99-3.77,35.24,6.88l9.9-4.24-5.46-10.31s-14.06-5.08-39.83,6.53l.15,1.14Z"/>
            <path class="cls-12" d="m169.91,313.74s-2.49-18.35-10.96-22.85h-16.03l5.61,10.42s10.42,1.6,19.46,13.7l1.92-1.26Z"/>
            <path class="cls-12" d="m170.02,315.6l-1.36-1.69s5.42-23.56,13.54-25.43h13.63l-1.6,13.63s-14.06-3.64-24.2,13.49Z"/>
          </g>
          <g>
            <path class="cls-3" d="m168.8,315.6v-.5c-20.12.2-28.05,10.23-30.68,14.97v.1s10.41-.8,10.41-.8c5.48-9.14,20.27-13.77,20.27-13.77Z"/>
            <path class="cls-3" d="m143.23,290.89h-.31l5.61,10.42s10.42,1.6,19.46,13.7l.64-.42c-6.14-15.36-18.07-21.39-25.4-23.69Z"/>
            <path class="cls-3" d="m194.22,302.11l1.59-13.48c-17.51,1.94-25.95,26.51-25.95,26.51l.51-.12c10.11-16.46,23.85-12.92,23.85-12.92Z"/>
            <path class="cls-3" d="m214.91,317.61c-11.62-8.37-39.71-4.29-45.17-3.39l.1.76.24.14c2.5-.31,28.13-3.22,35.03,6.91l9.9-4.24-.09-.17Z"/>
            <path class="cls-3" d="m191.75,349.37c-2.21-25.65-17.45-32.9-22.81-34.66l-1.18,1.83s11.43,7.38,12.83,25.65l11.16,7.17Z"/>
          </g>
          <path class="cls-6" d="m172.28,313.27s-17.56,43.49-18.4,117.08l-8.15.8s1.67-66.91,21.74-117.08l4.81-.8Z"/>
          <path class="cls-22" d="m153.88,430.35c.77-67.37,15.54-109.5,18.04-116.15l-.45-.8-.98.16-9.49,23.94,1,1-6,25,1,1-5,26h2l-4,22,2,1-2.47,17.28,4.35-.43Z"/>
        </g>
        <g>
          <path class="cls-17" d="m161.39,309.4c.2-3.32,3.41-5.22,5.72-5.72.68-.15,4.02-.77,6.24,1.56,1.97,2.08,2.05,5.44.52,7.8-1.71,2.64-5.07,3.5-7.8,2.6-2.49-.82-4.85-3.26-4.68-6.24Z"/>
          <path class="cls-14" d="m166.37,305.07c-.31.06-3.6.72-3.77,2.26-.06.56.29,1.16.75,1.51,1.53,1.15,3.66-1.03,5.28,0,1.07.69,1.52,2.54,1.51,3.77-.01.87-.25,1.28,0,1.51.55.49,2.78-.5,3.77-2.26.77-1.39.74-3.19,0-4.52-1.82-3.28-7.16-2.33-7.54-2.26Z"/>
        </g>
      </g>
      <g>
        <g>
          <g>
            <path class="cls-1" d="m716.51,253.19s-36.6,21.7-37.4,40.93l-21.64,4.01-.8-22.44s17.64-27.25,56.53-25.82l3.31,3.33Z"/>
            <path class="cls-1" d="m717.21,254.04s-39.56-26.01-70.97-8.81l-23.25-11.32,17.2-14.26s51.59-12.71,77.02,29.16v5.23Z"/>
            <path class="cls-1" d="m717.14,250.59s32.27-9.31,46.94,5.05l24.05-3.21-12.83-21.64s-45.75-9.15-59.67,16.73l1.51,3.07Z"/>
            <path class="cls-1" d="m714.44,247.32s-1.73-38.56,3.14-46.99l17.64-8.82,3.06,20.27s-20.71,30.6-20.88,38.2l-2.96-2.67Z"/>
            <path class="cls-1" d="m712.94,250.51s31.16,22.07,34.36,47.13l20.05,14.66,8.02-19.09s-17.17-42.9-60.76-45.49l-1.67,2.79Z"/>
          </g>
          <path class="cls-9" d="m712.38,252.43s-37.04,63.61-43.48,173.93h14.48s3.22-101.46,38.65-173.93h-9.65Z"/>
          <path class="cls-2" d="m716.24,253.35l-1.59-2.04-.08-.08c-46.28,7.62-57.1,46.89-57.1,46.89l21.64-4.01c.76-18.27,33.78-38.74,37.12-40.77Z"/>
          <path class="cls-2" d="m624.14,233.27l-.76.63,23.25,11.32c26.13-14.31,57.91,1.29,67.84,6.94l1.52-2.13c-17.83-26.06-75.53-19.27-91.85-16.76Z"/>
          <path class="cls-2" d="m717.41,249.98c.17-7.6,20.88-38.2,20.88-38.2l-3.06-20.27-.5.25c-5.68,6.67-13.5,22.08-18.01,57.61l.68.61Z"/>
          <path class="cls-2" d="m716.18,248.64l.96,1.96s32.27-9.31,46.94,5.05l23.69-3.16c-29.26-24.16-63.07-8.47-71.59-3.85Z"/>
          <path class="cls-22" d="m721.39,252.43l-7.01,6.42-9.62,16.83,2.4,3.21-21.64,55.31,5.61,3.21-15.23,44.09,5.61,1.6-9.62,39.28,10.81,3.98h.67s3.22-101.46,38.65-173.93h-.64Z"/>
          <path class="cls-2" d="m713.16,250.15l.14.63c3.46,2.53,31,23.39,34.01,46.87l19.54,14.29c-7.11-54.35-45.17-62.31-52.74-63.36l-.94,1.57Z"/>
        </g>
        <g>
          <path class="cls-17" d="m703.02,240.39c-2.06,2.42-4.07,6.9-2.2,10.94,2.63,5.67,10.55,5.37,11.21,5.33,4.55-.24,10.86-3,11.88-8.63.7-3.89-1.38-7.68-4.02-9.76-4.98-3.92-12.91-2.53-16.88,2.12Z"/>
          <path class="cls-14" d="m707.33,238.88c-.71.42-1.41,1.03-2.81,2.26-1.69,1.48-1.86,1.85-1.82,2.17.12.95,1.98,1.54,3.16,1.73,3.06.5,4.02-1.21,5.98-.53,2.51.88,3.39,4.55,3.43,4.72.51,2.23-.38,3.36.35,3.98,1.06.91,4.37-.21,5.8-2.52,1.85-2.98-.12-6.83-.7-7.97-.54-1.05-1.73-3.39-4.42-4.63-4.23-1.95-8.48.5-8.97.79Z"/>
        </g>
        <g>
          <path class="cls-17" d="m713.4,260.25c.26-4.4,4.53-6.92,7.58-7.58.9-.2,5.34-1.02,8.27,2.07,2.62,2.75,2.71,7.21.69,10.34-2.26,3.5-6.73,4.64-10.34,3.45-3.31-1.09-6.44-4.32-6.21-8.27Z"/>
          <path class="cls-14" d="m720,254.5c-.42.08-4.78.95-5,3-.08.74.39,1.54,1,2,2.03,1.52,4.86-1.37,7,0,1.42.91,2.02,3.38,2,5-.01,1.16-.34,1.7,0,2,.73.64,3.69-.66,5-3,1.03-1.84.99-4.23,0-6-2.42-4.35-9.49-3.1-10-3Z"/>
        </g>
      </g>
      <g>
        <g>
          <path class="cls-6" d="m803.86,332.26s16.11,41.87,16.91,112.74l10.46.8s-1.61-64.42-20.94-112.74l-6.43-.8Z"/>
          <path class="cls-12" d="m808.43,333.45s-16.15,9.72-18,33.87l-9.35,6.75-8.48-9.83s8.01-26.18,35.36-33.17l.46,2.37Z"/>
          <path class="cls-3" d="m808.68,333.86s20.94,3.22,28.18,15.3l10.47.81v-9.66s-14.49-16.91-38.65-8.05v1.61Z"/>
          <path class="cls-3" d="m807.28,332.47s-37-4.99-46.58,9.1l-13.08-5.61,7.22-13.63s18.59-6.72,52.65,8.63l-.2,1.51Z"/>
          <path class="cls-3" d="m806.16,330.61s5.22-20.79,16.42-26.74l12.9-1.19-2.73,15.17s-11.79-.5-24.06,14.44l-2.53-1.67Z"/>
          <path class="cls-3" d="m807.07,333.06l1.8-2.23s-11.48-29.38-22.22-31.85l-13.52,2.29,4.31,9.98s16.22-.82,29.62,21.81Z"/>
          <path class="cls-3" d="m781.15,374.03l9.29-6.71c1.67-21.83,15.02-31.87,17.57-33.6l.04-1.87s-29.81,16.62-26.9,42.18Z"/>
          <path class="cls-12" d="m807.28,332.47l.03-.22c-30.4-12.28-51.27-2.07-59.67,3.68l-.02.04,13.08,5.61c9.58-14.08,46.58-9.1,46.58-9.1Z"/>
          <path class="cls-12" d="m807.35,332.72c-8.38-22.87-26.75-29.57-34.19-31.38l4.28,9.92s16.17-.81,29.56,21.7l.13.03.21-.27Z"/>
          <path class="cls-12" d="m807.47,331.47l1.23.81c12.27-14.94,24.06-14.44,24.06-14.44l2.68-14.92c-16.03,7.57-25.49,23.85-27.96,28.55Z"/>
          <path class="cls-12" d="m847.33,340.31s-14.49-16.91-38.65-8.05v.36c19.91-1.41,32.64,10.53,38.19,17.32l.46.04v-9.66Z"/>
          <path class="cls-19" d="m831.63,447s-1.61-64.42-20.94-112.74l-2.1-.26,3.31,14.04h2.62l4.36,32.34h3.49l.87,33.26,4.36-1.85-1.73,34.76,5.75.44Z"/>
        </g>
        <g>
          <path class="cls-17" d="m802.39,331.93c.18-3.05,3.14-4.8,5.26-5.26.63-.14,3.7-.71,5.74,1.43,1.81,1.91,1.88,5,.48,7.17-1.57,2.43-4.67,3.22-7.17,2.39-2.29-.76-4.46-3-4.3-5.74Z"/>
          <path class="cls-14" d="m806.97,327.94c-.29.06-3.31.66-3.47,2.08-.06.51.27,1.07.69,1.39,1.41,1.06,3.37-.95,4.85,0,.99.63,1.4,2.34,1.39,3.47,0,.8-.23,1.18,0,1.39.51.45,2.56-.46,3.47-2.08.71-1.27.68-2.93,0-4.16-1.68-3.01-6.58-2.15-6.93-2.08Z"/>
        </g>
      </g>
      <g>
        <g>
          <path class="cls-9" d="m860.45,227.3s61.98,70.8,48.35,216.69l-15.23.8s20.04-128.26-41.83-217.49h8.71Z"/>
          <path class="cls-20" d="m855.71,231.32s31.45,17.89,33.55,35.31l20.34,4.22,2.4-23.25s-22.28-17.35-53.71-20.04l-2.59,3.75Z"/>
          <path class="cls-20" d="m858.85,228.97s-19.38,21.46-22.2,43.48l-25.64,10.84-7.05-16.79s15.09-37.72,53.41-39.99l1.47,2.45Z"/>
          <path class="cls-20" d="m855.09,232.06s35.5-26.95,63.11-11.83l19.72-5.87-12.29-14.06s-46.49-18.44-70.54,24.05v7.71Z"/>
          <path class="cls-20" d="m855.16,229.04s-28.85-6.08-41.75,6.54l-24.85-4.01,19.03-19.23s36.66-8.75,48.9,14l-1.33,2.7Z"/>
          <path class="cls-20" d="m857.53,226.16s.13-31.27-4.16-38.68l-10.91-8.9-5.89,16.35s18.21,26.9,18.36,33.58l2.6-2.34Z"/>
          <path class="cls-13" d="m855,227.65v4.41s35.5-26.95,63.11-11.83l19.13-5.69c-45.21-23.06-73.41,2.82-82.24,13.11Z"/>
          <path class="cls-13" d="m909.63,270.54c-3.55-10.17-15.57-33.06-53.2-40.28l-.73,1.05s31.45,17.89,33.55,35.31l20.34,4.22.03-.31Z"/>
          <path class="cls-13" d="m810.95,283.13l.07.16,25.64-10.84c2.42-18.93,17.07-37.43,21.14-42.26-38.95,9.1-45.87,38.38-46.84,52.94Z"/>
          <path class="cls-13" d="m788.65,231.59l24.76,3.99c12.9-12.62,41.75-6.54,41.75-6.54l.61-1.24c-32.94-16.63-57.37-3.43-67.12,3.79Z"/>
          <path class="cls-13" d="m855.01,228.43l2.52-2.27s.13-31.27-4.16-38.68l-10.56-8.61c3.18,11.31,9.67,35.11,12.19,49.57Z"/>
          <path class="cls-19" d="m857.53,228.68l14.47,25.82,2-2,11,32h3l7,41h5l2,44h4l-2,38h4l-7.82,37.15,8.62-.45c12.78-136.87-40.97-207.65-47.67-215.88l-3.6.37Z"/>
        </g>
        <g>
          <path class="cls-17" d="m846.4,228.25c.26-4.4,4.53-6.92,7.58-7.58.9-.2,5.34-1.02,8.27,2.07,2.62,2.75,2.71,7.21.69,10.34-2.26,3.5-6.73,4.64-10.34,3.45-3.31-1.09-6.44-4.32-6.21-8.27Z"/>
          <path class="cls-14" d="m853,222.5c-.42.08-4.78.95-5,3-.08.74.39,1.54,1,2,2.03,1.52,4.86-1.37,7,0,1.42.91,2.02,3.38,2,5-.01,1.16-.34,1.7,0,2,.73.64,3.69-.66,5-3,1.03-1.84.99-4.23,0-6-2.42-4.35-9.49-3.1-10-3Z"/>
        </g>
      </g>
      <g>
        <path class="cls-24" d="m869,434c-63.98-4.15-137-7-245-5-46.95.87-83,7.5-112,8,0,0-242.9-10.17-316-9.5-95.41.87-153.41,2.87-196,4.44v59.56h512v2.5h512v-59.56c-61.75,2.29-91.08,3.7-155-.44Z"/>
        <path class="cls-16" d="m869,431.5c-63.98-4.15-137-7-245-5-34.35.64-78.39,4.89-99.55,7.13-8.58.91-17.22,1.23-25.84.96-126.99-3.87-231.97-7.74-302.6-7.09-95.41.87-153.41,2.87-196,4.44v18.91c46.48-.74,97.1-3.79,132-7.35,49-5,187-5,259,4,55.86,6.98,121,4.5,121,4.5,37.19-.45,179.58-3.9,235-6.5,64-3,168,3,224,5,16.11.58,34.22.65,53,.35v-18.91c-61.75,2.29-91.08,3.7-155-.44Z"/>
      </g>
      <path class="cls-16" d="m875,456.5c21-6,15.88-11.46-51-7-135,9-206,18-172,11s98.67-15.5,26-13.5c-70.29,1.93-157.97,3.38-163.71,3.37-.2,0-81.21,5.27-133.29,9.13-54,4-119,7-50-3s-14-9-51-7-166.75,14-194,14-30-2,3-5,68.33-9.1,45-10c-26-1-114-1-114-1l-7.04,6.46c70.04-2.46,152.04-3.46,74.04,1.54-71.03,4.55-78,10-2,12,26.67.7,98-5,166-13s89-4,89-3c0,2.24-14.1,2.36-41,7-29,5-23.97,10.47,35,7,68-4,180-12,180-12,0,0,139-3,153,0,4.89,1.05-25,5-48,10s47.53,2.4,84,1c26-1,95-11,136-10s9,5-4,8,4,4,28,1c21.21-2.65,111.89-4.52,161-8.37v-6.29c-45.6,3.54-166.08,12.54-149,7.66Z"/>
      <g>
        <rect class="cls-23" y="470.5" width="512" height="41.5"/>
        <rect class="cls-23" x="512" y="470.5" width="512" height="41.5"/>
        <polygon class="cls-25" points="768 470.5 512 470.5 256 470.5 0 470.5 0 480.5 256 480.5 512 480.5 768 480.5 1024 480.5 1024 470.5 768 470.5"/>
      </g>
      <g>
        <g>
          <polygon class="cls-7" points="35.75 482.5 23.62 512 49.07 512 50.5 482.5 35.75 482.5"/>
          <polygon class="cls-7" points="0 482.5 0 512 7.73 512 17.25 482.5 0 482.5"/>
          <polygon class="cls-7" points="141.17 482.33 137.2 512 143.27 512 149 480.5 141.17 482.33"/>
          <polygon class="cls-7" points="295.67 482.83 288.06 512 366.19 512 370 482.5 295.67 482.83"/>
          <g>
            <polygon class="cls-11" points="58 482.5 59.11 512 125.57 512 130 483 58 482.5"/>
            <polygon class="cls-11" points="159 481.5 156.78 512 173.3 512 176 480.5 159 481.5"/>
            <polygon class="cls-11" points="190 480.5 188.09 512 208.65 512 211.67 482.67 190 480.5"/>
            <polygon class="cls-11" points="232 482.5 220.58 512 273.52 512 277 483.5 232 482.5"/>
            <polygon class="cls-11" points="393 482 382 480.5 382 512 420.3 512 413 482.5 393 482"/>
          </g>
          <polygon class="cls-7" points="429 480.5 431.23 512 451.77 512 454 480.5 429 480.5"/>
          <polygon class="cls-7" points="466 481.5 467.91 512 504.23 512 509 481.5 466 481.5"/>
        </g>
        <g>
          <polygon class="cls-7" points="1024 482.5 1005.75 482.5 1010.51 512 1024 512 1024 482.5"/>
          <polygon class="cls-7" points="938 481.5 941.81 512 961 512 961 481.5 938 481.5"/>
          <polygon class="cls-7" points="764 483.5 768.75 512 809 512 809 483.5 764 483.5"/>
          <polygon class="cls-7" points="823 482.5 829.53 512 853.65 512 852.83 482.5 823 482.5"/>
          <polygon class="cls-7" points="605 484.5 611.32 512 628 512 628 484.5 605 484.5"/>
          <polygon class="cls-7" points="538 481.5 545.62 512 552.67 512 546 481.5 538 481.5"/>
          <g>
            <polygon class="cls-11" points="970 479.5 971.48 512 995.94 512 992 479.5 970 479.5"/>
            <polygon class="cls-11" points="900 482.5 900 512 923.86 512 919.33 481.5 900 482.5"/>
            <polygon class="cls-11" points="866 481.5 867.59 512 883.09 512 885 481.5 866 481.5"/>
            <polygon class="cls-11" points="688 483.5 696.55 512 748 512 748 484.44 688 483.5"/>
            <polygon class="cls-11" points="642.5 482.75 647.97 512 677.14 512 675 483.5 642.5 482.75"/>
            <polygon class="cls-11" points="557 480.5 564 512 591 512 591 480.5 557 480.5"/>
            <polygon class="cls-11" points="516 481.5 516.16 512 537.77 512 533.17 482.5 516 481.5"/>
          </g>
        </g>
        <path class="cls-7" d="m1002,479.5H0v14.28c25.66-.2,59.76-1.65,96-2.16,62.91-.89,61.3-3.84,99-3.23,80.64,1.3,90.7,14.85,165,12.93,20.95-.54,56.55.09,95-4.85,32.4-4.16,42.75-7.17,57-9,5.1-.65,10.71-1.16,18-1.51,81.29-3.9,107.73,17.48,190,9.69,19.19-1.82,25.27-4.83,44-6.46,54-4.69,134-1.69,238,4.31,6.31.27,13.72.34,22,.28v-14.28h-22Z"/>
      </g>
    </g>
  </g>
</svg>