<?xml version="1.0" encoding="UTF-8"?>
<svg xmlns="http://www.w3.org/2000/svg" xmlns:xlink="http://www.w3.org/1999/xlink" viewBox="0 0 3072 512.33">
  <defs>
    <style>
      .cls-1 {
        fill: #919e37;
      }

      .cls-1, .cls-2, .cls-3, .cls-4, .cls-5, .cls-6, .cls-7, .cls-8, .cls-9, .cls-10, .cls-11, .cls-12, .cls-13, .cls-14, .cls-15, .cls-16, .cls-17, .cls-18, .cls-19, .cls-20, .cls-21, .cls-22, .cls-23, .cls-24, .cls-25, .cls-26, .cls-27, .cls-28, .cls-29, .cls-30, .cls-31, .cls-32, .cls-33, .cls-34, .cls-35, .cls-36, .cls-37 {
        stroke-width: 0px;
      }

      .cls-38 {
        clip-path: url(#clippath-20);
      }

      .cls-2 {
        fill: #657028;
      }

      .cls-3 {
        fill: #b58822;
      }

      .cls-4 {
        fill: #846e1e;
      }

      .cls-5 {
        fill: #839b9a;
      }

      .cls-6 {
        fill: #545a2b;
      }

      .cls-39 {
        clip-path: url(#clippath-25);
      }

      .cls-7 {
        fill: #b7b875;
      }

      .cls-8 {
        fill: #879357;
      }

      .cls-9 {
        fill: #7a884b;
      }

      .cls-10 {
        fill: #687d27;
      }

      .cls-11 {
        fill: none;
      }

      .cls-12 {
        fill: #6e7a43;
      }

      .cls-13 {
        fill: #a9bc58;
      }

      .cls-40 {
        clip-path: url(#clippath-7);
      }

      .cls-41 {
        clip-path: url(#clippath-1);
      }

      .cls-42 {
        clip-path: url(#clippath-4);
      }

      .cls-14 {
        fill: #b2c75c;
      }

      .cls-43 {
        clip-path: url(#clippath-12);
      }

      .cls-15 {
        fill: #63604d;
      }

      .cls-16 {
        fill: #837947;
      }

      .cls-17 {
        fill: #9faa6f;
      }

      .cls-18 {
        fill: #9ab7b7;
      }

      .cls-19 {
        fill: #615d4c;
      }

      .cls-20 {
        fill: #9ba865;
      }

      .cls-21 {
        fill: #728236;
      }

      .cls-22 {
        fill: #8d9a67;
      }

      .cls-23 {
        fill: #81a13b;
      }

      .cls-24 {
        fill: #907b29;
      }

      .cls-25 {
        fill: #99caca;
      }

      .cls-26 {
        fill: #879c00;
      }

      .cls-27 {
        fill: #93a257;
      }

      .cls-28 {
        fill: #8aa128;
      }

      .cls-29 {
        fill: #86aead;
      }

      .cls-30 {
        fill: #526129;
      }

      .cls-31 {
        fill: #757c3e;
      }

      .cls-44 {
        clip-path: url(#clippath-14);
      }

      .cls-45 {
        clip-path: url(#clippath-17);
      }

      .cls-32 {
        fill: #746a37;
      }

      .cls-33 {
        fill: #869941;
      }

      .cls-46 {
        clip-path: url(#clippath-10);
      }

      .cls-47 {
        clip-path: url(#clippath-23);
      }

      .cls-34 {
        fill: #a09951;
      }

      .cls-35 {
        fill: #342f27;
      }

      .cls-36 {
        fill: #8f9a50;
      }

      .cls-37 {
        fill: #899755;
      }
    </style>
    <clipPath id="clippath-1">
      <rect class="cls-11" x="1536" y=".33" width="1024" height="512"/>
    </clipPath>
    <clipPath id="clippath-4">
      <rect class="cls-11" x="1536" y=".33" width="1024" height="512"/>
    </clipPath>
    <clipPath id="clippath-7">
      <rect class="cls-11" x="1536" y=".33" width="1024" height="512"/>
    </clipPath>
    <clipPath id="clippath-10">
      <rect class="cls-11" x="1536" y=".33" width="1024" height="512"/>
    </clipPath>
    <clipPath id="clippath-12">
      <rect class="cls-11" x="1536" y=".33" width="1024" height="512"/>
    </clipPath>
    <clipPath id="clippath-14">
      <rect class="cls-11" x="512" y=".33" width="1024" height="512"/>
    </clipPath>
    <clipPath id="clippath-17">
      <rect class="cls-11" x="512" y=".33" width="1024" height="512"/>
    </clipPath>
    <clipPath id="clippath-20">
      <rect class="cls-11" x="512" y=".33" width="1024" height="512"/>
    </clipPath>
    <clipPath id="clippath-23">
      <rect class="cls-11" x="512" y=".33" width="1024" height="512"/>
    </clipPath>
    <clipPath id="clippath-25">
      <rect class="cls-11" x="512" y=".33" width="1024" height="512"/>
    </clipPath>
  </defs>
  <g id="layer_2" data-name="layer 2">
    <g>
      <g id="layer_5-2" data-name="layer 5">
        <g class="cls-41">
          <polygon class="cls-7" points="2048 .33 1024 .33 1024 490.33 2048 490.33 3072 490.33 3072 .33 2048 .33"/>
          <path class="cls-35" d="m2479,376.33c-42.41-12.61-63.88-18.4-76-25-40.93-22.3-46.98-42.99-79-47-23.18-2.91-45.22,4.77-66,12-8.01,2.79-10.36,4.14-16.61,7.29.02,2.72.5,5.32,1.61,7.71,9.37,20.21,51.92-.81,97,24,16.9,9.3,10.06,11.78,53,50,30.05,26.74,45.49,40.25,66,47,19.61,6.45,35.16,5.61,65,4,6.63-.36,12.76-.69,18.43-1.06,8.08-6.58,11.24-12.82,12.57-15.94.98-2.28,6.08-14.19,2-26-6.23-18.01-29.23-22.5-78-37Z"/>
          <path class="cls-34" d="m1990,474.33s2-345,0-356c0,0-55-28-69-65S1904.33.33,1904.33.33h23.67s9,46,22,61c10.83,12.5,36,31,41,33s20,9,18-94h18s2,92-9,126l-3,348h-25Z"/>
          <path class="cls-34" d="m1579.67,0s-4.67,186.33.33,206.33,28,20,34,19l5,249h27L1634.33.33l-16-.33-.33,202.33s-27,4-25-12-2-190.33-2-190.33h-11.33Z"/>
          <path class="cls-34" d="m2183,.33s-4,258,11,295,26,179,26,179h40s-34-119-21-207S2270,7.33,2270,.33h-16.5s-22.5,201-29.5,237-8,52-12,39-14-251-12-276h-17Z"/>
          <path class="cls-34" d="m2429,474.33l-10-245s-56-22-62-86-11-143.33-11-143.33l20,.33s5,136,13,153,33,54,50,53,14-122,14-122l.2-84h18.8s13,179-21,237l12,237h-24Z"/>
        </g>
      </g>
      <g id="layer_4-2" data-name="layer 4">
        <g class="cls-42">
          <path class="cls-32" d="m2083,474.33v-194s-37-24-38-58,0-222,0-222h13v163c0,6,12,12,16-3S2083,.33,2083,.33h13l-11,172s-3,25-27,13c0,0-.63,14.62,1,44,1,18,17,32,25,36s30,2,35-21c8.12-37.34,10-244,10-244h19s-8.09,228.49-11,245c-3,17-9,34-18,41l-4,188h-32Z"/>
          <path class="cls-32" d="m1501,477.33s-17-219-20-252S1451.67.33,1451.33.33h23.67s1,90,11,110,13-22,13-22l5-88h17.33s-2.33,121-7.33,136-23,12-23,12c0,0,19,188,20,200s19,19,24-12S1553.33.33,1553.33.33h18s-15.33,338-20.33,351-15,34-34,27l7,96-23,3Z"/>
          <path class="cls-32" d="m1723,469.33v-120s-46,8-43-58,0-291,0-291h21.43s-1.43,273-.43,285,2,41,29,36V.33h23s-2,127,0,138,19,34,24-2S1788,.33,1788,.33h27s-9,147-22,168c-7.59,12.26-36,12-36,12l-2,294-32-5Z"/>
          <path class="cls-16" d="m1869,474.33s-23-165-27-213S1820,8.33,1823,.33l22.83-.33s18.17,268.33,23.17,318.33,8,11,15-27S1911,16.33,1911,.33h21s-17,228-20,245-15,118-19,130l14,99h-38Z"/>
          <path class="cls-16" d="m2231,.33s-1,168,8,196,45,40,53,37l7,236h29.33l-6.33-124s56,0,56-41V.33l-13.67-.33s3.67,161.33.67,175.33-21,15-21-12-.33-163.33-.33-163.33l-14.67.67s-4,176.67-1,186.67,18,21,34,13v102s1,18-38,27L2315,.33l-35.33-.33,7.33,204.33s-23,6-23-14-4.33-190-4.33-190h-28.67Z"/>
          <path class="cls-32" d="m2525,477.33s-17-219-20-252S2475.67.33,2475.33.33h23.67s1,90,11,110,13-22,13-22l5-88h17.33s-2.33,121-7.33,136-23,12-23,12c0,0,19,188,20,200s19,19,24-12S2577.33.33,2577.33.33h18s-15.33,338-20.33,351-15,34-34,27l7,96-23,3Z"/>
          <path class="cls-24" d="m2490,.33s-5,212,140,216S2781.69.33,2781.69.33h7.85s-.54,229.41-159.54,225.21C2471,221.33,2481.67.33,2481.67.33h8.33Z"/>
          <path class="cls-4" d="m2154.87.33s54.13,140,258.13,136S2658,.33,2658,.33h8.61s-44.61,142-253.61,144S2149,.33,2148,.33s0,0,0,0h6.87Z"/>
          <path class="cls-24" d="m1466,.33s-5,212,140,216S1757.69.33,1757.69.33h7.85s-.54,229.41-159.54,225.21C1447,221.33,1457.67.33,1457.67.33h8.33Z"/>
          <path class="cls-4" d="m1130.87.33s54.13,140,258.13,136S1634,.33,1634,.33h8.61s-44.61,142-253.61,144S1125,.33,1124,.33s0,0,0,0h6.87Z"/>
        </g>
      </g>
      <g id="layer_3-2" data-name="layer 3">
        <g class="cls-40">
          <path class="cls-37" d="m2052,450.33v.06s58.42,15.53,89.12,2.4c0,0-10.51-12.69-27.11-21.83,10.6-6.67,21.28-16.31,31.31-30.07,0,0-12.84-4.5-30.88-5.8,6.05-11.64,10.11-25.21,10.63-40.98,0,0-11.24,3.69-25.82,10.86,5.19-10.91,10.12-22.95,14.52-36.28,0,0-26.79-5.53-52.28,18.61-6-14.27-16.25-29.21-32.65-44.19,0,0-10.56,14.25-16.98,35.39-21.91-19.66-47.47-14.61-47.47-14.61,1.87,9.84,4.17,18.84,6.75,27.15-15.55-4.05-27.59-3.9-27.59-3.9,5.21,20.03,12.69,36.04,21.02,48.84-10.77-.76-22.76-.06-35.95,2.83,0,0,11.07,17.82,35.83,33.45-17.78,9.19-27.35,25.01-27.35,25.01,48.52,11.94,114.72-5.71,114.72-5.71l.18-1.23Z"/>
          <path class="cls-9" d="m1958,452.33v.05s47.68,12.68,72.73,1.96c0,0-8.58-10.36-22.13-17.81,8.66-5.44,17.37-13.31,25.56-24.55,0,0-10.48-3.67-25.2-4.74,4.94-9.5,8.25-20.57,8.67-33.45,0,0-9.18,3.01-21.08,8.87,4.24-8.9,8.26-18.73,11.85-29.61,0,0-21.87-4.52-42.67,15.19-4.89-11.65-13.26-23.84-26.65-36.06,0,0-8.62,11.63-13.85,28.89-17.88-16.05-38.75-11.92-38.75-11.92,1.53,8.03,3.4,15.38,5.51,22.16-12.69-3.3-22.52-3.18-22.52-3.18,4.25,16.35,10.36,29.42,17.16,39.86-8.79-.62-18.57-.05-29.34,2.31,0,0,9.03,14.54,29.24,27.3-14.51,7.5-22.32,20.42-22.32,20.42,39.6,9.75,93.63-4.66,93.63-4.66l.15-1Z"/>
          <path class="cls-21" d="m1728,391s-23.17-7.58-66.4-1.35c29.5-27.2,45.73-54.65,45.73-54.65-20.48,4.82-37.9,11.63-52.55,19.19,3.81-16.81,6.58-37.21,6.32-60.66,0,0-15.51,14.53-29.33,36.71-.87-37.43-16.97-64.58-16.97-64.58-23.7,18.97-39.93,37.89-50.73,56.02-15.79-34.23-33.26-55.54-33.26-55.54-4.96,24.46.83,58.03,8.36,86.74-70.86-41.78-100.08-33.49-100.08-33.49,18.48,26.36,37.71,47.39,56.36,64.16-43.09-10.65-83.71-16.59-83.71-16.59,29.46,34.85,66.46,54.86,98.25,66.33-36.75,4.8-48.98,13.37-48.98,13.37,44.48,20.02,90.57,16.66,112.78,13.23,12.04,2.63,64.11,10.54,140.3-27.34,0,0-17.68-8.13-44.26-11.69,17.31-6.55,36.83-16.09,58.17-29.87Z"/>
          <g>
            <path class="cls-9" d="m1672.54,446.56s-54.43-76.58,42.43-154.1c0,0,51.37,86.59-42.43,154.1Z"/>
            <path class="cls-9" d="m1704.83,437.74s-65.59-10.03-121.37-89.58c0,0,33.5-9.52,118.82,57.36l2.56,32.22Z"/>
            <path class="cls-9" d="m1694.09,427.11s56.75,13.57,142.91-42.11c0,0-48.49-15.88-136.09,17.17l-6.82,24.94Z"/>
            <path class="cls-9" d="m1693.54,445.33s-73.61-2.96-120.53-58.47c0,0,84.4,12.33,118.21,32.68l2.31,25.79Z"/>
            <path class="cls-9" d="m1680.12,453.24s55.65,16.73,142.97-26.68c0,0-69.6-32.01-140.25,3.19l-2.72,23.49Z"/>
            <path class="cls-9" d="m1696.39,451.24s-64.74,17.18-126.38-10.57c0,0,28.79-20.21,130.89-15.93l-4.51,26.51Z"/>
            <path class="cls-9" d="m1723.47,415.31l-24.24-11.63s28.88-47.77,103.95-65.44c0,0-29.06,49.18-79.71,77.07Z"/>
            <path class="cls-9" d="m1685.68,404.58l-20.99,1.86s-26.86-65.77-19.42-102.46c0,0,35.36,43.13,40.41,100.6Z"/>
            <path class="cls-9" d="m1720.4,400.94l19.44.73s22.01-35.39,21.36-93.56c0,0-47.49,44.49-40.81,92.83Z"/>
          </g>
          <path class="cls-21" d="m1937,452.03s-17.87-12.59-45.33-19.35c11.13-4.46,23.49-10.68,36.9-19.35,0,0-13.08-4.28-37.65-1.92,16.76-16.73,25.9-32.19,25.9-32.19-17.08,4.02-31.01,10.07-42.2,16.59,5.32-8.11,10.6-19.57,11.05-33.57,0,0-15.81,8.11-27.77,19.65-1.12-24.7-12.97-43.69-12.97-43.69-12,9.45-20.49,19.09-26.36,28.57-9.73-16.61-19.91-26.33-19.91-26.33-4.64,12.76-3.94,28.78-1.29,43.76-32.88-15.73-46.81-11.78-46.81-11.78,11.39,16.24,23.21,29.42,34.74,40.11-20.48-4.83-38.76-7.5-38.76-7.5,13.24,15.66,29.45,25.48,44.23,31.62-39.17,2.16-51.34,10.69-51.34,10.69,36.93,16.63,75.5,9.43,83.87,7.55,14.84,5.1,53.95,14.2,113.71-2.88Zm-83.39-41.08c.2-.54.4-1.08.58-1.62h1.29c-.64.54-1.26,1.08-1.87,1.62Z"/>
          <path class="cls-9" d="m2537,434.13s-21.94-15.47-56.38-25.32c16.51-6.82,34.74-16.14,54.41-28.85,0,0-25.51-8.35-73.06-1.13,31.17-33.87,48.43-66.26,48.43-66.26-15.62,4.4-29.7,9.91-42.34,16.06,4.18-10.88,7.16-23.32,7.6-37.09,0,0-16.73,8.59-34.42,21.99.99-50.14-24.01-90.18-24.01-90.18-22.07,17.39-37.72,35.13-48.54,52.57-17.9-30.57-36.65-48.45-36.65-48.45-8.54,23.48-7.26,52.98-2.38,80.56-60.53-28.96-86.17-21.69-86.17-21.69,20.96,29.9,42.72,54.15,63.96,73.83-37.69-8.89-71.36-13.81-71.36-13.81,24.37,28.83,54.21,46.9,81.41,58.2-72.1,3.98-94.5,19.69-94.5,19.69,66.63,29.99,136.14,17.86,153.4,14.12,21.38,7.25,76.58,19.77,160.59-4.24Z"/>
          <path class="cls-21" d="m2160,455.33v.05s47.68,12.68,72.73,1.96c0,0-8.58-10.36-22.13-17.81,8.66-5.44,17.37-13.31,25.56-24.55,0,0-10.48-3.67-25.2-4.74,4.94-9.5,8.25-20.57,8.67-33.45,0,0-9.18,3.01-21.08,8.87,4.24-8.9,8.26-18.73,11.85-29.61,0,0-21.87-4.52-42.67,15.19-4.89-11.65-13.26-23.84-26.65-36.06,0,0-8.62,11.63-13.85,28.89-17.88-16.05-38.75-11.92-38.75-11.92,1.53,8.03,3.4,15.38,5.51,22.16-12.69-3.3-22.52-3.18-22.52-3.18,4.25,16.35,10.36,29.42,17.16,39.86-8.79-.62-18.57-.05-29.34,2.31,0,0,9.03,14.54,29.24,27.3-14.51,7.5-22.32,20.42-22.32,20.42,39.6,9.75,93.63-4.66,93.63-4.66l.15-1Z"/>
          <path class="cls-21" d="m2752,391s-23.17-7.58-66.4-1.35c29.5-27.2,45.73-54.65,45.73-54.65-20.48,4.82-37.9,11.63-52.55,19.19,3.81-16.81,6.58-37.21,6.32-60.66,0,0-15.51,14.53-29.33,36.71-.87-37.43-16.97-64.58-16.97-64.58-23.7,18.97-39.93,37.89-50.73,56.02-15.79-34.23-33.26-55.54-33.26-55.54-4.96,24.46.83,58.03,8.36,86.74-70.86-41.78-100.08-33.49-100.08-33.49,18.48,26.36,37.71,47.39,56.36,64.16-43.09-10.65-83.71-16.59-83.71-16.59,29.46,34.85,66.46,54.86,98.25,66.33-36.75,4.8-48.98,13.37-48.98,13.37,44.48,20.02,90.57,16.66,112.78,13.23,12.04,2.63,64.11,10.54,140.3-27.34,0,0-17.68-8.13-44.26-11.69,17.31-6.55,36.83-16.09,58.17-29.87Z"/>
          <path class="cls-15" d="m2171,405.33c-6.67-22.38-9.92-33.74-6-42,4.75-10,13.48-11.49,49-27,33.54-14.64,29.58-14.98,44-20,20.78-7.23,42.82-14.91,66-12,32.02,4.01,38.07,24.7,79,47,12.12,6.6,33.59,12.39,76,25,48.77,14.5,71.77,18.99,78,37,4.08,11.81-1.02,23.72-2,26-2.25,5.24-9.67,19.36-37,29-79.57,28.08-194.19-28.88-278-4-7.22,2.14-24.19,7.86-39,0-14.75-7.83-19.93-25.19-30-59Z"/>
          <path class="cls-25" d="m2231.82,328.29s41.09,5.52,62.18,34.04c17,23,12,46,25,66,10.47,16.11,39,38,39,38l143-9s-78.13-11.85-110-39c-27-23-33.19-60.8-46-73-21-20-67-31-84-31,0,0-9.35-1.08-29.18,13.96Z"/>
          <path class="cls-29" d="m2254,314.33s-20.83,11.22-22,14c0,0,19,3,31,11,11.83,7.88,43.69,23,47.85,39,4.15,16,6.15,29,16.15,43,32.3,45.21,59.08,57.53,11.18,6.61-6.78-7.2-12.13-15.63-15.79-24.82-1.44-3.62-4.73-14.19-5.38-16.79-2-8-2-17-10-27.68-9.04-12.07-15-17.32-15-17.32l7.71,3s13.29,6,19.29,20c4.79,11.18,5,34,15,52,8.5,15.29,45.79,42.5,50,43,17,2-35-37-35-37,0,0-11-9-14-23s-3-37-20-53-13-11-13-11c0,0-9-6,0-4s22,9,27,20,10,36,13,44,13.72,24.74,24,31c100.51,61.22,63.28,24.09,14.32-1.33-8.55-4.44-16.26-10.41-22.41-17.83-4.13-4.98-7.79-10.84-8.91-16.84-3-16-7-26-10-38-3.04-12.16-22-22-40-28s-45-10-45-10Z"/>
        </g>
      </g>
      <g id="layer_2-2" data-name="layer 2">
        <g class="cls-46">
          <g>
            <path class="cls-6" d="m1874.12,342.42s-9.51-63.1,9.51-114.1c0,0,22.47,73.47,12.97,114.1,0,0-17.29,10.37-22.47,0Z"/>
            <path class="cls-6" d="m1885.35,338.97s62.23-32.85,98.54-26.8c0,0-15.56,22.47-84.71,40.63,0,0-25.93,6.91-13.83-13.83Z"/>
            <circle class="cls-3" cx="1873.25" cy="303.53" r="11.24" transform="translate(1119.1 2044.92) rotate(-75.79)"/>
            <circle class="cls-3" cx="1900.05" cy="311.31" r="16.42" transform="translate(1286.89 2136.44) rotate(-80.73)"/>
            <path class="cls-2" d="m1885.34,338.95s19.9-70.86,70.03-84.69c0,0-13.01,56.18-50.13,95.08,0,0-21.64-4.35-19.9-10.39Z"/>
            <path class="cls-2" d="m1881.03,351.93s-30.25-25.07-38.03-80.39c0,0,34.57,29.39,47.54,53.59,12.97,24.2-9.51,26.8-9.51,26.8Z"/>
            <path class="cls-2" d="m1879.3,356.25l-10.52-17.3s28.45,3.26,39.91,11.25c.4.28-1.88,2.59-1.88,2.59l-11.95,7.78s-8.64,66.56-2.59,114.96l-15.56,1.3s-7.78-75.63,2.59-120.58Z"/>
          </g>
          <g>
            <path class="cls-2" d="m2148.13,472.2s-30.21-101.05,37.83-172.48l2.43,1.95s-64.36,63.01-37.79,169.75l-2.47.78Z"/>
            <path class="cls-2" d="m2184.49,303.67s-10.94-56.26,62.4-74.91c0,0,6.71,61.04-62.4,74.91Z"/>
            <path class="cls-2" d="m2162.51,335.26s-31.28-25.69-35.77-84.78c0,0,20.53,5.44,44.46,67.08l-8.69,17.7Z"/>
            <path class="cls-2" d="m2162.08,333.11s31.59,16.39,90.8-3.88c0,0-26.36-16.54-83.09-9.88l-7.71,13.76Z"/>
            <path class="cls-2" d="m2148.78,365.91s-39.89-20.69-51.43-63.49c0,0,43.42,28.66,56.83,48.65l-5.4,14.84Z"/>
            <path class="cls-2" d="m2150.31,365.63s30.66,17.79,88.61,4.36c0,0-36.78-28.82-83.68-17.91l-4.93,13.55Z"/>
            <path class="cls-2" d="m2144.1,393.69s37.42-16.39,77.17-5.41c0,0-15.47,14.87-77.41,21.81l.24-16.4Z"/>
            <path class="cls-2" d="m2144.1,393.69l-.24,16.4s-33.84-3.78-62.81-40.84c0,0,34.67,3.52,63.06,24.45Z"/>
            <path class="cls-2" d="m2141.64,427.88l1.04,12.81s-40.24,16.08-62.59,11.37c0,0,26.47-21.37,61.55-24.18Z"/>
            <path class="cls-2" d="m2142.03,429.1l2.47,11.61s24.21,7.74,58.52-1.32c0,0-33.4-21.45-60.99-10.29Z"/>
          </g>
          <g>
            <path class="cls-6" d="m2058.44,461.39s.28-63.7-49.27-93.41l-1.03,1.55s46.13,25.47,48.8,91.84l1.5.03Z"/>
            <path class="cls-6" d="m2010.63,370.01s-3.12-34.46-46.98-32.69c0,0,6.25,36.5,46.98,32.69Z"/>
            <path class="cls-6" d="m2028.03,384.54s13.2-20.23,6.03-55.23c0,0-10.54,6.67-13.77,46.47l7.73,8.76Z"/>
            <path class="cls-6" d="m2027.92,383.22s-14.9,14.9-51.16,13.31c0,0,11.96-14.09,44.62-19.95l6.54,6.65Z"/>
            <path class="cls-6" d="m2040.69,399.94s18.81-18.82,18.23-45.58c0,0-19.48,24.04-23.67,37.91l5.43,7.67Z"/>
            <path class="cls-6" d="m2039.78,400.04s-14.15,15.55-48.6,17.7c0,0,15.75-22.99,43.64-24.71l4.96,7.01Z"/>
            <path class="cls-6" d="m2047.83,415.22s-23.51-3.08-43.83,10.08c0,0,11.04,5.96,46.65-.63l-2.82-9.46Z"/>
            <path class="cls-6" d="m2047.83,415.22l2.82,9.46s18.21-7.99,28.27-34.42c0,0-18.72,7.98-31.09,24.96Z"/>
            <path class="cls-6" d="m2054.8,434.6l1.52,7.6s25.03,2.42,36.69-4.14c0,0-18.23-7.84-38.21-3.46Z"/>
            <path class="cls-6" d="m2054.78,435.38l.52,7.15s-12.21,8.63-32.78,9.26c0,0,15.08-18.15,32.26-16.41Z"/>
          </g>
          <g>
            <path class="cls-13" d="m2249.38,375.52s6.3-40.26-6.3-72.8c0,0-14.89,46.88-8.59,72.8,0,0,11.45,6.62,14.89,0Z"/>
            <path class="cls-13" d="m2241.94,373.31s-41.24-20.96-65.29-17.1c0,0,10.31,14.34,56.13,25.92,0,0,17.18,4.41,9.16-8.82Z"/>
            <path class="cls-19" d="m2242.51,350.7c0,3.96,3.33,7.17,7.45,7.17s7.45-3.21,7.45-7.17-3.33-7.17-7.45-7.17-7.45,3.21-7.45,7.17Z"/>
            <ellipse class="cls-19" cx="2232.2" cy="355.66" rx="10.88" ry="10.48"/>
            <path class="cls-13" d="m2241.95,373.3s-13.18-45.21-46.4-54.04c0,0,8.07,34.19,32.67,59.01,0,0,14.88-1.12,13.73-4.97Z"/>
            <path class="cls-13" d="m2244.8,381.58s20.04-15.99,25.2-51.29c0,0-22.91,18.75-31.5,34.19-8.59,15.44,6.3,17.1,6.3,17.1Z"/>
            <path class="cls-22" d="m2245.95,384.34l6.97-11.04s-18.85,2.08-26.44,7.18c-.27.18,1.25,1.65,1.25,1.65l7.92,4.96s5.73,42.47,1.72,73.35l10.31.83s5.15-48.26-1.72-76.93Z"/>
          </g>
          <g>
            <path class="cls-2" d="m2014.21,466.29s-17.24-33.9-20.73-43.7c0,0,15.55,1.17,22.86,14.07,7.32,12.9,11.73,30.43,9.34,31.03l-11.48-1.4Z"/>
            <path class="cls-27" d="m2021.53,465.3s-11.24-36.05-7.49-60.87c0,0,14.05.47,21.54,59l-14.05,1.87Z"/>
            <path class="cls-2" d="m2029.02,464.3s-2.34-60.34,15.45-79.07c0,0,10.32,41.08.94,79.07h-16.4Z"/>
            <path class="cls-27" d="m2040.57,464.3s-.31-29.9,35.27-34.59c0,0-17.79,27.16-23.41,35.58l-11.86-1Z"/>
            <path class="cls-27" d="m2016.38,464.83s-13.11-17.79-26.22-18.73c0,0,14.05,14.05,16.86,19.2l9.36-.47Z"/>
          </g>
          <g>
            <path class="cls-23" d="m1688,459.33s2-56-28-87l3-3s31,28,30,90h-5Z"/>
            <path class="cls-30" d="m1657,405.33l8.44-11.81c-3.15-1.59-6.75-3-10.85-4.07l-6.59,17.88h-6l6.94-19.08c-3.23-.53-6.72-.86-10.49-.93l-4.45,14.01-4-1,.75-12.8c-3.69.27-7.63.79-11.79,1.57l2.04,12.22h-4l-10.01-9.34c-5.62,1.62-11.6,3.71-17.99,6.34,0,0,2.17,2.74,5.9,6.79l9.1-3.79,4,5-7.88,4.2c2.74,2.73,5.9,5.68,9.38,8.61l8.5-9.81,4,1-3.57,15.69c2.48,1.73,5.04,3.37,7.68,4.85l6.89-14.55,4,2-3.11,16.35c2.68,1.1,5.39,1.99,8.11,2.62v-16.96h8l-2.43,17.84c8.11.69,16.19-1.35,23.56-7.71l-11.13-11.13,3-3,11.59,10.76c3.63-3.95,7.05-9.06,10.17-15.57,0,0-3.71-7.89-13.65-14.67l-7.11,9.48-7-1Z"/>
            <path class="cls-30" d="m1779.46,374.03c1.61-9.67.87-17.07.87-17.07,0,0-4.9-1.28-13.04-2.21l-6.29,12.59-5,1,3.56-14.26c-3.57-.21-7.5-.32-11.72-.24l-.84,18.5-7,2,4.64-20.41c-6.43.26-13.44.97-20.79,2.37l5.15,24.03-6,1-3.7-24.08c-.19.04-.38.08-.57.13-4.24.98-7.93,2.6-11.15,4.67l8.43,25.28-8,4-6.67-24.17c-4.28,4.39-7.39,9.7-9.64,15.11l10.31,13.06-6,4-6.64-10.51c-3.74,12.41-3.6,23.64-3.6,23.64,2.2.63,4.33,1.19,6.43,1.71l2.81-9.84h4l-2.51,10.87c3.05.69,5.99,1.26,8.82,1.74l3.69-16.61,14-5,4.65,23.27c3.23-.11,6.26-.4,9.11-.84l-2.76-29.43,9-3,9.27,27.82c3.08-1.45,5.84-3.14,8.29-5.01l-9.56-27.81,8-2,15.53,12.08c1.11-2.4,2.02-4.82,2.76-7.2l-17.29-9.88,6-2,13.46,2.69Z"/>
            <path class="cls-30" d="m1597,310.33l-14.5-3.48c1.88,5.94,3.91,11.42,6.05,16.48h25.46l4,7-22.73,6.94c5.06,9.19,10.52,16.58,16.13,22.51l16.6-12.45,9,4-18.99,14.77c4.21,3.6,8.44,6.46,12.57,8.74l13.41-20.51,4,4-7.02,21.19c17.12,6.04,30.49,3,30.49,3,3.05-5.38,5.63-10.47,7.8-15.29l-19.28-8.9-2-7,24.58,7.93c3.02-8.04,4.75-15.24,5.4-21.68l-34.98-5.25-1-6,35.73-1.7c-2.16-13.92-10.62-23.21-21.99-29.31l-22.74,20.02-4-5,18.67-18.67c-9.32-3.55-19.81-5.51-30.08-6.51l-5.59,19.18-6-3s3.84-10.98,5.43-16.67c-7.5-.47-14.71-.47-21.07-.25l-1.36,12.93h-5l-3.87-12.37c-8.02.6-13.13,1.37-13.13,1.37,1.05,4.69,2.18,9.14,3.37,13.39l15.63,6.61,1,4Z"/>
            <path class="cls-10" d="m1774.53,390.91c1.11-2.4,2.72-6.2,3.47-8.58l-17-9,5-1.5,13.46,2.69c1.04-6.24,1.1-11.52,1.01-14.49l-50.47,24.3-30.31,15.15c-3.77,1.88-7.21,4.36-10.19,7.34l-3.69,3.69c-.07,1.56-.06,2.45-.06,2.45,2.2.63,4.33,1.19,6.43,1.71l2.81-9.84h4l-2.51,10.87c3.05.69,5.99,1.26,8.82,1.74l3.69-16.61,14-5,4.65,23.27c3.23-.11,6.26-.4,9.11-.84l-2.76-29.43,9-3,9.27,27.82c3.08-1.45,5.84-3.14,8.29-5.01l-9.56-27.81,8-2,15.53,12.08Z"/>
            <path class="cls-10" d="m1635,331.08l35.2,51.67c.83-.13,1.28-.23,1.28-.23,3.05-5.38,5.63-10.47,7.8-15.29l-19.28-8.9-2-7,24.58,7.93c3.02-8.04,4.75-15.24,5.4-21.68l-34.98-5.25-1-6,35.73-1.7c-2.16-13.92-10.62-23.21-21.99-29.31l-22.74,20.02-4-5,18.67-18.67c-9.32-3.55-19.81-5.51-30.08-6.51l-5.59,19.18-6-3s3.84-10.98,5.43-16.67c-7.5-.47-14.71-.47-21.07-.25l-1.36,12.93h-5l-3.87-12.37c-8.02.6-13.13,1.37-13.13,1.37l8.99,8.99c2.66,2.66,5.68,4.91,8.99,6.7l19.52,10.55c8.21,4.44,15.24,10.79,20.5,18.5Z"/>
            <path class="cls-10" d="m1660,419.33l3-3,11.59,10.76c3.63-3.95,7.05-9.06,10.17-15.57,0,0-.25-.53-.79-1.43l-27.3,2.9c-8.31.88-16.72-.28-24.48-3.38l-13.18-5.27-9.27-3.86c-1.81-.75-3.7-1.3-5.64-1.62l-11.54-1.92c-1.17.46-2.34.91-3.54,1.41,0,0,2.17,2.74,5.9,6.79l9.1-3.79,4,5-7.88,4.2c2.74,2.73,5.9,5.68,9.38,8.61l8.5-9.81,4,1-3.57,15.69c2.48,1.73,5.04,3.37,7.68,4.85l6.89-14.55,4,2-3.11,16.35c2.68,1.1,5.39,1.99,8.11,2.62v-16.96h8l-2.43,17.84c8.11.69,16.19-1.35,23.56-7.71l-11.13-11.13Z"/>
          </g>
          <g>
            <path class="cls-36" d="m1506.36,463.45s-36.82-72.4-44.27-93.32c0,0,33.2,2.49,48.83,30.04,15.63,27.55,25.06,64.98,19.96,66.27l-24.52-2.99Z"/>
            <path class="cls-14" d="m1522,461.33s-24-77-16-130c0,0,30,1,46,126l-30,4Z"/>
            <path class="cls-14" d="m1537.99,459.2s-4.99-128.87,33.01-168.87c0,0,22.04,87.73,2.02,168.87h-35.02Z"/>
            <path class="cls-14" d="m1562.67,459.2s-.67-63.87,75.33-73.87c0,0-38,58-50,76l-25.33-2.13Z"/>
            <path class="cls-14" d="m1511,460.33s-28-38-56-40c0,0,30,30,36,41l20-1Z"/>
            <path class="cls-31" d="m1571.75,459.33c1.03-2.99,2.28-6.64,3.64-10.61,15.77-77.98-4.39-158.26-4.39-158.26-.34.36-.67.74-1.01,1.11-3.22,20.16-13.16,83.35-13.99,101.75-.83,18.16-1.65,54.03-1.91,66h17.66Z"/>
            <path class="cls-36" d="m1588,461.33c12-18,50-76,50-76-41.67,14.19-60.55,63.75-64.29,74.8l14.29,1.2Z"/>
            <path class="cls-36" d="m1553,456.33c-16.21-117.9-47-125-47-125,0,.02,0,.04,0,.07,6.39,15.68,21.13,55.11,25.01,93.93,1.68,16.79,2.91,27.49,3.8,34.29l12.23-1.63c.81-1.55,4.26,1.67,5.97-1.66Z"/>
            <path class="cls-31" d="m1462.85,370.21c10.51,7.65,29.83,22.49,34.15,31.13,5.76,11.52,19.8,31.33,23.57,63.85l10.31,1.26c5.1-1.29-4.33-38.72-19.96-66.27-14.24-25.1-43.06-29.4-48.07-29.96Z"/>
            <path class="cls-31" d="m1511,460.33s-27.08-36.72-54.6-39.85c8.34,3.6,17.73,8.48,22.6,13.85,6.18,6.8,15.03,18.56,20.89,26.56l11.11-.56Z"/>
          </g>
          <g>
            <path class="cls-1" d="m1831.54,410.9s12.88-7.41,20.4-28.61c0,0-15.33-3.52-21.43,21.64l1.03,6.97Z"/>
            <path class="cls-1" d="m1831.87,410.78s-12.08,3.84-29.24-7.42c0,0,9.02-13.96,28.2,1.93l1.04,5.49Z"/>
            <path class="cls-1" d="m1833.38,423.32s19.79-2.48,23.62-19.58c0,0-19.7,2.8-23.79,13.85l.17,5.73Z"/>
            <path class="cls-1" d="m1833.3,423.36s-12.77,6.74-29.41-4.3c0,0,14.92-13.72,29.26-.94l.15,5.23Z"/>
            <path class="cls-1" d="m1833.62,431.93s-9.65-9.69-25.5-4.31c0,0,7.98,10.14,24.36,10.33l1.14-6.02Z"/>
            <path class="cls-1" d="m1833.53,431.9l-1.19,6.02s15.54,4.14,24.2-12.9c0,0-14.34-2.58-23.02,6.88Z"/>
            <path class="cls-1" d="m1831.46,443.18l-1.56,4.61s11.78,7.95,19.61,7.4c0,0-5.3-14.23-18.06-12.02Z"/>
            <path class="cls-1" d="m1831.26,443.46l-1.36,4.28s-8.6,2.91-19.89-.34c0,0,8.18-12.44,21.25-3.94Z"/>
            <path class="cls-13" d="m1833.27,419.68l.11,3.65s19.63-2.46,23.58-19.38c-6.66,5.32-21.37,14.32-23.68,15.73Z"/>
            <path class="cls-13" d="m1832.35,437.92s15.33,4.07,24.03-12.58c-4.84,2.91-19.49,7.79-23.34,9.05l-.69,3.52Z"/>
            <path class="cls-13" d="m1830.66,445.54l-.76,2.25s11.66,7.87,19.49,7.41c-5.07-5.51-15.23-8.69-18.73-9.66Z"/>
            <path class="cls-13" d="m1829.9,447.74l.61-1.93-.21-.7s-15.24,1.3-20.3,2.28h0c11.29,3.25,19.89.34,19.89.34Z"/>
            <path class="cls-13" d="m1808.15,427.66c.53.65,8.51,10.11,24.33,10.29l.63-3.31c-5.05-4.42-19.36-6.37-24.95-6.98Z"/>
            <path class="cls-13" d="m1803.94,419.1c16.61,10.99,29.36,4.27,29.36,4.27l-.1-3.33c-11.53-5-24.85-2.13-29.27-.94Z"/>
            <path class="cls-13" d="m1831.87,410.78l-.66-3.48c-2.47-.69-20.41-5.58-28.5-4.06-.05.07-.08.12-.08.12,17.16,11.26,29.24,7.42,29.24,7.42Z"/>
            <path class="cls-13" d="m1823,464.93s20.73-34.58,6.19-64.95l-1,.54s14.25,27.08-5.91,63.96l.72.45Z"/>
            <path class="cls-13" d="m1851.66,382.75s-.06-.01-.19-.04c-2.77,1.85-8.34,5.73-10.34,8.28-2.71,3.46-8.74,12.91-9.97,17.38-.08.31.88.36.82.63l.35,1.5s11.8-6.56,19.32-27.76Z"/>
            <path class="cls-1" d="m1829.24,401.5s9.62-19.64-12.33-31.25c0,0-8.75,21.65,12.33,31.25Z"/>
            <path class="cls-13" d="m1816.97,370.28c3.68,6.89,10.91,21.41,12.04,31.11.08.04.16.08.24.11,0,0,9.6-19.61-12.27-31.22Z"/>
          </g>
          <g>
            <path class="cls-36" d="m2530.36,463.45s-36.82-72.4-44.27-93.32c0,0,33.2,2.49,48.83,30.04,15.63,27.55,25.06,64.98,19.96,66.27l-24.52-2.99Z"/>
            <path class="cls-14" d="m2546,461.33s-24-77-16-130c0,0,30,1,46,126l-30,4Z"/>
            <path class="cls-14" d="m2561.99,459.2s-4.99-128.87,33.01-168.87c0,0,22.04,87.73,2.02,168.87h-35.02Z"/>
            <path class="cls-14" d="m2586.67,459.2s-.67-63.87,75.33-73.87c0,0-38,58-50,76l-25.33-2.13Z"/>
            <path class="cls-14" d="m2535,460.33s-28-38-56-40c0,0,30,30,36,41l20-1Z"/>
            <path class="cls-31" d="m2595.75,459.33c1.03-2.99,2.28-6.64,3.64-10.61,15.77-77.98-4.39-158.26-4.39-158.26-.34.36-.67.74-1.01,1.11-3.22,20.16-13.16,83.35-13.99,101.75-.83,18.16-1.65,54.03-1.91,66h17.66Z"/>
            <path class="cls-36" d="m2612,461.33c12-18,50-76,50-76-41.67,14.19-60.55,63.75-64.29,74.8l14.29,1.2Z"/>
            <path class="cls-36" d="m2577,456.33c-16.21-117.9-47-125-47-125,0,.02,0,.04,0,.07,6.39,15.68,21.13,55.11,25.01,93.93,1.68,16.79,2.91,27.49,3.8,34.29l12.23-1.63c.81-1.55,4.26,1.67,5.97-1.66Z"/>
            <path class="cls-31" d="m2486.85,370.21c10.51,7.65,29.83,22.49,34.15,31.13,5.76,11.52,19.8,31.33,23.57,63.85l10.31,1.26c5.1-1.29-4.33-38.72-19.96-66.27-14.24-25.1-43.06-29.4-48.07-29.96Z"/>
            <path class="cls-31" d="m2535,460.33s-27.08-36.72-54.6-39.85c8.34,3.6,17.73,8.48,22.6,13.85,6.18,6.8,15.03,18.56,20.89,26.56l11.11-.56Z"/>
          </g>
          <g>
            <path class="cls-14" d="m2223.8,460.33s-1.03-30.28,14.43-47.05l-1.55-1.62s-15.97,15.14-15.46,48.67h2.58Z"/>
            <path class="cls-14" d="m2239.78,431.13l-4.35-6.39c1.62-.86,3.48-1.62,5.59-2.2l3.39,9.67h3.09l-3.58-10.32c1.66-.29,3.46-.47,5.4-.5l2.29,7.58,2.06-.54-.39-6.92c1.9.14,3.93.42,6.08.85l-1.05,6.61h2.06l5.16-5.05c2.9.88,5.98,2,9.27,3.43,0,0-1.12,1.48-3.04,3.67l-4.69-2.05-2.06,2.7,4.06,2.27c-1.41,1.47-3.04,3.07-4.83,4.65l-4.38-5.3-2.06.54,1.84,8.49c-1.28.94-2.6,1.82-3.96,2.62l-3.55-7.87-2.06,1.08,1.6,8.84c-1.38.6-2.78,1.08-4.18,1.42v-9.17h-4.12l1.25,9.65c-4.18.37-8.34-.73-12.14-4.17l5.73-6.02-1.55-1.62-5.97,5.82c-1.87-2.13-3.63-4.9-5.24-8.42,0,0,1.91-4.27,7.03-7.93l3.66,5.12,3.61-.54Z"/>
            <path class="cls-14" d="m2176.67,414.2c-.83-5.23-.45-9.23-.45-9.23,0,0,2.53-.69,6.72-1.2l3.24,6.81,2.58.54-1.84-7.71c1.84-.12,3.87-.18,6.04-.13l.43,10.01,3.61,1.08-2.39-11.04c3.31.14,6.93.53,10.71,1.28l-2.65,13,3.09.54,1.91-13.02c.1.02.2.04.29.07,2.18.53,4.09,1.41,5.75,2.53l-4.34,13.67,4.12,2.16,3.44-13.07c2.21,2.38,3.81,5.24,4.97,8.17l-5.31,7.06,3.09,2.16,3.42-5.68c1.93,6.71,1.86,12.79,1.86,12.79-1.13.34-2.23.64-3.31.93l-1.45-5.32h-2.06l1.29,5.88c-1.57.37-3.08.68-4.54.94l-1.9-8.98-7.21-2.7-2.4,12.58c-1.66-.06-3.22-.22-4.69-.46l1.42-15.91-4.64-1.62-4.78,15.04c-1.59-.78-3.01-1.7-4.27-2.71l4.93-15.04-4.12-1.08-8,6.53c-.57-1.3-1.04-2.61-1.42-3.89l8.91-5.34-3.09-1.08-6.94,1.46Z"/>
            <path class="cls-14" d="m2270.69,379.75l7.47-1.88c-.97,3.21-2.01,6.18-3.11,8.91h-13.12l-2.06,3.79,11.71,3.76c-2.61,4.97-5.42,8.96-8.31,12.17l-8.55-6.73-4.64,2.16,9.78,7.99c-2.17,1.95-4.35,3.5-6.48,4.73l-6.91-11.09-2.06,2.16,3.62,11.46c-8.82,3.27-15.71,1.62-15.71,1.62-1.57-2.91-2.9-5.66-4.02-8.27l9.93-4.81,1.03-3.79-12.66,4.29c-1.56-4.35-2.45-8.24-2.78-11.73l18.02-2.84.52-3.24-18.41-.92c1.11-7.53,5.47-12.55,11.33-15.85l11.72,10.82,2.06-2.7-9.62-10.1c4.8-1.92,10.21-2.98,15.5-3.52l2.88,10.37,3.09-1.62s-1.98-5.94-2.8-9.02c3.86-.25,7.58-.25,10.86-.14l.7,6.99h2.58l1.99-6.69c4.13.32,6.77.74,6.77.74-.54,2.54-1.12,4.94-1.74,7.24l-8.05,3.58-.52,2.16Z"/>
            <path class="cls-33" d="m2263.27,406.5c2.89-3.21,5.7-7.2,8.31-12.17l-11.71-3.76,2.06-3.79h13.12c1.1-2.74,2.14-5.7,3.11-8.91l-7.47,1.88.52-2.16,8.05-3.58c.57-2.14,1.12-4.38,1.62-6.72l-19.39,13.27c-5.14,3.52-9.52,8.02-12.89,13.26l-16.08,25.01c1.16.23,7.54,1.28,15.5-1.67l-3.62-11.46,2.06-2.16,6.91,11.09c2.13-1.23,4.31-2.78,6.48-4.73l-9.78-7.99,4.64-2.16,8.55,6.73Z"/>
            <path class="cls-33" d="m2269.08,433.94l-4.06-2.27,2.06-2.7,4.69,2.05c1.92-2.19,3.04-3.67,3.04-3.67-1.27-.55-2.5-1.05-3.71-1.51l-6.88,3.75-10.82,3.93c-4.61,1.67-9.5,2.39-14.4,2.1l-13.36-.78c1.56,3.35,3.27,6,5.07,8.06l5.97-5.82,1.55,1.62-5.73,6.02c3.8,3.44,7.96,4.54,12.14,4.17l-1.25-9.65h4.12v9.17c1.4-.34,2.8-.82,4.18-1.42l-1.6-8.84,2.06-1.08,3.55,7.87c1.36-.8,2.68-1.69,3.96-2.62l-1.84-8.49,2.06-.54,4.38,5.3c1.79-1.58,3.42-3.18,4.83-4.65Z"/>
            <path class="cls-33" d="m2184.93,411.78l-8.78-5.17c-.03,1.64.02,4.38.53,7.58l6.94-1.46,3.09,1.08-8.91,5.34c.38,1.29.85,2.6,1.42,3.89l8-6.53,4.12,1.08-4.93,15.04c1.26,1.01,2.68,1.92,4.27,2.71l4.78-15.04,4.64,1.62-1.42,15.91c1.47.24,3.03.39,4.69.46l2.4-12.58,7.21,2.7,1.9,8.98c1.46-.26,2.97-.57,4.54-.94l-1.29-5.88h2.06l1.45,5.32c1.08-.28,2.18-.59,3.31-.93,0,0,.02-2.24-.39-5.5l-2.39-.45c-3.78-.71-7.44-1.96-10.86-3.71l-26.4-13.54Z"/>
          </g>
          <g>
            <path class="cls-26" d="m2451.12,365.7s12.95-24.01,4.21-64.39c0,0-27.34,9.31-12.56,54.51l8.35,9.88Z"/>
            <path class="cls-26" d="m2438.46,353.25s-3.96-39.97-49.46-36.9c0,0,7.25,42.28,49.46,36.9Z"/>
            <path class="cls-26" d="m2451.53,365.2s-15.16,17.67-52.84,16.66c0,0,.6-30.53,45.91-24.23l6.93,7.57Z"/>
            <path class="cls-26" d="m2466,383.33s28.52-23,17.98-53.4c0,0-28.06,23.41-23.78,44.62l5.8,8.79Z"/>
            <path class="cls-26" d="m2465.92,383.47s-13.44,22.87-50.08,21.71c0,0,10.05-35.84,44.78-29.74l5.3,8.03Z"/>
            <path class="cls-26" d="m2474.69,396.53s-24.44-5.8-43.99,17.91c0,0,22.27,8.13,48.02-7.4l-4.04-10.51Z"/>
            <path class="cls-26" d="m2474.53,396.57l3.96,10.55s28.26-8.55,25.34-43.53c0,0-24.89,9.82-29.3,32.98Z"/>
            <path class="cls-26" d="m2482.19,416.19l2.03,8.71s26.08,1.04,37.78-7.39c0,0-22.03-17.09-39.81-1.32Z"/>
            <path class="cls-26" d="m2482.16,416.82l2.01,8s-10.62,12.85-31.4,18.69c0,0,.75-27.33,29.39-26.69Z"/>
            <path class="cls-14" d="m2455.34,302.3s-.12.04-.32.12c-2.54,5.57-7.48,17.01-8.14,22.93-.89,8.01-1.16,28.61,1.23,36.78.16.56,1.72-.3,1.89.2l2,2s12.08-21.65,3.34-62.03Z"/>
            <path class="cls-14" d="m2462.3,377.74l3.69,5.59s28.29-22.82,18.09-53.05c-5.26,14.74-19.53,43.02-21.79,47.45Z"/>
            <path class="cls-14" d="m2478.5,407.12s27.88-8.46,25.38-42.86c-4.75,9.22-22.9,31-27.7,36.69l2.32,6.18Z"/>
            <path class="cls-14" d="m2483.23,420.65l.99,4.25s25.82,1.03,37.6-7.27c-13.24-3.7-32.18,1.14-38.59,3.02Z"/>
            <path class="cls-14" d="m2484.17,424.82l-.9-3.6-1-.89s-22.54,16.75-29.49,23.18h0c20.77-5.83,31.4-18.69,31.4-18.69Z"/>
            <path class="cls-14" d="m2430.79,414.47c1.45.5,23.06,7.57,47.94-7.43l-2.22-5.78c-12.16-2.02-36.39,8.75-45.72,13.21Z"/>
            <path class="cls-14" d="m2415.94,405.18c36.56,1.11,49.98-21.71,49.98-21.71l-3.37-5.11c-22.83,3.34-40.87,20.69-46.61,26.82Z"/>
            <path class="cls-14" d="m2451.53,365.2l-4.39-4.8c-4.53,1.31-37.27,11-48.43,21.2-.01.17-.01.26-.01.26,37.68,1.01,52.84-16.66,52.84-16.66Z"/>
            <path class="cls-26" d="m2489.99,458.33s-1.04-74.04-53.1-107.42l-1.04,1.82s48.41,28.52,52.58,105.6h1.56Z"/>
            <path class="cls-14" d="m2389.11,316.34c12.4,7.2,37.74,22.9,48.86,36.96.16-.02.32-.03.48-.05,0,0-3.95-39.9-49.34-36.9Z"/>
          </g>
          <g>
            <path class="cls-13" d="m1924.27,437.83s12.02-1.28,22.25,5.37c0,0-5.69,2.81-23.78-.77l1.53-4.6Z"/>
            <g>
              <path class="cls-13" d="m1943.71,416.05s1.94-16.84,24.29-15.55c0,0-3.56,17.82-24.29,15.55Z"/>
              <path class="cls-13" d="m1934.68,423s-6.53-10.04-2.51-27.11c0,0,5.3,3.37,6.54,22.89l-4.03,4.21Z"/>
              <path class="cls-13" d="m1934.76,422.35s7.45,7.45,25.95,7.02c0,0-5.96-7.02-22.55-10.21l-3.4,3.19Z"/>
              <path class="cls-13" d="m1928.07,430.41s-9.4-9.4-8.83-22.5c0,0,9.69,11.96,11.68,18.8l-2.85,3.7Z"/>
              <path class="cls-13" d="m1928.53,430.47s7.06,7.76,24.6,9.15c0,0-7.8-11.42-22-12.53l-2.6,3.38Z"/>
              <path class="cls-13" d="m1924.27,437.83l-1.53,4.6s-9.21-4.09-14.06-17.13c0,0,9.46,4.09,15.6,12.53Z"/>
              <path class="cls-13" d="m1920.52,447.25l-.85,3.71s-12.79.94-18.67-2.39c0,0,9.38-3.66,19.52-1.32Z"/>
              <path class="cls-13" d="m1920.52,447.63l-.34,3.49s6.14,4.35,16.62,4.86c0,0-7.5-9.04-16.28-8.35Z"/>
            </g>
            <path class="cls-28" d="m1934.76,422.35s7.45,7.45,25.95,7.02c0,0-.02-.02-.05-.05-8.53-2.93-23.01-8.16-24.19-8.58l-1.72,1.62Z"/>
            <path class="cls-28" d="m1928.53,430.47s7.06,7.76,24.6,9.15c0,0-.06-.09-.18-.25-6.98-3.62-19.5-9.07-23.09-10.63l-1.33,1.73Z"/>
            <path class="cls-28" d="m1932.22,395.93s-.05-.03-.05-.03c-4.02,17.07,2.51,27.11,2.51,27.11l2.12-2.21c-.01-12.19-2.76-20.61-4.58-24.86Z"/>
            <path class="cls-28" d="m1929.44,428.63c-6.22-6.52-9.15-16.4-10.19-20.7,0,0-.01-.01-.01-.01-.57,13.1,8.83,22.5,8.83,22.5l1.37-1.79Z"/>
            <path class="cls-28" d="m1908.74,425.47c4.88,12.9,14,16.96,14,16.96l.8-2.4c-3.57-2.67-11.71-11.26-14.8-14.56Z"/>
            <path class="cls-28" d="m1922.74,442.43c17.51,3.46,23.4.94,23.76.78-6.34-.94-19.88-2.66-23.01-3.05l-.76,2.27Z"/>
            <path class="cls-28" d="m1936.17,455.28c-6.35-3.56-12.33-4.86-15.87-5.34l-.12,1.19s6.14,4.35,16.62,4.86c0,0-.22-.27-.63-.71Z"/>
            <path class="cls-28" d="m1914.64,449.07c-7.27-.87-11.25-.75-13.43-.39,5.97,3.19,18.46,2.28,18.46,2.28l.24-1.03c-1.35-.3-3.07-.59-5.27-.86Z"/>
            <path class="cls-13" d="m1918.39,460.33s.51-31.2,26.08-45.26l.51.77s-23.78,12.02-25.83,44.5h-.77Z"/>
            <path class="cls-28" d="m1967.99,400.55c-4.29,1.32-12.09,5.04-24.27,15.38-.01.07-.02.12-.02.12,20.12,2.2,24.07-14.51,24.28-15.5Z"/>
          </g>
        </g>
      </g>
      <g class="cls-43">
        <polygon class="cls-18" points="2048 453.33 1024 453.33 1024 474.33 2048 474.33 3072 474.33 3072 453.33 2048 453.33"/>
        <path class="cls-5" d="m2048,453.33h-1024v3.75l4,.25c12.35,1.16,32.3,2.69,57,3,43.6.54,62.34-3.24,103-2,24.49.75,20.07,3.29,60,5,70,3,102,3,147,1,10.02-.45,26.97-4.37,52-6,18.97-1.24,33.84-1.17,45-1,83.96,1.27,97.47,10.47,149,6,21.7-1.88,27.26-4.21,51-5,26.74-.89,38.03,1.44,68,3,24.94,1.3,44.96.87,85,0,68.51-1.48,59.02-4.71,85-3,21.18,1.39,45.82,4.75,88,5,1.5,0,5.16.28,10,0,2.85-.17,7.02-1.08,11.1-2.15,9.15-2.4,18.63-3.27,28.06-2.6,11.34.81,25.56,1.55,41.84,1.75,43.6.54,62.34-3.24,103-2,24.49.75,20.07,3.29,60,5,70,3,102,3,147,1,10.02-.45,26.97-4.37,52-6,18.97-1.24,33.84-1.17,45-1,83.96,1.27,97.47,10.47,149,6,21.7-1.88,27.26-4.21,51-5,26.74-.89,38.03,1.44,68,3,24.94,1.3,44.96.87,85,0,68.51-1.48,59.02-4.71,85-3,21.18,1.39,45.82,4.75,88,5,1.5,0,5.16.28,10,0,7.44-.44,13.6-1.78,18-3l2-1.07v-5.93h-1024Z"/>
        <polygon class="cls-12" points="2560 469.33 2048 469.33 1536 469.33 1024 469.33 1024 512.33 1536 512.33 2048 512.33 2560 512.33 3072 512.33 3072 469.33 2560 469.33"/>
        <g>
          <g>
            <polygon class="cls-8" points="1078 477.33 1108 476.33 1108 512.33 1080 512.33 1078 477.33"/>
            <polygon class="cls-17" points="1174.53 479.33 1179 512.33 1200.23 512.33 1207 476.33 1174.53 479.33"/>
            <polygon class="cls-8" points="1257 476.33 1262.61 512.33 1286.47 512.33 1291 476.33 1257 476.33"/>
            <polygon class="cls-8" points="1332 476.33 1334.79 512.33 1355.53 512.33 1350 476.33 1332 476.33"/>
            <polygon class="cls-17" points="1383.08 473.83 1388.17 512.33 1402 512.33 1406 477.33 1383.08 473.83"/>
            <polygon class="cls-8" points="1497 476.33 1502 512.33 1525.33 512.33 1524 474.33 1497 476.33"/>
            <polygon class="cls-8" points="1539.28 473.83 1543 512.33 1558.05 512.33 1561 477.33 1539.28 473.83"/>
            <polygon class="cls-17" points="1626 476.33 1626 512.33 1646 512.33 1646 474.33 1626 476.33"/>
            <polygon class="cls-8" points="1709 476.33 1709 512.33 1734.67 512.33 1735 476.33 1709 476.33"/>
            <polygon class="cls-8" points="1869 474.33 1873.34 512.33 1893 512.33 1899 476.33 1869 474.33"/>
            <polygon class="cls-17" points="1984 476.33 2004 476.33 2004.16 512.33 1984 512.33 1984 476.33"/>
          </g>
          <polygon class="cls-17" points="1779 479.33 1786 479.33 1778.98 512.33 1772.75 512.33 1779 479.33"/>
          <polygon class="cls-17" points="1568.33 479.33 1595.67 479.33 1594.17 512.33 1566.5 512.33 1568.33 479.33"/>
          <g>
            <polygon class="cls-8" points="2102 477.33 2132 476.33 2132 512.33 2104 512.33 2102 477.33"/>
            <polygon class="cls-17" points="2198.53 479.33 2203 512.33 2224.23 512.33 2231 476.33 2198.53 479.33"/>
            <polygon class="cls-8" points="2281 476.33 2286.61 512.33 2310.47 512.33 2315 476.33 2281 476.33"/>
            <polygon class="cls-8" points="2356 476.33 2358.79 512.33 2379.53 512.33 2374 476.33 2356 476.33"/>
            <polygon class="cls-17" points="2407.08 473.83 2412.17 512.33 2426 512.33 2430 477.33 2407.08 473.83"/>
            <polygon class="cls-8" points="2521 476.33 2526 512.33 2549.33 512.33 2548 474.33 2521 476.33"/>
            <polygon class="cls-17" points="2650 476.33 2650 512.33 2670 512.33 2670 474.33 2650 476.33"/>
            <polygon class="cls-8" points="2733 476.33 2733 512.33 2758.67 512.33 2759 476.33 2733 476.33"/>
            <polygon class="cls-8" points="2893 474.33 2897.34 512.33 2917 512.33 2923 476.33 2893 474.33"/>
            <polygon class="cls-17" points="3008 476.33 3028 476.33 3028.16 512.33 3008 512.33 3008 476.33"/>
          </g>
          <polygon class="cls-17" points="2144 479.33 2144 512.33 2149.25 512.33 2150.75 479.33 2144 479.33"/>
        </g>
        <polygon class="cls-20" points="2816 469.33 2560 469.33 2304 469.33 2048 469.33 1792 469.33 1536 469.33 1280 469.33 1024 469.33 1024 479.33 1280 479.33 1536 479.33 1792 479.33 2048 479.33 2304 479.33 2560 479.33 2816 479.33 3072 479.33 3072 469.33 2816 469.33"/>
      </g>
    </g>
  </g>
  <g id="layer_1" data-name="layer 1">
    <g>
      <g id="layer_5-3" data-name="layer 5">
        <g class="cls-44">
          <polygon class="cls-7" points="1024 .33 0 .33 0 490.33 1024 490.33 2048 490.33 2048 .33 1024 .33"/>
          <path class="cls-35" d="m1455,376.33c-42.41-12.61-63.88-18.4-76-25-40.93-22.3-46.98-42.99-79-47-23.18-2.91-45.22,4.77-66,12-8.01,2.79-10.36,4.14-16.61,7.29.02,2.72.5,5.32,1.61,7.71,9.37,20.21,51.92-.81,97,24,16.9,9.3,10.06,11.78,53,50,30.05,26.74,45.49,40.25,66,47,19.61,6.45,35.16,5.61,65,4,6.63-.36,12.76-.69,18.43-1.06,8.08-6.58,11.24-12.82,12.57-15.94.98-2.28,6.08-14.19,2-26-6.23-18.01-29.23-22.5-78-37Z"/>
          <path class="cls-34" d="m966,474.33s2-345,0-356c0,0-55-28-69-65S880.33.33,880.33.33h23.67s9,46,22,61c10.83,12.5,36,31,41,33s20,9,18-94h18s2,92-9,126l-3,348h-25Z"/>
          <path class="cls-34" d="m555.67,0s-4.67,186.33.33,206.33,28,20,34,19l5,249h27L610.33.33l-16-.33-.33,202.33s-27,4-25-12-2-190.33-2-190.33h-11.33Z"/>
          <path class="cls-34" d="m1159,.33s-4,258,11,295,26,179,26,179h40s-34-119-21-207S1246,7.33,1246,.33h-16.5s-22.5,201-29.5,237-8,52-12,39-14-251-12-276h-17Z"/>
          <path class="cls-34" d="m1405,474.33l-10-245s-56-22-62-86S1322,0,1322,0l20,.33s5,136,13,153,33,54,50,53,14-122,14-122l.2-84h18.8s13,179-21,237l12,237h-24Z"/>
        </g>
      </g>
      <g id="layer_4-3" data-name="layer 4">
        <g class="cls-45">
          <path class="cls-32" d="m1059,474.33v-194s-37-24-38-58,0-222,0-222h13v163c0,6,12,12,16-3S1059,.33,1059,.33h13l-11,172s-3,25-27,13c0,0-.63,14.62,1,44,1,18,17,32,25,36s30,2,35-21c8.12-37.34,10-244,10-244h19s-8.09,228.49-11,245c-3,17-9,34-18,41l-4,188h-32Z"/>
          <path class="cls-32" d="m477,477.33s-17-219-20-252S427.67.33,427.33.33h23.67s1,90,11,110,13-22,13-22L480,.33h17.33s-2.33,121-7.33,136-23,12-23,12c0,0,19,188,20,200s19,19,24-12S529.33.33,529.33.33h18s-15.33,338-20.33,351-15,34-34,27l7,96-23,3Z"/>
          <path class="cls-32" d="m699,469.33v-120s-46,8-43-58,0-291,0-291h21.43s-1.43,273-.43,285,2,41,29,36V.33h23s-2,127,0,138,19,34,24-2S764,.33,764,.33h27s-9,147-22,168c-7.59,12.26-36,12-36,12l-2,294-32-5Z"/>
          <path class="cls-16" d="m845,474.33s-23-165-27-213S796,8.33,799,.33l22.83-.33s18.17,268.33,23.17,318.33,8,11,15-27S887,16.33,887,.33h21s-17,228-20,245-15,118-19,130l14,99h-38Z"/>
          <path class="cls-16" d="m1207,.33s-1,168,8,196,45,40,53,37l7,236h29.33l-6.33-124s56,0,56-41V.33l-13.67-.33s3.67,161.33.67,175.33-21,15-21-12-.33-163.33-.33-163.33l-14.67.67s-4,176.67-1,186.67,18,21,34,13v102s1,18-38,27L1291,.33l-35.33-.33,7.33,204.33s-23,6-23-14S1235.67.33,1235.67.33h-28.67Z"/>
          <path class="cls-32" d="m1501,477.33s-17-219-20-252S1451.67.33,1451.33.33h23.67s1,90,11,110,13-22,13-22l5-88h17.33s-2.33,121-7.33,136-23,12-23,12c0,0,19,188,20,200s19,19,24-12S1553.33.33,1553.33.33h18s-15.33,338-20.33,351-15,34-34,27l7,96-23,3Z"/>
          <path class="cls-24" d="m1466,.33s-5,212,140,216S1757.69.33,1757.69.33h7.85s-.54,229.41-159.54,225.21C1447,221.33,1457.67.33,1457.67.33h8.33Z"/>
          <path class="cls-4" d="m1130.87.33s54.13,140,258.13,136S1634,.33,1634,.33h8.61s-44.61,142-253.61,144S1125,.33,1124,.33s0,0,0,0h6.87Z"/>
          <path class="cls-24" d="m442,.33s-5,212,140,216S733.69.33,733.69.33h7.85s-.54,229.41-159.54,225.21C423,221.33,433.67.33,433.67.33h8.33Z"/>
          <path class="cls-4" d="m106.87.33s54.13,140,258.13,136S610,.33,610,.33h8.61s-44.61,142-253.61,144S101,.33,100,.33s0,0,0,0h6.87Z"/>
        </g>
      </g>
      <g id="layer_3-3" data-name="layer 3">
        <g class="cls-38">
          <path class="cls-37" d="m1028,450.33v.06s58.42,15.53,89.12,2.4c0,0-10.51-12.69-27.11-21.83,10.6-6.67,21.28-16.31,31.31-30.07,0,0-12.84-4.5-30.88-5.8,6.05-11.64,10.11-25.21,10.63-40.98,0,0-11.24,3.69-25.82,10.86,5.19-10.91,10.12-22.95,14.52-36.28,0,0-26.79-5.53-52.28,18.61-6-14.27-16.25-29.21-32.65-44.19,0,0-10.56,14.25-16.98,35.39-21.91-19.66-47.47-14.61-47.47-14.61,1.87,9.84,4.17,18.84,6.75,27.15-15.55-4.05-27.59-3.9-27.59-3.9,5.21,20.03,12.69,36.04,21.02,48.84-10.77-.76-22.76-.06-35.95,2.83,0,0,11.07,17.82,35.83,33.45-17.78,9.19-27.35,25.01-27.35,25.01,48.52,11.94,114.72-5.71,114.72-5.71l.18-1.23Z"/>
          <path class="cls-9" d="m934,452.33v.05s47.68,12.68,72.73,1.96c0,0-8.58-10.36-22.13-17.81,8.66-5.44,17.37-13.31,25.56-24.55,0,0-10.48-3.67-25.2-4.74,4.94-9.5,8.25-20.57,8.67-33.45,0,0-9.18,3.01-21.08,8.87,4.24-8.9,8.26-18.73,11.85-29.61,0,0-21.87-4.52-42.67,15.19-4.89-11.65-13.26-23.84-26.65-36.06,0,0-8.62,11.63-13.85,28.89-17.88-16.05-38.75-11.92-38.75-11.92,1.53,8.03,3.4,15.38,5.51,22.16-12.69-3.3-22.52-3.18-22.52-3.18,4.25,16.35,10.36,29.42,17.16,39.86-8.79-.62-18.57-.05-29.34,2.31,0,0,9.03,14.54,29.24,27.3-14.51,7.5-22.32,20.42-22.32,20.42,39.6,9.75,93.63-4.66,93.63-4.66l.15-1Z"/>
          <path class="cls-21" d="m704,391s-23.17-7.58-66.4-1.35c29.5-27.2,45.73-54.65,45.73-54.65-20.48,4.82-37.9,11.63-52.55,19.19,3.81-16.81,6.58-37.21,6.32-60.66,0,0-15.51,14.53-29.33,36.71-.87-37.43-16.97-64.58-16.97-64.58-23.7,18.97-39.93,37.89-50.73,56.02-15.79-34.23-33.26-55.54-33.26-55.54-4.96,24.46.83,58.03,8.36,86.74-70.86-41.78-100.08-33.49-100.08-33.49,18.48,26.36,37.71,47.39,56.36,64.16-43.09-10.65-83.71-16.59-83.71-16.59,29.46,34.85,66.46,54.86,98.25,66.33-36.75,4.8-48.98,13.37-48.98,13.37,44.48,20.02,90.57,16.66,112.78,13.23,12.04,2.63,64.11,10.54,140.3-27.34,0,0-17.68-8.13-44.26-11.69,17.31-6.55,36.83-16.09,58.17-29.87Z"/>
          <g>
            <path class="cls-9" d="m648.54,446.56s-54.43-76.58,42.43-154.1c0,0,51.37,86.59-42.43,154.1Z"/>
            <path class="cls-9" d="m680.83,437.74s-65.59-10.03-121.37-89.58c0,0,33.5-9.52,118.82,57.36l2.56,32.22Z"/>
            <path class="cls-9" d="m670.09,427.11s56.75,13.57,142.91-42.11c0,0-48.49-15.88-136.09,17.17l-6.82,24.94Z"/>
            <path class="cls-9" d="m669.54,445.33s-73.61-2.96-120.53-58.47c0,0,84.4,12.33,118.21,32.68l2.31,25.79Z"/>
            <path class="cls-9" d="m656.12,453.24s55.65,16.73,142.97-26.68c0,0-69.6-32.01-140.25,3.19l-2.72,23.49Z"/>
            <path class="cls-9" d="m672.39,451.24s-64.74,17.18-126.38-10.57c0,0,28.79-20.21,130.89-15.93l-4.51,26.51Z"/>
            <path class="cls-9" d="m699.47,415.31l-24.24-11.63s28.88-47.77,103.95-65.44c0,0-29.06,49.18-79.71,77.07Z"/>
            <path class="cls-9" d="m661.68,404.58l-20.99,1.86s-26.86-65.77-19.42-102.46c0,0,35.36,43.13,40.41,100.6Z"/>
            <path class="cls-9" d="m696.4,400.94l19.44.73s22.01-35.39,21.36-93.56c0,0-47.49,44.49-40.81,92.83Z"/>
          </g>
          <path class="cls-21" d="m913,452.03s-17.87-12.59-45.33-19.35c11.13-4.46,23.49-10.68,36.9-19.35,0,0-13.08-4.28-37.65-1.92,16.76-16.73,25.9-32.19,25.9-32.19-17.08,4.02-31.01,10.07-42.2,16.59,5.32-8.11,10.6-19.57,11.05-33.57,0,0-15.81,8.11-27.77,19.65-1.12-24.7-12.97-43.69-12.97-43.69-12,9.45-20.49,19.09-26.36,28.57-9.73-16.61-19.91-26.33-19.91-26.33-4.64,12.76-3.94,28.78-1.29,43.76-32.88-15.73-46.81-11.78-46.81-11.78,11.39,16.24,23.21,29.42,34.74,40.11-20.48-4.83-38.76-7.5-38.76-7.5,13.24,15.66,29.45,25.48,44.23,31.62-39.17,2.16-51.34,10.69-51.34,10.69,36.93,16.63,75.5,9.43,83.87,7.55,14.84,5.1,53.95,14.2,113.71-2.88Zm-83.39-41.08c.2-.54.4-1.08.58-1.62h1.29c-.64.54-1.26,1.08-1.87,1.62Z"/>
          <path class="cls-9" d="m1513,434.13s-21.94-15.47-56.38-25.32c16.51-6.82,34.74-16.14,54.41-28.85,0,0-25.51-8.35-73.06-1.13,31.17-33.87,48.43-66.26,48.43-66.26-15.62,4.4-29.7,9.91-42.34,16.06,4.18-10.88,7.16-23.32,7.6-37.09,0,0-16.73,8.59-34.42,21.99.99-50.14-24.01-90.18-24.01-90.18-22.07,17.39-37.72,35.13-48.54,52.57-17.9-30.57-36.65-48.45-36.65-48.45-8.54,23.48-7.26,52.98-2.38,80.56-60.53-28.96-86.17-21.69-86.17-21.69,20.96,29.9,42.72,54.15,63.96,73.83-37.69-8.89-71.36-13.81-71.36-13.81,24.37,28.83,54.21,46.9,81.41,58.2-72.1,3.98-94.5,19.69-94.5,19.69,66.63,29.99,136.14,17.86,153.4,14.12,21.38,7.25,76.58,19.77,160.59-4.24Z"/>
          <path class="cls-21" d="m1136,455.33v.05s47.68,12.68,72.73,1.96c0,0-8.58-10.36-22.13-17.81,8.66-5.44,17.37-13.31,25.56-24.55,0,0-10.48-3.67-25.2-4.74,4.94-9.5,8.25-20.57,8.67-33.45,0,0-9.18,3.01-21.08,8.87,4.24-8.9,8.26-18.73,11.85-29.61,0,0-21.87-4.52-42.67,15.19-4.89-11.65-13.26-23.84-26.65-36.06,0,0-8.62,11.63-13.85,28.89-17.88-16.05-38.75-11.92-38.75-11.92,1.53,8.03,3.4,15.38,5.51,22.16-12.69-3.3-22.52-3.18-22.52-3.18,4.25,16.35,10.36,29.42,17.16,39.86-8.79-.62-18.57-.05-29.34,2.31,0,0,9.03,14.54,29.24,27.3-14.51,7.5-22.32,20.42-22.32,20.42,39.6,9.75,93.63-4.66,93.63-4.66l.15-1Z"/>
          <path class="cls-21" d="m1728,391s-23.17-7.58-66.4-1.35c29.5-27.2,45.73-54.65,45.73-54.65-20.48,4.82-37.9,11.63-52.55,19.19,3.81-16.81,6.58-37.21,6.32-60.66,0,0-15.51,14.53-29.33,36.71-.87-37.43-16.97-64.58-16.97-64.58-23.7,18.97-39.93,37.89-50.73,56.02-15.79-34.23-33.26-55.54-33.26-55.54-4.96,24.46.83,58.03,8.36,86.74-70.86-41.78-100.08-33.49-100.08-33.49,18.48,26.36,37.71,47.39,56.36,64.16-43.09-10.65-83.71-16.59-83.71-16.59,29.46,34.85,66.46,54.86,98.25,66.33-36.75,4.8-48.98,13.37-48.98,13.37,44.48,20.02,90.57,16.66,112.78,13.23,12.04,2.63,64.11,10.54,140.3-27.34,0,0-17.68-8.13-44.26-11.69,17.31-6.55,36.83-16.09,58.17-29.87Z"/>
          <path class="cls-15" d="m1147,405.33c-6.67-22.38-9.92-33.74-6-42,4.75-10,13.48-11.49,49-27,33.54-14.64,29.58-14.98,44-20,20.78-7.23,42.82-14.91,66-12,32.02,4.01,38.07,24.7,79,47,12.12,6.6,33.59,12.39,76,25,48.77,14.5,71.77,18.99,78,37,4.08,11.81-1.02,23.72-2,26-2.25,5.24-9.67,19.36-37,29-79.57,28.08-194.19-28.88-278-4-7.22,2.14-24.19,7.86-39,0-14.75-7.83-19.93-25.19-30-59Z"/>
          <path class="cls-25" d="m1207.82,328.29s41.09,5.52,62.18,34.04c17,23,12,46,25,66,10.47,16.11,39,38,39,38l143-9s-78.13-11.85-110-39c-27-23-33.19-60.8-46-73-21-20-67-31-84-31,0,0-9.35-1.08-29.18,13.96Z"/>
          <path class="cls-29" d="m1230,314.33s-20.83,11.22-22,14c0,0,19,3,31,11,11.83,7.88,43.69,23,47.85,39,4.15,16,6.15,29,16.15,43,32.3,45.21,59.08,57.53,11.18,6.61-6.78-7.2-12.13-15.63-15.79-24.82-1.44-3.62-4.73-14.19-5.38-16.79-2-8-2-17-10-27.68-9.04-12.07-15-17.32-15-17.32l7.71,3s13.29,6,19.29,20c4.79,11.18,5,34,15,52,8.5,15.29,45.79,42.5,50,43,17,2-35-37-35-37,0,0-11-9-14-23s-3-37-20-53-13-11-13-11c0,0-9-6,0-4s22,9,27,20,10,36,13,44,13.72,24.74,24,31c100.51,61.22,63.28,24.09,14.32-1.33-8.55-4.44-16.26-10.41-22.41-17.83-4.13-4.98-7.79-10.84-8.91-16.84-3-16-7-26-10-38-3.04-12.16-22-22-40-28s-45-10-45-10Z"/>
        </g>
      </g>
      <g id="layer_2-3" data-name="layer 2">
        <g class="cls-47">
          <g>
            <path class="cls-6" d="m850.12,342.42s-9.51-63.1,9.51-114.1c0,0,22.47,73.47,12.97,114.1,0,0-17.29,10.37-22.47,0Z"/>
            <path class="cls-6" d="m861.35,338.97s62.23-32.85,98.54-26.8c0,0-15.56,22.47-84.71,40.63,0,0-25.93,6.91-13.83-13.83Z"/>
            <circle class="cls-3" cx="849.25" cy="303.53" r="11.24" transform="translate(346.51 1052.26) rotate(-75.79)"/>
            <circle class="cls-3" cx="876.05" cy="311.31" r="16.42" transform="translate(427.76 1125.8) rotate(-80.73)"/>
            <path class="cls-2" d="m861.34,338.95s19.9-70.86,70.03-84.69c0,0-13.01,56.18-50.13,95.08,0,0-21.64-4.35-19.9-10.39Z"/>
            <path class="cls-2" d="m857.03,351.93s-30.25-25.07-38.03-80.39c0,0,34.57,29.39,47.54,53.59,12.97,24.2-9.51,26.8-9.51,26.8Z"/>
            <path class="cls-2" d="m855.3,356.25l-10.52-17.3s28.45,3.26,39.91,11.25c.4.28-1.88,2.59-1.88,2.59l-11.95,7.78s-8.64,66.56-2.59,114.96l-15.56,1.3s-7.78-75.63,2.59-120.58Z"/>
          </g>
          <g>
            <path class="cls-2" d="m1124.13,472.2s-30.21-101.05,37.83-172.48l2.43,1.95s-64.36,63.01-37.79,169.75l-2.47.78Z"/>
            <path class="cls-2" d="m1160.49,303.67s-10.94-56.26,62.4-74.91c0,0,6.71,61.04-62.4,74.91Z"/>
            <path class="cls-2" d="m1138.51,335.26s-31.28-25.69-35.77-84.78c0,0,20.53,5.44,44.46,67.08l-8.69,17.7Z"/>
            <path class="cls-2" d="m1138.08,333.11s31.59,16.39,90.8-3.88c0,0-26.36-16.54-83.09-9.88l-7.71,13.76Z"/>
            <path class="cls-2" d="m1124.78,365.91s-39.89-20.69-51.43-63.49c0,0,43.42,28.66,56.83,48.65l-5.4,14.84Z"/>
            <path class="cls-2" d="m1126.31,365.63s30.66,17.79,88.61,4.36c0,0-36.78-28.82-83.68-17.91l-4.93,13.55Z"/>
            <path class="cls-2" d="m1120.1,393.69s37.42-16.39,77.17-5.41c0,0-15.47,14.87-77.41,21.81l.24-16.4Z"/>
            <path class="cls-2" d="m1120.1,393.69l-.24,16.4s-33.84-3.78-62.81-40.84c0,0,34.67,3.52,63.06,24.45Z"/>
            <path class="cls-2" d="m1117.64,427.88l1.04,12.81s-40.24,16.08-62.59,11.37c0,0,26.47-21.37,61.55-24.18Z"/>
            <path class="cls-2" d="m1118.03,429.1l2.47,11.61s24.21,7.74,58.52-1.32c0,0-33.4-21.45-60.99-10.29Z"/>
          </g>
          <g>
            <path class="cls-6" d="m1034.44,461.39s.28-63.7-49.27-93.41l-1.03,1.55s46.13,25.47,48.8,91.84l1.5.03Z"/>
            <path class="cls-6" d="m986.63,370.01s-3.12-34.46-46.98-32.69c0,0,6.25,36.5,46.98,32.69Z"/>
            <path class="cls-6" d="m1004.03,384.54s13.2-20.23,6.03-55.23c0,0-10.54,6.67-13.77,46.47l7.73,8.76Z"/>
            <path class="cls-6" d="m1003.92,383.22s-14.9,14.9-51.16,13.31c0,0,11.96-14.09,44.62-19.95l6.54,6.65Z"/>
            <path class="cls-6" d="m1016.69,399.94s18.81-18.82,18.23-45.58c0,0-19.48,24.04-23.67,37.91l5.43,7.67Z"/>
            <path class="cls-6" d="m1015.78,400.04s-14.15,15.55-48.6,17.7c0,0,15.75-22.99,43.64-24.71l4.96,7.01Z"/>
            <path class="cls-6" d="m1023.83,415.22s-23.51-3.08-43.83,10.08c0,0,11.04,5.96,46.65-.63l-2.82-9.46Z"/>
            <path class="cls-6" d="m1023.83,415.22l2.82,9.46s18.21-7.99,28.27-34.42c0,0-18.72,7.98-31.09,24.96Z"/>
            <path class="cls-6" d="m1030.8,434.6l1.52,7.6s25.03,2.42,36.69-4.14c0,0-18.23-7.84-38.21-3.46Z"/>
            <path class="cls-6" d="m1030.78,435.38l.52,7.15s-12.21,8.63-32.78,9.26c0,0,15.08-18.15,32.26-16.41Z"/>
          </g>
          <g>
            <path class="cls-13" d="m1225.38,375.52s6.3-40.26-6.3-72.8c0,0-14.89,46.88-8.59,72.8,0,0,11.45,6.62,14.89,0Z"/>
            <path class="cls-13" d="m1217.94,373.31s-41.24-20.96-65.29-17.1c0,0,10.31,14.34,56.13,25.92,0,0,17.18,4.41,9.16-8.82Z"/>
            <path class="cls-19" d="m1218.51,350.7c0,3.96,3.33,7.17,7.45,7.17s7.45-3.21,7.45-7.17-3.33-7.17-7.45-7.17-7.45,3.21-7.45,7.17Z"/>
            <ellipse class="cls-19" cx="1208.2" cy="355.66" rx="10.88" ry="10.48"/>
            <path class="cls-13" d="m1217.95,373.3s-13.18-45.21-46.4-54.04c0,0,8.07,34.19,32.67,59.01,0,0,14.88-1.12,13.73-4.97Z"/>
            <path class="cls-13" d="m1220.8,381.58s20.04-15.99,25.2-51.29c0,0-22.91,18.75-31.5,34.19-8.59,15.44,6.3,17.1,6.3,17.1Z"/>
            <path class="cls-22" d="m1221.95,384.34l6.97-11.04s-18.85,2.08-26.44,7.18c-.27.18,1.25,1.65,1.25,1.65l7.92,4.96s5.73,42.47,1.72,73.35l10.31.83s5.15-48.26-1.72-76.93Z"/>
          </g>
          <g>
            <path class="cls-2" d="m990.21,466.29s-17.24-33.9-20.73-43.7c0,0,15.55,1.17,22.86,14.07,7.32,12.9,11.73,30.43,9.34,31.03l-11.48-1.4Z"/>
            <path class="cls-27" d="m997.53,465.3s-11.24-36.05-7.49-60.87c0,0,14.05.47,21.54,59l-14.05,1.87Z"/>
            <path class="cls-2" d="m1005.02,464.3s-2.34-60.34,15.45-79.07c0,0,10.32,41.08.94,79.07h-16.4Z"/>
            <path class="cls-27" d="m1016.57,464.3s-.31-29.9,35.27-34.59c0,0-17.79,27.16-23.41,35.58l-11.86-1Z"/>
            <path class="cls-27" d="m992.38,464.83s-13.11-17.79-26.22-18.73c0,0,14.05,14.05,16.86,19.2l9.36-.47Z"/>
          </g>
          <g>
            <path class="cls-23" d="m664,459.33s2-56-28-87l3-3s31,28,30,90h-5Z"/>
            <path class="cls-30" d="m633,405.33l8.44-11.81c-3.15-1.59-6.75-3-10.85-4.07l-6.59,17.88h-6l6.94-19.08c-3.23-.53-6.72-.86-10.49-.93l-4.45,14.01-4-1,.75-12.8c-3.69.27-7.63.79-11.79,1.57l2.04,12.22h-4l-10.01-9.34c-5.62,1.62-11.6,3.71-17.99,6.34,0,0,2.17,2.74,5.9,6.79l9.1-3.79,4,5-7.88,4.2c2.74,2.73,5.9,5.68,9.38,8.61l8.5-9.81,4,1-3.57,15.69c2.48,1.73,5.04,3.37,7.68,4.85l6.89-14.55,4,2-3.11,16.35c2.68,1.1,5.39,1.99,8.11,2.62v-16.96h8l-2.43,17.84c8.11.69,16.19-1.35,23.56-7.71l-11.13-11.13,3-3,11.59,10.76c3.63-3.95,7.05-9.06,10.17-15.57,0,0-3.71-7.89-13.65-14.67l-7.11,9.48-7-1Z"/>
            <path class="cls-30" d="m755.46,374.03c1.61-9.67.87-17.07.87-17.07,0,0-4.9-1.28-13.04-2.21l-6.29,12.59-5,1,3.56-14.26c-3.57-.21-7.5-.32-11.72-.24l-.84,18.5-7,2,4.64-20.41c-6.43.26-13.44.97-20.79,2.37l5.15,24.03-6,1-3.7-24.08c-.19.04-.38.08-.57.13-4.24.98-7.93,2.6-11.15,4.67l8.43,25.28-8,4-6.67-24.17c-4.28,4.39-7.39,9.7-9.64,15.11l10.31,13.06-6,4-6.64-10.51c-3.74,12.41-3.6,23.64-3.6,23.64,2.2.63,4.33,1.19,6.43,1.71l2.81-9.84h4l-2.51,10.87c3.05.69,5.99,1.26,8.82,1.74l3.69-16.61,14-5,4.65,23.27c3.23-.11,6.26-.4,9.11-.84l-2.76-29.43,9-3,9.27,27.82c3.08-1.45,5.84-3.14,8.29-5.01l-9.56-27.81,8-2,15.53,12.08c1.11-2.4,2.02-4.82,2.76-7.2l-17.29-9.88,6-2,13.46,2.69Z"/>
            <path class="cls-30" d="m573,310.33l-14.5-3.48c1.88,5.94,3.91,11.42,6.05,16.48h25.46l4,7-22.73,6.94c5.06,9.19,10.52,16.58,16.13,22.51l16.6-12.45,9,4-18.99,14.77c4.21,3.6,8.44,6.46,12.57,8.74l13.41-20.51,4,4-7.02,21.19c17.12,6.04,30.49,3,30.49,3,3.05-5.38,5.63-10.47,7.8-15.29l-19.28-8.9-2-7,24.58,7.93c3.02-8.04,4.75-15.24,5.4-21.68l-34.98-5.25-1-6,35.73-1.7c-2.16-13.92-10.62-23.21-21.99-29.31l-22.74,20.02-4-5,18.67-18.67c-9.32-3.55-19.81-5.51-30.08-6.51l-5.59,19.18-6-3s3.84-10.98,5.43-16.67c-7.5-.47-14.71-.47-21.07-.25l-1.36,12.93h-5l-3.87-12.37c-8.02.6-13.13,1.37-13.13,1.37,1.05,4.69,2.18,9.14,3.37,13.39l15.63,6.61,1,4Z"/>
            <path class="cls-10" d="m750.53,390.91c1.11-2.4,2.72-6.2,3.47-8.58l-17-9,5-1.5,13.46,2.69c1.04-6.24,1.1-11.52,1.01-14.49l-50.47,24.3-30.31,15.15c-3.77,1.88-7.21,4.36-10.19,7.34l-3.69,3.69c-.07,1.56-.06,2.45-.06,2.45,2.2.63,4.33,1.19,6.43,1.71l2.81-9.84h4l-2.51,10.87c3.05.69,5.99,1.26,8.82,1.74l3.69-16.61,14-5,4.65,23.27c3.23-.11,6.26-.4,9.11-.84l-2.76-29.43,9-3,9.27,27.82c3.08-1.45,5.84-3.14,8.29-5.01l-9.56-27.81,8-2,15.53,12.08Z"/>
            <path class="cls-10" d="m611,331.08l35.2,51.67c.83-.13,1.28-.23,1.28-.23,3.05-5.38,5.63-10.47,7.8-15.29l-19.28-8.9-2-7,24.58,7.93c3.02-8.04,4.75-15.24,5.4-21.68l-34.98-5.25-1-6,35.73-1.7c-2.16-13.92-10.62-23.21-21.99-29.31l-22.74,20.02-4-5,18.67-18.67c-9.32-3.55-19.81-5.51-30.08-6.51l-5.59,19.18-6-3s3.84-10.98,5.43-16.67c-7.5-.47-14.71-.47-21.07-.25l-1.36,12.93h-5l-3.87-12.37c-8.02.6-13.13,1.37-13.13,1.37l8.99,8.99c2.66,2.66,5.68,4.91,8.99,6.7l19.52,10.55c8.21,4.44,15.24,10.79,20.5,18.5Z"/>
            <path class="cls-10" d="m636,419.33l3-3,11.59,10.76c3.63-3.95,7.05-9.06,10.17-15.57,0,0-.25-.53-.79-1.43l-27.3,2.9c-8.31.88-16.72-.28-24.48-3.38l-13.18-5.27-9.27-3.86c-1.81-.75-3.7-1.3-5.64-1.62l-11.54-1.92c-1.17.46-2.34.91-3.54,1.41,0,0,2.17,2.74,5.9,6.79l9.1-3.79,4,5-7.88,4.2c2.74,2.73,5.9,5.68,9.38,8.61l8.5-9.81,4,1-3.57,15.69c2.48,1.73,5.04,3.37,7.68,4.85l6.89-14.55,4,2-3.11,16.35c2.68,1.1,5.39,1.99,8.11,2.62v-16.96h8l-2.43,17.84c8.11.69,16.19-1.35,23.56-7.71l-11.13-11.13Z"/>
          </g>
          <g>
            <path class="cls-36" d="m482.36,463.45s-36.82-72.4-44.27-93.32c0,0,33.2,2.49,48.83,30.04,15.63,27.55,25.06,64.98,19.96,66.27l-24.52-2.99Z"/>
            <path class="cls-14" d="m498,461.33s-24-77-16-130c0,0,30,1,46,126l-30,4Z"/>
            <path class="cls-14" d="m513.99,459.2s-4.99-128.87,33.01-168.87c0,0,22.04,87.73,2.02,168.87h-35.02Z"/>
            <path class="cls-14" d="m538.67,459.2s-.67-63.87,75.33-73.87c0,0-38,58-50,76l-25.33-2.13Z"/>
            <path class="cls-14" d="m487,460.33s-28-38-56-40c0,0,30,30,36,41l20-1Z"/>
            <path class="cls-31" d="m547.75,459.33c1.03-2.99,2.28-6.64,3.64-10.61,15.77-77.98-4.39-158.26-4.39-158.26-.34.36-.67.74-1.01,1.11-3.22,20.16-13.16,83.35-13.99,101.75-.83,18.16-1.65,54.03-1.91,66h17.66Z"/>
            <path class="cls-36" d="m564,461.33c12-18,50-76,50-76-41.67,14.19-60.55,63.75-64.29,74.8l14.29,1.2Z"/>
            <path class="cls-36" d="m529,456.33c-16.21-117.9-47-125-47-125,0,.02,0,.04,0,.07,6.39,15.68,21.13,55.11,25.01,93.93,1.68,16.79,2.91,27.49,3.8,34.29l12.23-1.63c.81-1.55,4.26,1.67,5.97-1.66Z"/>
            <path class="cls-31" d="m438.85,370.21c10.51,7.65,29.83,22.49,34.15,31.13,5.76,11.52,19.8,31.33,23.57,63.85l10.31,1.26c5.1-1.29-4.33-38.72-19.96-66.27-14.24-25.1-43.06-29.4-48.07-29.96Z"/>
            <path class="cls-31" d="m487,460.33s-27.08-36.72-54.6-39.85c8.34,3.6,17.73,8.48,22.6,13.85,6.18,6.8,15.03,18.56,20.89,26.56l11.11-.56Z"/>
          </g>
          <g>
            <path class="cls-1" d="m807.54,410.9s12.88-7.41,20.4-28.61c0,0-15.33-3.52-21.43,21.64l1.03,6.97Z"/>
            <path class="cls-1" d="m807.87,410.78s-12.08,3.84-29.24-7.42c0,0,9.02-13.96,28.2,1.93l1.04,5.49Z"/>
            <path class="cls-1" d="m809.38,423.32s19.79-2.48,23.62-19.58c0,0-19.7,2.8-23.79,13.85l.17,5.73Z"/>
            <path class="cls-1" d="m809.3,423.36s-12.77,6.74-29.41-4.3c0,0,14.92-13.72,29.26-.94l.15,5.23Z"/>
            <path class="cls-1" d="m809.62,431.93s-9.65-9.69-25.5-4.31c0,0,7.98,10.14,24.36,10.33l1.14-6.02Z"/>
            <path class="cls-1" d="m809.53,431.9l-1.19,6.02s15.54,4.14,24.2-12.9c0,0-14.34-2.58-23.02,6.88Z"/>
            <path class="cls-1" d="m807.46,443.18l-1.56,4.61s11.78,7.95,19.61,7.4c0,0-5.3-14.23-18.06-12.02Z"/>
            <path class="cls-1" d="m807.26,443.46l-1.36,4.28s-8.6,2.91-19.89-.34c0,0,8.18-12.44,21.25-3.94Z"/>
            <path class="cls-13" d="m809.27,419.68l.11,3.65s19.63-2.46,23.58-19.38c-6.66,5.32-21.37,14.32-23.68,15.73Z"/>
            <path class="cls-13" d="m808.35,437.92s15.33,4.07,24.03-12.58c-4.84,2.91-19.49,7.79-23.34,9.05l-.69,3.52Z"/>
            <path class="cls-13" d="m806.66,445.54l-.76,2.25s11.66,7.87,19.49,7.41c-5.07-5.51-15.23-8.69-18.73-9.66Z"/>
            <path class="cls-13" d="m805.9,447.74l.61-1.93-.21-.7s-15.24,1.3-20.3,2.28h0c11.29,3.25,19.89.34,19.89.34Z"/>
            <path class="cls-13" d="m784.15,427.66c.53.65,8.51,10.11,24.33,10.29l.63-3.31c-5.05-4.42-19.36-6.37-24.95-6.98Z"/>
            <path class="cls-13" d="m779.94,419.1c16.61,10.99,29.36,4.27,29.36,4.27l-.1-3.33c-11.53-5-24.85-2.13-29.27-.94Z"/>
            <path class="cls-13" d="m807.87,410.78l-.66-3.48c-2.47-.69-20.41-5.58-28.5-4.06-.05.07-.08.12-.08.12,17.16,11.26,29.24,7.42,29.24,7.42Z"/>
            <path class="cls-13" d="m799,464.93s20.73-34.58,6.19-64.95l-1,.54s14.25,27.08-5.91,63.96l.72.45Z"/>
            <path class="cls-13" d="m827.66,382.75s-.06-.01-.19-.04c-2.77,1.85-8.34,5.73-10.34,8.28-2.71,3.46-8.74,12.91-9.97,17.38-.08.31.88.36.82.63l.35,1.5s11.8-6.56,19.32-27.76Z"/>
            <path class="cls-1" d="m805.24,401.5s9.62-19.64-12.33-31.25c0,0-8.75,21.65,12.33,31.25Z"/>
            <path class="cls-13" d="m792.97,370.28c3.68,6.89,10.91,21.41,12.04,31.11.08.04.16.08.24.11,0,0,9.6-19.61-12.27-31.22Z"/>
          </g>
          <g>
            <path class="cls-36" d="m1506.36,463.45s-36.82-72.4-44.27-93.32c0,0,33.2,2.49,48.83,30.04,15.63,27.55,25.06,64.98,19.96,66.27l-24.52-2.99Z"/>
            <path class="cls-14" d="m1522,461.33s-24-77-16-130c0,0,30,1,46,126l-30,4Z"/>
            <path class="cls-14" d="m1537.99,459.2s-4.99-128.87,33.01-168.87c0,0,22.04,87.73,2.02,168.87h-35.02Z"/>
            <path class="cls-14" d="m1562.67,459.2s-.67-63.87,75.33-73.87c0,0-38,58-50,76l-25.33-2.13Z"/>
            <path class="cls-14" d="m1511,460.33s-28-38-56-40c0,0,30,30,36,41l20-1Z"/>
            <path class="cls-31" d="m1571.75,459.33c1.03-2.99,2.28-6.64,3.64-10.61,15.77-77.98-4.39-158.26-4.39-158.26-.34.36-.67.74-1.01,1.11-3.22,20.16-13.16,83.35-13.99,101.75-.83,18.16-1.65,54.03-1.91,66h17.66Z"/>
            <path class="cls-36" d="m1588,461.33c12-18,50-76,50-76-41.67,14.19-60.55,63.75-64.29,74.8l14.29,1.2Z"/>
            <path class="cls-36" d="m1553,456.33c-16.21-117.9-47-125-47-125,0,.02,0,.04,0,.07,6.39,15.68,21.13,55.11,25.01,93.93,1.68,16.79,2.91,27.49,3.8,34.29l12.23-1.63c.81-1.55,4.26,1.67,5.97-1.66Z"/>
            <path class="cls-31" d="m1462.85,370.21c10.51,7.65,29.83,22.49,34.15,31.13,5.76,11.52,19.8,31.33,23.57,63.85l10.31,1.26c5.1-1.29-4.33-38.72-19.96-66.27-14.24-25.1-43.06-29.4-48.07-29.96Z"/>
            <path class="cls-31" d="m1511,460.33s-27.08-36.72-54.6-39.85c8.34,3.6,17.73,8.48,22.6,13.85,6.18,6.8,15.03,18.56,20.89,26.56l11.11-.56Z"/>
          </g>
          <g>
            <path class="cls-14" d="m1199.8,460.33s-1.03-30.28,14.43-47.05l-1.55-1.62s-15.97,15.14-15.46,48.67h2.58Z"/>
            <path class="cls-14" d="m1215.78,431.13l-4.35-6.39c1.62-.86,3.48-1.62,5.59-2.2l3.39,9.67h3.09l-3.58-10.32c1.66-.29,3.46-.47,5.4-.5l2.29,7.58,2.06-.54-.39-6.92c1.9.14,3.93.42,6.08.85l-1.05,6.61h2.06l5.16-5.05c2.9.88,5.98,2,9.27,3.43,0,0-1.12,1.48-3.04,3.67l-4.69-2.05-2.06,2.7,4.06,2.27c-1.41,1.47-3.04,3.07-4.83,4.65l-4.38-5.3-2.06.54,1.84,8.49c-1.28.94-2.6,1.82-3.96,2.62l-3.55-7.87-2.06,1.08,1.6,8.84c-1.38.6-2.78,1.08-4.18,1.42v-9.17h-4.12l1.25,9.65c-4.18.37-8.34-.73-12.14-4.17l5.73-6.02-1.55-1.62-5.97,5.82c-1.87-2.13-3.63-4.9-5.24-8.42,0,0,1.91-4.27,7.03-7.93l3.66,5.12,3.61-.54Z"/>
            <path class="cls-14" d="m1152.67,414.2c-.83-5.23-.45-9.23-.45-9.23,0,0,2.53-.69,6.72-1.2l3.24,6.81,2.58.54-1.84-7.71c1.84-.12,3.87-.18,6.04-.13l.43,10.01,3.61,1.08-2.39-11.04c3.31.14,6.93.53,10.71,1.28l-2.65,13,3.09.54,1.91-13.02c.1.02.2.04.29.07,2.18.53,4.09,1.41,5.75,2.53l-4.34,13.67,4.12,2.16,3.44-13.07c2.21,2.38,3.81,5.24,4.97,8.17l-5.31,7.06,3.09,2.16,3.42-5.68c1.93,6.71,1.86,12.79,1.86,12.79-1.13.34-2.23.64-3.31.93l-1.45-5.32h-2.06l1.29,5.88c-1.57.37-3.08.68-4.54.94l-1.9-8.98-7.21-2.7-2.4,12.58c-1.66-.06-3.22-.22-4.69-.46l1.42-15.91-4.64-1.62-4.78,15.04c-1.59-.78-3.01-1.7-4.27-2.71l4.93-15.04-4.12-1.08-8,6.53c-.57-1.3-1.04-2.61-1.42-3.89l8.91-5.34-3.09-1.08-6.94,1.46Z"/>
            <path class="cls-14" d="m1246.69,379.75l7.47-1.88c-.97,3.21-2.01,6.18-3.11,8.91h-13.12l-2.06,3.79,11.71,3.76c-2.61,4.97-5.42,8.96-8.31,12.17l-8.55-6.73-4.64,2.16,9.78,7.99c-2.17,1.95-4.35,3.5-6.48,4.73l-6.91-11.09-2.06,2.16,3.62,11.46c-8.82,3.27-15.71,1.62-15.71,1.62-1.57-2.91-2.9-5.66-4.02-8.27l9.93-4.81,1.03-3.79-12.66,4.29c-1.56-4.35-2.45-8.24-2.78-11.73l18.02-2.84.52-3.24-18.41-.92c1.11-7.53,5.47-12.55,11.33-15.85l11.72,10.82,2.06-2.7-9.62-10.1c4.8-1.92,10.21-2.98,15.5-3.52l2.88,10.37,3.09-1.62s-1.98-5.94-2.8-9.02c3.86-.25,7.58-.25,10.86-.14l.7,6.99h2.58l1.99-6.69c4.13.32,6.77.74,6.77.74-.54,2.54-1.12,4.94-1.74,7.24l-8.05,3.58-.52,2.16Z"/>
            <path class="cls-33" d="m1239.27,406.5c2.89-3.21,5.7-7.2,8.31-12.17l-11.71-3.76,2.06-3.79h13.12c1.1-2.74,2.14-5.7,3.11-8.91l-7.47,1.88.52-2.16,8.05-3.58c.57-2.14,1.12-4.38,1.62-6.72l-19.39,13.27c-5.14,3.52-9.52,8.02-12.89,13.26l-16.08,25.01c1.16.23,7.54,1.28,15.5-1.67l-3.62-11.46,2.06-2.16,6.91,11.09c2.13-1.23,4.31-2.78,6.48-4.73l-9.78-7.99,4.64-2.16,8.55,6.73Z"/>
            <path class="cls-33" d="m1245.08,433.94l-4.06-2.27,2.06-2.7,4.69,2.05c1.92-2.19,3.04-3.67,3.04-3.67-1.27-.55-2.5-1.05-3.71-1.51l-6.88,3.75-10.82,3.93c-4.61,1.67-9.5,2.39-14.4,2.1l-13.36-.78c1.56,3.35,3.27,6,5.07,8.06l5.97-5.82,1.55,1.62-5.73,6.02c3.8,3.44,7.96,4.54,12.14,4.17l-1.25-9.65h4.12v9.17c1.4-.34,2.8-.82,4.18-1.42l-1.6-8.84,2.06-1.08,3.55,7.87c1.36-.8,2.68-1.69,3.96-2.62l-1.84-8.49,2.06-.54,4.38,5.3c1.79-1.58,3.42-3.18,4.83-4.65Z"/>
            <path class="cls-33" d="m1160.93,411.78l-8.78-5.17c-.03,1.64.02,4.38.53,7.58l6.94-1.46,3.09,1.08-8.91,5.34c.38,1.29.85,2.6,1.42,3.89l8-6.53,4.12,1.08-4.93,15.04c1.26,1.01,2.68,1.92,4.27,2.71l4.78-15.04,4.64,1.62-1.42,15.91c1.47.24,3.03.39,4.69.46l2.4-12.58,7.21,2.7,1.9,8.98c1.46-.26,2.97-.57,4.54-.94l-1.29-5.88h2.06l1.45,5.32c1.08-.28,2.18-.59,3.31-.93,0,0,.02-2.24-.39-5.5l-2.39-.45c-3.78-.71-7.44-1.96-10.86-3.71l-26.4-13.54Z"/>
          </g>
          <g>
            <path class="cls-26" d="m1427.12,365.7s12.95-24.01,4.21-64.39c0,0-27.34,9.31-12.56,54.51l8.35,9.88Z"/>
            <path class="cls-26" d="m1414.46,353.25s-3.96-39.97-49.46-36.9c0,0,7.25,42.28,49.46,36.9Z"/>
            <path class="cls-26" d="m1427.53,365.2s-15.16,17.67-52.84,16.66c0,0,.6-30.53,45.91-24.23l6.93,7.57Z"/>
            <path class="cls-26" d="m1442,383.33s28.52-23,17.98-53.4c0,0-28.06,23.41-23.78,44.62l5.8,8.79Z"/>
            <path class="cls-26" d="m1441.92,383.47s-13.44,22.87-50.08,21.71c0,0,10.05-35.84,44.78-29.74l5.3,8.03Z"/>
            <path class="cls-26" d="m1450.69,396.53s-24.44-5.8-43.99,17.91c0,0,22.27,8.13,48.02-7.4l-4.04-10.51Z"/>
            <path class="cls-26" d="m1450.53,396.57l3.96,10.55s28.26-8.55,25.34-43.53c0,0-24.89,9.82-29.3,32.98Z"/>
            <path class="cls-26" d="m1458.19,416.19l2.03,8.71s26.08,1.04,37.78-7.39c0,0-22.03-17.09-39.81-1.32Z"/>
            <path class="cls-26" d="m1458.16,416.82l2.01,8s-10.62,12.85-31.4,18.69c0,0,.75-27.33,29.39-26.69Z"/>
            <path class="cls-14" d="m1431.34,302.3s-.12.04-.32.12c-2.54,5.57-7.48,17.01-8.14,22.93-.89,8.01-1.16,28.61,1.23,36.78.16.56,1.72-.3,1.89.2l2,2s12.08-21.65,3.34-62.03Z"/>
            <path class="cls-14" d="m1438.3,377.74l3.69,5.59s28.29-22.82,18.09-53.05c-5.26,14.74-19.53,43.02-21.79,47.45Z"/>
            <path class="cls-14" d="m1454.5,407.12s27.88-8.46,25.38-42.86c-4.75,9.22-22.9,31-27.7,36.69l2.32,6.18Z"/>
            <path class="cls-14" d="m1459.23,420.65l.99,4.25s25.82,1.03,37.6-7.27c-13.24-3.7-32.18,1.14-38.59,3.02Z"/>
            <path class="cls-14" d="m1460.17,424.82l-.9-3.6-1-.89s-22.54,16.75-29.49,23.18h0c20.77-5.83,31.4-18.69,31.4-18.69Z"/>
            <path class="cls-14" d="m1406.79,414.47c1.45.5,23.06,7.57,47.94-7.43l-2.22-5.78c-12.16-2.02-36.39,8.75-45.72,13.21Z"/>
            <path class="cls-14" d="m1391.94,405.18c36.56,1.11,49.98-21.71,49.98-21.71l-3.37-5.11c-22.83,3.34-40.87,20.69-46.61,26.82Z"/>
            <path class="cls-14" d="m1427.53,365.2l-4.39-4.8c-4.53,1.31-37.27,11-48.43,21.2-.01.17-.01.26-.01.26,37.68,1.01,52.84-16.66,52.84-16.66Z"/>
            <path class="cls-26" d="m1465.99,458.33s-1.04-74.04-53.1-107.42l-1.04,1.82s48.41,28.52,52.58,105.6h1.56Z"/>
            <path class="cls-14" d="m1365.11,316.34c12.4,7.2,37.74,22.9,48.86,36.96.16-.02.32-.03.48-.05,0,0-3.95-39.9-49.34-36.9Z"/>
          </g>
          <g>
            <path class="cls-13" d="m900.27,437.83s12.02-1.28,22.25,5.37c0,0-5.69,2.81-23.78-.77l1.53-4.6Z"/>
            <g>
              <path class="cls-13" d="m919.71,416.05s1.94-16.84,24.29-15.55c0,0-3.56,17.82-24.29,15.55Z"/>
              <path class="cls-13" d="m910.68,423s-6.53-10.04-2.51-27.11c0,0,5.3,3.37,6.54,22.89l-4.03,4.21Z"/>
              <path class="cls-13" d="m910.76,422.35s7.45,7.45,25.95,7.02c0,0-5.96-7.02-22.55-10.21l-3.4,3.19Z"/>
              <path class="cls-13" d="m904.07,430.41s-9.4-9.4-8.83-22.5c0,0,9.69,11.96,11.68,18.8l-2.85,3.7Z"/>
              <path class="cls-13" d="m904.53,430.47s7.06,7.76,24.6,9.15c0,0-7.8-11.42-22-12.53l-2.6,3.38Z"/>
              <path class="cls-13" d="m900.27,437.83l-1.53,4.6s-9.21-4.09-14.06-17.13c0,0,9.46,4.09,15.6,12.53Z"/>
              <path class="cls-13" d="m896.52,447.25l-.85,3.71s-12.79.94-18.67-2.39c0,0,9.38-3.66,19.52-1.32Z"/>
              <path class="cls-13" d="m896.52,447.63l-.34,3.49s6.14,4.35,16.62,4.86c0,0-7.5-9.04-16.28-8.35Z"/>
            </g>
            <path class="cls-28" d="m910.76,422.35s7.45,7.45,25.95,7.02c0,0-.02-.02-.05-.05-8.53-2.93-23.01-8.16-24.19-8.58l-1.72,1.62Z"/>
            <path class="cls-28" d="m904.53,430.47s7.06,7.76,24.6,9.15c0,0-.06-.09-.18-.25-6.98-3.62-19.5-9.07-23.09-10.63l-1.33,1.73Z"/>
            <path class="cls-28" d="m908.22,395.93s-.05-.03-.05-.03c-4.02,17.07,2.51,27.11,2.51,27.11l2.12-2.21c-.01-12.19-2.76-20.61-4.58-24.86Z"/>
            <path class="cls-28" d="m905.44,428.63c-6.22-6.52-9.15-16.4-10.19-20.7,0,0-.01-.01-.01-.01-.57,13.1,8.83,22.5,8.83,22.5l1.37-1.79Z"/>
            <path class="cls-28" d="m884.74,425.47c4.88,12.9,14,16.96,14,16.96l.8-2.4c-3.57-2.67-11.71-11.26-14.8-14.56Z"/>
            <path class="cls-28" d="m898.74,442.43c17.51,3.46,23.4.94,23.76.78-6.34-.94-19.88-2.66-23.01-3.05l-.76,2.27Z"/>
            <path class="cls-28" d="m912.17,455.28c-6.35-3.56-12.33-4.86-15.87-5.34l-.12,1.19s6.14,4.35,16.62,4.86c0,0-.22-.27-.63-.71Z"/>
            <path class="cls-28" d="m890.64,449.07c-7.27-.87-11.25-.75-13.43-.39,5.97,3.19,18.46,2.28,18.46,2.28l.24-1.03c-1.35-.3-3.07-.59-5.27-.86Z"/>
            <path class="cls-13" d="m894.39,460.33s.51-31.2,26.08-45.26l.51.77s-23.78,12.02-25.83,44.5h-.77Z"/>
            <path class="cls-28" d="m943.99,400.55c-4.29,1.32-12.09,5.04-24.27,15.38-.01.07-.02.12-.02.12,20.12,2.2,24.07-14.51,24.28-15.5Z"/>
          </g>
        </g>
      </g>
      <g class="cls-39">
        <polygon class="cls-18" points="1024 453.33 0 453.33 0 474.33 1024 474.33 2048 474.33 2048 453.33 1024 453.33"/>
        <path class="cls-5" d="m1024,453.33H0v3.75l4,.25c12.35,1.16,32.3,2.69,57,3,43.6.54,62.34-3.24,103-2,24.49.75,20.07,3.29,60,5,70,3,102,3,147,1,10.02-.45,26.97-4.37,52-6,18.97-1.24,33.84-1.17,45-1,83.96,1.27,97.47,10.47,149,6,21.7-1.88,27.26-4.21,51-5,26.74-.89,38.03,1.44,68,3,24.94,1.3,44.96.87,85,0,68.51-1.48,59.02-4.71,85-3,21.18,1.39,45.82,4.75,88,5,1.5,0,5.16.28,10,0,2.85-.17,7.02-1.08,11.1-2.15,9.15-2.4,18.63-3.27,28.06-2.6,11.34.81,25.56,1.55,41.84,1.75,43.6.54,62.34-3.24,103-2,24.49.75,20.07,3.29,60,5,70,3,102,3,147,1,10.02-.45,26.97-4.37,52-6,18.97-1.24,33.84-1.17,45-1,83.96,1.27,97.47,10.47,149,6,21.7-1.88,27.26-4.21,51-5,26.74-.89,38.03,1.44,68,3,24.94,1.3,44.96.87,85,0,68.51-1.48,59.02-4.71,85-3,21.18,1.39,45.82,4.75,88,5,1.5,0,5.16.28,10,0,7.44-.44,13.6-1.78,18-3l2-1.07v-5.93h-1024Z"/>
        <polygon class="cls-12" points="1536 469.33 1024 469.33 512 469.33 0 469.33 0 512.33 512 512.33 1024 512.33 1536 512.33 2048 512.33 2048 469.33 1536 469.33"/>
        <g>
          <g>
            <polygon class="cls-8" points="54 477.33 84 476.33 84 512.33 56 512.33 54 477.33"/>
            <polygon class="cls-17" points="150.53 479.33 155 512.33 176.23 512.33 183 476.33 150.53 479.33"/>
            <polygon class="cls-8" points="233 476.33 238.61 512.33 262.47 512.33 267 476.33 233 476.33"/>
            <polygon class="cls-8" points="308 476.33 310.79 512.33 331.53 512.33 326 476.33 308 476.33"/>
            <polygon class="cls-17" points="359.08 473.83 364.17 512.33 378 512.33 382 477.33 359.08 473.83"/>
            <polygon class="cls-8" points="473 476.33 478 512.33 501.33 512.33 500 474.33 473 476.33"/>
            <polygon class="cls-8" points="515.28 473.83 519 512.33 534.05 512.33 537 477.33 515.28 473.83"/>
            <polygon class="cls-17" points="602 476.33 602 512.33 622 512.33 622 474.33 602 476.33"/>
            <polygon class="cls-8" points="685 476.33 685 512.33 710.67 512.33 711 476.33 685 476.33"/>
            <polygon class="cls-8" points="845 474.33 849.34 512.33 869 512.33 875 476.33 845 474.33"/>
            <polygon class="cls-17" points="960 476.33 980 476.33 980.16 512.33 960 512.33 960 476.33"/>
          </g>
          <polygon class="cls-17" points="755 479.33 762 479.33 754.98 512.33 748.75 512.33 755 479.33"/>
          <polygon class="cls-17" points="544.33 479.33 571.67 479.33 570.17 512.33 542.5 512.33 544.33 479.33"/>
          <g>
            <polygon class="cls-8" points="1078 477.33 1108 476.33 1108 512.33 1080 512.33 1078 477.33"/>
            <polygon class="cls-17" points="1174.53 479.33 1179 512.33 1200.23 512.33 1207 476.33 1174.53 479.33"/>
            <polygon class="cls-8" points="1257 476.33 1262.61 512.33 1286.47 512.33 1291 476.33 1257 476.33"/>
            <polygon class="cls-8" points="1332 476.33 1334.79 512.33 1355.53 512.33 1350 476.33 1332 476.33"/>
            <polygon class="cls-17" points="1383.08 473.83 1388.17 512.33 1402 512.33 1406 477.33 1383.08 473.83"/>
            <polygon class="cls-8" points="1497 476.33 1502 512.33 1525.33 512.33 1524 474.33 1497 476.33"/>
            <polygon class="cls-17" points="1626 476.33 1626 512.33 1646 512.33 1646 474.33 1626 476.33"/>
            <polygon class="cls-8" points="1709 476.33 1709 512.33 1734.67 512.33 1735 476.33 1709 476.33"/>
            <polygon class="cls-8" points="1869 474.33 1873.34 512.33 1893 512.33 1899 476.33 1869 474.33"/>
            <polygon class="cls-17" points="1984 476.33 2004 476.33 2004.16 512.33 1984 512.33 1984 476.33"/>
          </g>
          <polygon class="cls-17" points="1120 479.33 1120 512.33 1125.25 512.33 1126.75 479.33 1120 479.33"/>
        </g>
        <polygon class="cls-20" points="1792 469.33 1536 469.33 1280 469.33 1024 469.33 768 469.33 512 469.33 256 469.33 0 469.33 0 479.33 256 479.33 512 479.33 768 479.33 1024 479.33 1280 479.33 1536 479.33 1792 479.33 2048 479.33 2048 469.33 1792 469.33"/>
      </g>
    </g>
  </g>
</svg>