<?xml version="1.0" encoding="UTF-8"?>
<svg id="Layer_1" data-name="Layer 1" xmlns="http://www.w3.org/2000/svg" viewBox="0 0 334.45 177.47">
  <defs>
    <style>
      .cls-1 {
        fill: #fff;
        stroke-width: 0px;
      }
    </style>
  </defs>
  <g>
    <path class="cls-1" d="m34.38,51.66c2.67,0,4.57-.34,5.7-1.03,1.13-.68,1.7-1.44,1.72-2.26.02-.82-.22-1.47-.73-1.96-.51-.49-1.22-.94-2.13-1.35s-2.33-.93-4.24-1.55c-1.91-.62-3.83-1.45-5.76-2.46-2.54-1.33-4.32-3.12-5.33-5.36-.57-1.17-.85-2.62-.85-4.34,0-3.94,1.64-6.87,4.91-8.76,2.66-1.52,5.82-2.29,9.47-2.29s6.96.55,9.94,1.64v7.79l-.08.12c-2.65-.84-5.57-1.26-8.76-1.26-4.34,0-6.51.97-6.51,2.9,0,1.21,1.01,2.27,3.03,3.16.85.43,2.35,1.02,4.49,1.76,2.14.74,4.02,1.54,5.66,2.4,3.93,2.09,5.89,5.05,5.89,8.88s-1.58,6.83-4.73,9.05-6.89,3.34-11.2,3.34-7.92-.99-10.83-2.96v-8.14c4.23,1.78,7.68,2.67,10.34,2.67Z"/>
    <path class="cls-1" d="m56.18,59.51V20.9h10.19c7.14,0,12.3,1.02,15.47,3.05,3.17,2.03,4.76,5.3,4.76,9.81s-2.12,7.97-6.35,10.28c-3.56,1.96-8.6,2.98-15.1,3.08v12.39h-8.96Zm10.87-20.83c7.05,0,10.58-1.51,10.58-4.54,0-3.2-3.53-4.8-10.58-4.8h-1.9v9.35h1.9Z"/>
    <path class="cls-1" d="m90.49,40.21c0-5.65,1.88-10.37,5.62-14.17,3.75-3.82,8.56-5.72,14.44-5.72s10.6,1.89,14.21,5.65c3.61,3.77,5.42,8.49,5.42,14.15s-1.87,10.43-5.6,14.24c-3.73,3.83-8.52,5.74-14.36,5.74s-10.57-1.91-14.24-5.72c-3.67-3.8-5.51-8.52-5.51-14.17Zm8.96-.2c0,3.35.99,6.14,2.96,8.36,1.95,2.22,4.63,3.32,8.03,3.3,3.4,0,6.04-1.04,7.94-3.13,1.89-2.08,2.84-4.81,2.84-8.18s-.96-6.15-2.87-8.33c-1.91-2.18-4.55-3.27-7.91-3.27s-6.04,1.04-8.03,3.13c-1.97,2.06-2.96,4.77-2.96,8.12Z"/>
    <path class="cls-1" d="m135.9,59.51V20.9h11.07c6.48,0,11.34,1.04,14.59,3.12,3.25,2.08,4.87,5.34,4.87,9.77,0,2.95-.53,5.37-1.59,7.26-1.06,1.89-2.59,3.47-4.57,4.72.77,1.74,2.01,3.31,3.74,4.72,1.73,1.41,3.62,2.55,5.67,3.43l.12.27-4.1,5.85c-2.53,0-5.22-1.21-8.09-3.63-2.86-2.42-4.92-5.08-6.18-7.97-2.21.33-4.39.49-6.56.49v10.58h-8.96Zm8.96-30.18v11.16h1.05c4.02-.02,6.95-.5,8.79-1.45s2.75-2.38,2.75-4.31-.8-3.32-2.4-4.16c-1.6-.83-4.39-1.24-8.38-1.24h-1.82Z"/>
    <path class="cls-1" d="m170.91,20.9h31.73v8.44h-11.4v30.18h-8.96v-30.18h-11.37v-8.44Z"/>
  </g>
  <g>
    <path class="cls-1" d="m275.98,137.86c-.02,12.13-5.6,18.19-16.73,18.19-5.16,0-9.16-1.48-12.01-4.45s-4.28-7.55-4.28-13.74v-21.01h8.96v20.69c0,3.51.53,6.07,1.58,7.67s2.97,2.4,5.74,2.4c5.18,0,7.76-3.32,7.76-9.95v-20.81h8.96v21.01Z"/>
    <path class="cls-1" d="m292.88,147.62c2.67,0,4.57-.34,5.7-1.03s1.7-1.44,1.72-2.26-.22-1.47-.73-1.96c-.51-.49-1.22-.94-2.13-1.35-.92-.41-2.33-.93-4.24-1.55s-3.83-1.45-5.76-2.46c-2.54-1.33-4.32-3.12-5.33-5.36-.57-1.17-.85-2.62-.85-4.34,0-3.95,1.64-6.87,4.91-8.76,2.66-1.52,5.82-2.29,9.47-2.29s6.96.55,9.94,1.64v7.79l-.08.12c-2.66-.84-5.58-1.26-8.76-1.26-4.34,0-6.51.97-6.51,2.9,0,1.21,1.01,2.27,3.03,3.16.86.43,2.35,1.02,4.49,1.76,2.14.74,4.02,1.54,5.66,2.4,3.93,2.09,5.89,5.05,5.89,8.88s-1.58,6.83-4.73,9.05c-3.15,2.23-6.89,3.34-11.2,3.34s-7.92-.99-10.83-2.96v-8.14c4.23,1.78,7.68,2.67,10.34,2.67Z"/>
  </g>
  <path class="cls-1" d="m103.03,147.62c2.4,0,5.62-.45,9.67-1.35l.47.35v8.24c-3.75.8-7.19,1.2-10.31,1.2-6.21,0-11.34-1.92-15.4-5.77-4.15-3.85-6.22-8.76-6.22-14.74,0-2.62.54-5.1,1.63-7.44,2.26-4.86,6.1-8.31,11.52-10.34,2.6-1,5.54-1.49,8.82-1.49s6.6.34,9.96,1.02v8.24l-.44.38c-3.63-.8-6.82-1.2-9.55-1.2-3.97,0-7.12,1.13-9.46,3.41s-3.52,4.96-3.52,8.05,1.17,5.8,3.52,8.08,5.45,3.4,9.32,3.38Z"/>
  <rect class="cls-1" x="211.32" y="37.79" width="98.68" height="8.14"/>
  <rect class="cls-1" x="23.8" y="133.73" width="48.7" height="8.14"/>
  <g>
    <path class="cls-1" d="m23.92,68.9h8.96v38.61h-8.96v-38.61Z"/>
    <path class="cls-1" d="m49.18,107.51h-8.96v-38.61h8.96l14.38,23.03v-23.03h8.96v38.61h-8.96l-14.38-23v23Z"/>
    <path class="cls-1" d="m89.08,107.51h-8.96v-38.61h8.96l14.38,23.03v-23.03h8.96v38.61h-8.96l-14.38-23v23Z"/>
    <path class="cls-1" d="m118.41,88.21c0-5.65,1.88-10.37,5.62-14.17,3.75-3.82,8.56-5.72,14.44-5.72s10.6,1.89,14.21,5.65c3.61,3.77,5.42,8.49,5.42,14.15s-1.87,10.43-5.6,14.24c-3.73,3.83-8.52,5.74-14.35,5.74s-10.57-1.91-14.24-5.72c-3.67-3.8-5.51-8.52-5.51-14.17Zm8.96-.2c0,3.35.99,6.14,2.96,8.36,1.95,2.22,4.63,3.32,8.03,3.3,3.4,0,6.04-1.04,7.94-3.13,1.89-2.08,2.84-4.81,2.84-8.18s-.96-6.15-2.87-8.33c-1.91-2.18-4.55-3.27-7.91-3.27s-6.04,1.04-8.03,3.13c-1.97,2.06-2.96,4.77-2.96,8.12Z"/>
    <path class="cls-1" d="m160.01,68.9h9.43l9.26,26.87,9.26-26.87h9.43l-13.3,38.61h-10.81l-13.27-38.61Z"/>
    <path class="cls-1" d="m222.38,100.66h-15.79l-2.37,6.86h-9.46l13.27-38.61h13.07l13.3,38.61h-9.64l-2.37-6.86Zm-12.89-8.44h9.96l-4.98-14.53-4.98,14.53Z"/>
    <path class="cls-1" d="m231.46,68.9h31.73v8.44h-11.4v30.18h-8.96v-30.18h-11.37v-8.44Z"/>
    <path class="cls-1" d="m267.29,68.9h8.96v38.61h-8.96v-38.61Z"/>
    <path class="cls-1" d="m283.29,68.9h26.48v8.44h-17.52v6.86h17.52v8.29h-17.52v6.59h17.52v8.44h-26.48v-38.61Z"/>
  </g>
  <g>
    <path class="cls-1" d="m145.47,148.61h-15.79l-2.37,6.86h-9.46l13.27-38.61h13.07l13.3,38.61h-9.64l-2.37-6.86Zm-12.89-8.44h9.96l-4.98-14.53-4.98,14.53Z"/>
    <path class="cls-1" d="m189.57,134.52l-4.39,8.96h-8.94l-4.54-9.08-.26,21.06h-8.96l.26-38.61h9.2l8.73,17.64,8.64-17.64h9.23l.35,38.61h-8.96l-.35-20.95Z"/>
    <path class="cls-1" d="m206.52,155.47v-38.61h10.19c7.14,0,12.3,1.02,15.47,3.05,3.17,2.03,4.75,5.3,4.75,9.81s-2.12,7.97-6.35,10.28c-3.56,1.96-8.6,2.99-15.1,3.08v12.39h-8.96Zm10.87-20.83c7.05,0,10.58-1.51,10.58-4.54,0-3.2-3.53-4.8-10.58-4.8h-1.9v9.35h1.9Z"/>
  </g>
</svg>